<svg xmlns="http://www.w3.org/2000/svg" viewBox="0 0 700.52 982"><defs><style>.cls-1{fill:#ff47da;}.cls-2{fill:#ffcfe2;}</style></defs><title>BW_Logo</title><g id="Layer_2" data-name="Layer 2"><g id="Layer_1-2" data-name="Layer 1"><path d="M660.32,558.55c-21.47-32.15-52-57.59-86.22-75.25A295.39,295.39,0,0,0,461,451.64a288,288,0,0,0-35.75-.51c21.46-16.95,42.06-35.25,60-55.89,20.8-24,40.5-52.9,43.87-85.26,1.73-16.63-3.6-34.74-16.5-46-12.16-10.58-27.38-15.41-43.08-17.67-30.46-4.39-61.06-1.84-90.79,5.54,6.38-64.53,12.35-129.1,16.41-193.8q.58-9.26,1.11-18.48c.18-2.4.31-4.81.4-7.21.39-9.41-8.55-18.41-18-18-10.2.45-17.44,7.92-18,18q-.21,3.49-.4,7c0,.11,0,.23,0,.34-.06.82-.14,1.62-.21,2.44-.15,1.76-.33,3.52-.53,5.29-.08.63-.15,1.28-.22,1.91,0,0,0,0,0,.08h0c0,.17-.06.36-.09.57-1.12,7.12-2.44,14.18-4.09,21.19a335,335,0,0,1-13.76,44c-1.1,2.85-2.26,5.69-3.41,8.51h0a.2.2,0,0,0,0,0s0,0,0,.06c-.26.61-1.32,3.08-1.6,3.75-.92,2.08-1.84,4.14-2.79,6.2q-4.87,10.62-10.33,20.95a403.37,403.37,0,0,1-23.84,39.67c-2.26,3.3-4.56,6.55-6.93,9.78-1.12,1.53-2.27,3-3.4,4.57l-.15.19a1.46,1.46,0,0,0-.16.21l-1.78,2.25q-7.29,9.1-15.29,17.58c-6.47,6.85-7.3,18.75,0,25.46,7,6.44,18.54,7.29,25.45,0,20.54-21.71,37.87-46.67,52.4-72.77q-2.42,26.55-5,53.06-1.4,14.36-2.84,28.73c-22.13,8.2-43.62,18.28-64.62,28.92C224.77,318.86,173.1,350.51,134.31,395c-5.48,6.29-10.87,12.8-15.69,19.6-7,9.87-8.35,26.18,3.79,32.81,6.92,3.78,15.35,4,23,4.6,15.33,1.25,31.11,2.23,46.48,1.34,4.49-.27,8.71-.71,12.7-3,8.19-4.65,11.67-16.53,6.45-24.62-4.34-6.74-13.74-8.31-20.19-8.36-3,.12-5.95.13-8.92.12q-9.59-.06-19.17-.49c6.29-7,12.94-13.69,19.87-20.06q7.34-6.75,15.06-13,2.09-1.71,4.2-3.39c.5-.4,1-.8,1.5-1.18a.91.91,0,0,1,.16-.13.38.38,0,0,0,.12-.1h0l0,0a.42.42,0,0,0,.13-.11c.46-.34,1.07-.82,1.23-.94l1.73-1.29c1.43-1.08,2.89-2.16,4.34-3.22,22.12-16.13,45.76-30.08,69.94-42.86,12.68-6.69,25.51-13.12,38.5-19.17,3.29-1.52,6.58-3,9.91-4.48,1.83-.82,3.68-1.62,5.53-2.41.6-.27,1.19-.51,1.78-.76l.15-.06.2-.08c.11,0,.19-.09.27-.11l.09,0c-4.47,44.4-9,88.81-13,133.25q-1.76,19.59-3.4,39.19c-.57.31-1.14.6-1.71.9-8.37,4.33-11.54,16.73-6.45,24.62a19.45,19.45,0,0,0,5.67,5.81c-3.34,43.93-6,87.91-7.47,131.94-1.86,55.2-1.8,110.41.59,165.58q.43,9.81.93,19.61c-2.65.15-5.29.27-7.94.38-41.74,1.77-83.67,1.58-125.4-.66-21.76-1.17-43.5-3-65.14-5.52-2.49-.29-5-.6-7.48-.91l-3.75-.48-.57-.07c-.13,0-.28,0-.41-.06l-.11,0-.35,0q-7.77-1.07-15.53-2.27-16.12-2.55-32.15-5.7Q38.2,806,22.62,802.25c-9.13-2.2-19.93,2.89-22.14,12.57C-1.63,824.08,3.27,834.58,13,837c44.51,10.77,90,17.41,135.6,21.17a1270.22,1270.22,0,0,0,131.9,3.51q17.13-.37,34.24-1.27c1.73,28.14,3.69,56.26,5.37,84.4q.57,9.62,1.1,19.22c.52,9.38,7.91,18.44,18,18,9.31-.42,18.55-7.92,18-18-2-35.4-4.49-70.76-6.64-106.15q27.12-2.43,54.06-6.56c39.23-6.09,78-15.62,115-30.24,37.42-14.79,73.3-33.77,103.87-60.17,27.8-24,51.61-55.82,59.56-92.25C691.49,630.25,681.94,590.94,660.32,558.55Zm-170-266.12-.72-.85A4.74,4.74,0,0,1,490.33,292.43Zm-8.49-6.15c-.54-.23-1.19-.48-1.48-.59A6.81,6.81,0,0,1,481.84,286.28Zm-106.94,4c8.94-2.66,18-4.93,27.15-6.72,3.48-.67,7-1.28,10.49-1.81a23.83,23.83,0,0,0,2.64-.34c1.62-.18,3.24-.37,4.87-.52a202.57,202.57,0,0,1,22.31-.89c3.53.06,7.06.21,10.59.47,2,.15,3.92.32,5.88.54.77.08,1.52.18,2.28.25h.08a103.31,103.31,0,0,1,18.78,4.4c.62.22,1.23.46,1.84.69l.32.12c.86.45,1.72,1,2.42,1.42.93.54,1.82,1.14,2.73,1.73.65.62,1.33,1.2,2,1.85.44.45.86.93,1.29,1.41l.15.16,0,0c.42.76.79,1.6,1.14,2.28-.09-.32-.21-.7-.35-1.15.15.48.34,1,.52,1.44,0,0,.06.11.08.16.41.7.58,1.59.34,1.14.36,1.21.61,2.44.88,3.69,0,.43.07.86.08,1.3.07,1.51.06,3,0,4.53-.05,1-.42,3.36-.42,3.52,0-.09.11-.47.27-1.32-.2,1.24-.4,2.49-.68,3.71a83.62,83.62,0,0,1-2.57,9c-.32.93-.62,1.94-1,2.91a.06.06,0,0,0,0,.05c-.06.12-.13.29-.21.47-.46,1-.9,2-1.36,3a167,167,0,0,1-10,18.3c-1.75,2.8-3.59,5.54-5.47,8.24-.95,1.36-1.92,2.7-2.89,4-.46.62-.92,1.22-1.37,1.84l-.17.22,0,0-.09.11c-17.59,21.93-38.27,41.27-60,59q-4,3.3-8.11,6.5l-1.59,1.25-.24.18-.45.35L392.83,431Q384,437.6,375,443.8q-7.86,5.38-15.94,10.47C363.81,399.54,369.39,344.89,374.9,290.24ZM650.32,643.52c-.07,2.14-.21,4.28-.4,6.4-.08.79-.17,1.59-.25,2.39,0,0,0,.06,0,.08h0A116.2,116.2,0,0,1,647,664.66a121,121,0,0,1-3.88,11.87c-.24.64-.51,1.28-.76,1.93a0,0,0,0,0,0,0c-.07.13-.13.27-.19.4q-1.29,2.86-2.7,5.65A151.56,151.56,0,0,1,626.21,706l-.51.71,0,0a6.12,6.12,0,0,1-.65.84l-.06.07-.16.2a.35.35,0,0,1-.08.11c-1.43,1.79-2.89,3.54-4.38,5.27q-4.23,4.89-8.75,9.52A228.81,228.81,0,0,1,592.71,740l-2.74,2.2-.23.18c-1.51,1.14-3,2.27-4.55,3.39q-5.27,3.82-10.71,7.4a363.74,363.74,0,0,1-49.7,27c-2,.91-4,1.81-6.1,2.7l-1,.44s-.08,0-.23.1l-.28.12a.73.73,0,0,1-.12,0l-2.26.93q-6.7,2.74-13.49,5.26-13.57,5-27.46,9.23a552.48,552.48,0,0,1-56,13.69Q403.45,815.4,389,817.5l-5,.72-.25,0-1.08.15-.11,0-.19,0h0l-.31,0h0c-1.28.17-2.56.33-3.85.48-4.85.6-9.72,1.17-14.59,1.68s-9.91,1-14.88,1.43q-4-79.47-2.09-159.06c1.31-54,4.45-108,8.64-162,1.44-.5,2.89-1,4.34-1.47a263.57,263.57,0,0,1,26.07-7.13q6.62-1.44,13.28-2.55c2-.34,4-.64,6.06-1H405c1.15-.15,2.3-.29,3.46-.42,8.8-1,17.65-1.55,26.49-1.69,9-.15,18.07.14,27.06.86,3.84.32,7.63.73,11.46,1.16l-.12,0a6.06,6.06,0,0,1,1,.13l-.55-.06.86.11.14,0q1.8.25,3.6.54,3.35.54,6.68,1.14a273,273,0,0,1,51.93,14.9c1,.37,1.87.76,2.81,1.14l.08,0c2.07.92,4.14,1.82,6.19,2.77q5.89,2.73,11.65,5.76a246.54,246.54,0,0,1,23.09,13.76c3.43,2.31,6.71,4.81,10,7.21l.08.06c.92.73,1.83,1.47,2.74,2.21,1.69,1.4,3.36,2.81,5,4.25a204.68,204.68,0,0,1,18.63,18.51q2,2.26,3.92,4.59l2.16,2.66,0,.07s0,.05.06.07c2.54,3.42,5,6.9,7.31,10.5s4.49,7.3,6.51,11.08c.92,1.74,1.81,3.49,2.67,5.27.42.88.84,1.77,1.25,2.66l.8,1.79c.18.4.29.62.34.7-.09-.27-.64-1.59-.9-2.13a30.45,30.45,0,0,1,2,5.28c.78,2.12,1.51,4.28,2.17,6.45a125.52,125.52,0,0,1,3.08,12.22c.12.57,1.32,5.57,1,5.75a4,4,0,0,1-.14-.83c.12,1.09.22,2.2.32,3.3A113.26,113.26,0,0,1,650.32,643.52Z"/><path class="cls-1" d="M667.52,551.35c-21.47-32.15-52-57.59-86.23-75.25a295.47,295.47,0,0,0-113.1-31.66,288,288,0,0,0-35.75-.51c21.46-16.95,42.06-35.25,60-55.89,20.8-24,40.5-52.9,43.87-85.25,1.72-16.64-3.6-34.74-16.5-46-12.16-10.58-27.38-15.4-43.09-17.67-30.45-4.39-61.06-1.84-90.78,5.54,6.38-64.52,12.34-129.1,16.41-193.8.38-6.17.76-12.32,1.1-18.48.18-2.39.32-4.81.41-7.2.38-9.42-8.55-18.42-18-18-10.2.46-17.44,7.92-18,18l-.39,7c0,.1,0,.22,0,.33-.06.82-.13,1.62-.2,2.44-.16,1.76-.34,3.52-.53,5.29-.08.63-.15,1.28-.23,1.92,0,0,0,0,0,.07h0c0,.17-.06.36-.09.58C365.25,49.94,363.93,57,362.28,64a335.62,335.62,0,0,1-13.76,44c-1.11,2.84-2.26,5.68-3.41,8.5h0a.43.43,0,0,0,0,0s0,0,0,.06l-1.61,3.76c-.91,2.07-1.83,4.13-2.78,6.2q-4.87,10.6-10.33,20.94a405.42,405.42,0,0,1-23.85,39.67c-2.25,3.3-4.55,6.55-6.92,9.78-1.13,1.53-2.28,3-3.4,4.57l-.15.19a1.84,1.84,0,0,0-.17.22l-1.77,2.24q-7.29,9.11-15.3,17.59c-6.46,6.84-7.29,18.74,0,25.45,7,6.44,18.55,7.29,25.46,0,20.54-21.71,37.87-46.66,52.4-72.77q-2.42,26.55-5,53.06-1.39,14.35-2.84,28.73c-22.13,8.21-43.62,18.28-64.62,28.92C232,311.66,180.3,343.31,141.51,387.82a248.08,248.08,0,0,0-15.69,19.61c-7,9.87-8.35,26.17,3.79,32.8,6.92,3.78,15.35,4,23,4.6,15.33,1.26,31.1,2.23,46.48,1.34,4.49-.26,8.71-.71,12.69-3,8.2-4.64,11.68-16.53,6.46-24.62-4.35-6.74-13.74-8.31-20.19-8.36-3,.12-6,.13-8.93.12q-9.57,0-19.17-.49c6.3-7,13-13.69,19.88-20.06q7.32-6.75,15.06-13c1.39-1.14,2.79-2.26,4.19-3.39l1.5-1.18.17-.13.12-.09h0v0l0,0a.4.4,0,0,0,.13-.11c.46-.33,1.07-.81,1.23-.93l1.72-1.3c1.44-1.08,2.89-2.16,4.35-3.21,22.12-16.14,45.76-30.09,69.94-42.87,12.68-6.69,25.51-13.12,38.5-19.16q4.92-2.3,9.9-4.49c1.84-.82,3.69-1.62,5.53-2.41.6-.27,1.19-.51,1.79-.76a.94.94,0,0,0,.15-.06l.2-.08.26-.11.1,0c-4.47,44.4-9,88.81-13,133.25q-1.75,19.61-3.41,39.19c-.56.31-1.14.6-1.7.9-8.37,4.33-11.54,16.74-6.45,24.62a19.49,19.49,0,0,0,5.67,5.82c-3.35,43.92-6,87.9-7.47,131.94-1.86,55.19-1.8,110.41.59,165.57q.42,9.81.93,19.62c-2.65.14-5.29.26-7.94.37-41.75,1.77-83.67,1.58-125.4-.66-21.76-1.16-43.5-2.95-65.14-5.52-2.5-.29-5-.6-7.49-.91l-3.74-.48-.57-.07-.41-.06h-.11l-.35-.05q-7.77-1.08-15.53-2.28-16.12-2.53-32.15-5.7-15.7-3.11-31.29-6.89c-9.12-2.2-19.92,2.9-22.13,12.58-2.11,9.26,2.79,19.75,12.56,22.13,44.51,10.77,90,17.42,135.6,21.17a1270.1,1270.1,0,0,0,131.89,3.52c11.42-.26,22.84-.66,34.25-1.28,1.73,28.15,3.68,56.26,5.36,84.41q.59,9.6,1.11,19.21c.51,9.38,7.9,18.44,18,18,9.31-.42,18.55-7.93,18-18-2-35.4-4.49-70.76-6.64-106.15q27.12-2.43,54.05-6.56c39.24-6.09,78.06-15.62,115-30.24,37.42-14.79,73.3-33.77,103.87-60.17,27.8-24,51.61-55.82,59.56-92.25C698.68,623.05,689.14,583.74,667.52,551.35Zm-170-266.11-.72-.86A4.49,4.49,0,0,1,497.53,285.24Zm-8.5-6.16c-.54-.23-1.18-.48-1.47-.59A6.55,6.55,0,0,1,489,279.08Zm-106.94,4c9-2.66,18-4.93,27.16-6.72q5.22-1,10.49-1.81a26.24,26.24,0,0,0,2.63-.33c1.62-.18,3.24-.38,4.87-.53a202.85,202.85,0,0,1,22.32-.89c3.52.06,7.06.22,10.59.47,2,.15,3.92.32,5.88.54.76.08,1.52.18,2.28.25h.08a103,103,0,0,1,18.77,4.4c.63.22,1.24.46,1.85.69l.31.12c.87.45,1.73,1,2.43,1.43.93.54,1.82,1.14,2.73,1.72.65.63,1.33,1.2,2,1.85.44.46.86.94,1.29,1.42,0,.06.1.1.15.15l0,0c.42.75.79,1.59,1.14,2.28-.1-.33-.22-.71-.35-1.16.15.48.34,1,.52,1.44l.08.16c.41.71.58,1.59.34,1.14.36,1.21.61,2.45.87,3.69,0,.44.07.87.09,1.3.07,1.51.06,3,0,4.53,0,1-.42,3.36-.42,3.52,0-.09.11-.47.28-1.32-.2,1.25-.41,2.49-.68,3.72a85.11,85.11,0,0,1-2.57,9c-.32.93-.62,1.94-1,2.91,0,0,0,0,0,.05s-.13.29-.21.47c-.46,1-.9,2-1.36,3a168.88,168.88,0,0,1-10,18.31c-1.75,2.79-3.59,5.54-5.47,8.24-.95,1.35-1.92,2.7-2.89,4-.46.61-.93,1.21-1.37,1.83l-.17.22,0,0-.09.1c-17.6,21.93-38.28,41.27-60,59q-4,3.29-8.11,6.5c-.53.42-1.07.84-1.6,1.24l-.24.18-.44.35L400,423.84q-8.8,6.56-17.87,12.76-7.86,5.4-15.94,10.47C371,392.35,376.59,337.69,382.09,283ZM657.51,636.33c-.07,2.13-.2,4.27-.39,6.39-.09.79-.17,1.6-.25,2.39,0,0,0,.06,0,.08h0a113.7,113.7,0,0,1-2.61,12.26,121,121,0,0,1-3.89,11.87c-.24.65-.5,1.28-.75,1.93a0,0,0,0,0,0,0c-.08.14-.14.27-.2.4q-1.27,2.87-2.7,5.65a150.41,150.41,0,0,1-13.29,21.5l-.5.7,0,0a6.12,6.12,0,0,1-.65.84.19.19,0,0,0-.06.07,1.66,1.66,0,0,0-.16.21.44.44,0,0,1-.08.1c-1.43,1.79-2.89,3.54-4.38,5.27q-4.23,4.89-8.76,9.53a230.34,230.34,0,0,1-18.94,17.21L597.16,735l-.22.18c-1.52,1.14-3,2.26-4.55,3.38q-5.26,3.83-10.71,7.4a363.74,363.74,0,0,1-49.7,27c-2,.91-4.06,1.81-6.11,2.7l-1,.45-.22.09-.28.12s-.07,0-.12.05l-2.27.94q-6.69,2.73-13.48,5.25-13.59,5-27.46,9.24a555.78,555.78,0,0,1-56,13.68q-14.38,2.76-28.88,4.86l-5,.72-.26,0-1.08.14a.19.19,0,0,0-.1,0l-.2,0h0a1.54,1.54,0,0,0-.31,0h0c-1.28.17-2.56.32-3.85.48q-7.29.9-14.6,1.68t-14.87,1.42q-4-79.47-2.09-159.06c1.31-54.05,4.45-108,8.64-162,1.44-.51,2.89-1,4.34-1.48a262.78,262.78,0,0,1,26.07-7.12q6.62-1.44,13.28-2.56c2-.34,4-.64,6-.95h.12c1.16-.14,2.31-.29,3.47-.42,8.79-1,17.65-1.55,26.49-1.69q13.54-.21,27.06.86c3.84.33,7.63.73,11.46,1.17l-.12,0a6.06,6.06,0,0,1,1,.13l-.56-.06.87.11a.35.35,0,0,1,.14,0q1.8.24,3.6.54c2.23.36,4.46.73,6.68,1.14a273.38,273.38,0,0,1,51.93,14.89l2.81,1.14.08,0c2.07.92,4.14,1.82,6.19,2.77q5.88,2.73,11.65,5.76a250,250,0,0,1,23.09,13.76c3.43,2.31,6.71,4.81,10,7.21a.2.2,0,0,1,.07.06c.93.73,1.84,1.47,2.75,2.22q2.54,2.08,5,4.24a203.3,203.3,0,0,1,18.62,18.51c1.34,1.51,2.64,3,3.93,4.6.72.87,1.44,1.76,2.16,2.65l0,.07s0,0,.06.07c2.55,3.42,5,6.9,7.32,10.5s4.49,7.3,6.5,11.08c.93,1.74,1.81,3.49,2.68,5.27.42.89.84,1.77,1.25,2.66.26.59.52,1.19.8,1.79.18.41.29.62.34.71-.09-.28-.64-1.6-.9-2.14a30.41,30.41,0,0,1,2,5.28c.78,2.12,1.51,4.28,2.17,6.45A122.25,122.25,0,0,1,656,615.35c.12.56,1.32,5.56,1,5.74a5.85,5.85,0,0,1-.13-.82c.12,1.09.22,2.19.31,3.29A108.85,108.85,0,0,1,657.51,636.33Z"/><path class="cls-2" d="M674.72,544.15c-21.48-32.15-52-57.59-86.23-75.25a295.28,295.28,0,0,0-113.11-31.65,287.83,287.83,0,0,0-35.74-.52c21.46-17,42.05-35.24,60-55.89,20.81-24,40.5-52.9,43.87-85.25,1.73-16.64-3.6-34.74-16.49-46C514.83,239,499.6,234.22,483.9,232c-30.46-4.39-61.06-1.83-90.78,5.54C399.5,173,405.46,108.4,409.53,43.69q.57-9.25,1.1-18.47c.18-2.4.31-4.81.41-7.21.38-9.42-8.55-18.42-18-18-10.19.46-17.44,7.92-18,18l-.39,7a2,2,0,0,0,0,.34c-.06.81-.13,1.61-.2,2.43-.16,1.76-.34,3.53-.53,5.29-.08.64-.16,1.28-.23,1.92,0,0,0,.05,0,.07h0c0,.17-.06.36-.1.58-1.11,7.11-2.43,14.18-4.09,21.18a332.17,332.17,0,0,1-13.76,44c-1.1,2.84-2.25,5.68-3.4,8.5v0s0,0,0,0,0,0,0,.06c-.27.61-1.32,3.09-1.61,3.76q-1.36,3.11-2.78,6.2Q343,130,337.53,140.36A404.24,404.24,0,0,1,313.68,180c-2.25,3.3-4.56,6.55-6.92,9.78-1.13,1.54-2.28,3.05-3.41,4.57l-.14.19-.17.22L301.27,197q-7.29,9.1-15.3,17.59c-6.46,6.85-7.29,18.75,0,25.45,7,6.44,18.55,7.3,25.46,0,20.53-21.71,37.87-46.66,52.39-72.76q-2.4,26.53-5,53.05-1.41,14.37-2.84,28.73c-22.14,8.21-43.62,18.28-64.62,28.93C239.16,304.47,187.5,336.11,148.7,380.63c-5.48,6.28-10.86,12.8-15.69,19.6-7,9.87-8.35,26.17,3.79,32.81,6.93,3.77,15.36,4,23,4.59,15.33,1.26,31.1,2.23,46.48,1.34,4.49-.26,8.71-.7,12.69-3,8.19-4.64,11.67-16.53,6.45-24.61-4.34-6.75-13.73-8.32-20.18-8.37-3,.12-5.95.14-8.93.12-6.38,0-12.79-.2-19.17-.49,6.3-7,12.95-13.68,19.88-20.05q7.32-6.75,15.05-13c1.39-1.14,2.8-2.27,4.2-3.4l1.5-1.17.17-.14.12-.09h0a.05.05,0,0,1,0,0,.53.53,0,0,0,.13-.11c.45-.33,1.07-.81,1.22-.93l1.73-1.3c1.44-1.08,2.89-2.16,4.34-3.21,22.12-16.14,45.77-30.09,69.95-42.86,12.68-6.7,25.5-13.13,38.49-19.17q4.94-2.29,9.91-4.49c1.84-.81,3.69-1.62,5.53-2.41l1.79-.75.14-.06.21-.09.26-.11.1,0c-4.48,44.39-9,88.8-13,133.25q-1.77,19.59-3.41,39.19c-.56.31-1.14.6-1.7.9-8.38,4.33-11.54,16.73-6.46,24.61a19.28,19.28,0,0,0,5.68,5.82c-3.35,43.93-6,87.9-7.48,131.94-1.85,55.19-1.79,110.41.59,165.58q.44,9.79.94,19.61c-2.65.14-5.29.26-7.94.37-41.75,1.78-83.67,1.58-125.41-.66-21.76-1.16-43.49-3-65.13-5.52-2.5-.28-5-.6-7.49-.91-1.25-.15-2.49-.31-3.74-.48l-.58-.07-.4-.06h-.11l-.35,0q-7.77-1.08-15.53-2.28-16.12-2.54-32.15-5.7Q52.58,791.64,37,787.86c-9.13-2.21-19.92,2.89-22.13,12.57-2.11,9.26,2.78,19.76,12.56,22.13,44.5,10.77,90,17.42,135.6,21.17a1270,1270,0,0,0,131.89,3.52q17.13-.37,34.25-1.27c1.73,28.14,3.68,56.26,5.36,84.4q.58,9.6,1.11,19.22c.51,9.38,7.9,18.43,18,18,9.31-.42,18.54-7.93,18-18-1.95-35.4-4.48-70.77-6.63-106.15q27.12-2.43,54.05-6.57c39.24-6.09,78.06-15.61,115-30.24,37.41-14.79,73.29-33.77,103.87-60.17,27.79-24,51.61-55.81,59.56-92.24C705.88,615.85,696.33,576.54,674.72,544.15ZM504.73,278l-.72-.85A4.41,4.41,0,0,1,504.73,278Zm-8.5-6.15c-.54-.23-1.19-.48-1.47-.59A6.27,6.27,0,0,1,496.23,271.89Zm-106.94,3.95c8.95-2.66,18-4.93,27.16-6.71q5.22-1,10.48-1.81c.83-.13,1.81-.13,2.64-.34,1.62-.18,3.24-.37,4.87-.53a205.17,205.17,0,0,1,22.31-.89c3.53.06,7.07.22,10.6.47,1.95.16,3.92.33,5.87.54.77.09,1.53.18,2.28.25a.12.12,0,0,0,.08,0h0a101.38,101.38,0,0,1,18.77,4.4c.62.21,1.24.45,1.85.68l.31.12c.86.46,1.73,1,2.42,1.43.94.54,1.83,1.14,2.74,1.73.65.62,1.33,1.2,1.95,1.84.45.46.87.94,1.3,1.42a1,1,0,0,0,.14.15l0,0c.42.75.79,1.59,1.14,2.28-.1-.33-.22-.71-.35-1.15.14.48.33,1,.51,1.44,0,0,.06.1.09.15.41.71.57,1.6.33,1.14.36,1.21.62,2.45.88,3.7,0,.43.07.86.08,1.29.08,1.51.06,3,0,4.54,0,1-.42,3.35-.42,3.51,0-.08.11-.47.28-1.32-.21,1.25-.41,2.5-.69,3.72a82.76,82.76,0,0,1-2.56,9c-.33.94-.63,1.94-1,2.92a.05.05,0,0,0,0,0c-.06.12-.13.29-.22.47l-1.35,3a168.88,168.88,0,0,1-10,18.31q-2.64,4.19-5.47,8.24c-.95,1.35-1.92,2.7-2.9,4-.45.61-.92,1.21-1.36,1.83a1.84,1.84,0,0,1-.17.22s0,0,0,.05a1,1,0,0,0-.08.11c-17.6,21.93-38.28,41.26-60,59q-4,3.28-8.1,6.5l-1.6,1.25a1.66,1.66,0,0,0-.24.18c-.14.12-.3.22-.44.34l-4.17,3.15q-8.79,6.57-17.86,12.76-7.86,5.4-15.94,10.47C378.21,385.15,383.78,330.5,389.29,275.84ZM664.71,629.13q-.11,3.21-.39,6.39c-.09.8-.17,1.6-.26,2.39,0,0,0,.06,0,.08v0a116.7,116.7,0,0,1-2.61,12.26,121.7,121.7,0,0,1-3.89,11.86c-.24.65-.5,1.28-.76,1.93a.06.06,0,0,0,0,0c-.07.13-.13.26-.19.39q-1.27,2.87-2.7,5.65a150.76,150.76,0,0,1-13.29,21.5c-.17.23-.35.48-.5.71l0,0a5.49,5.49,0,0,1-.64.84.21.21,0,0,0-.06.08l-.16.2a.52.52,0,0,1-.08.11c-1.43,1.78-2.9,3.54-4.38,5.26q-4.23,4.91-8.76,9.53a230.18,230.18,0,0,1-18.94,17.21c-.91.75-1.84,1.48-2.75,2.21l-.23.18c-1.51,1.14-3,2.27-4.54,3.38q-5.28,3.84-10.71,7.4a366.08,366.08,0,0,1-49.7,27c-2,.91-4.06,1.81-6.11,2.69l-1,.45-.23.09a1.42,1.42,0,0,1-.27.12.43.43,0,0,1-.12,0c-.75.3-1.92.79-2.27.94q-6.69,2.73-13.48,5.25-13.59,5-27.46,9.24a558.07,558.07,0,0,1-56,13.69q-14.37,2.75-28.87,4.85c-1.68.26-3.35.48-5,.72l-.25,0L397,804l-.11,0-.19,0h0l-.32.05h0c-1.28.17-2.57.32-3.85.48q-7.29.9-14.6,1.68T363,807.69q-4-79.49-2.09-159.07c1.31-54,4.45-108,8.64-161.95,1.43-.51,2.89-1,4.34-1.48A263.34,263.34,0,0,1,400,478.07q6.63-1.44,13.28-2.56c2-.33,4-.63,6.06-.94a.23.23,0,0,0,.12,0l3.47-.42c8.79-1,17.64-1.54,26.48-1.69q13.56-.21,27.07.87c3.84.32,7.63.73,11.45,1.16l-.12,0a5.81,5.81,0,0,1,1,.13l-.55-.06.86.11.15,0,3.6.54c2.23.36,4.46.73,6.68,1.14a273.4,273.4,0,0,1,51.93,14.9c.95.37,1.87.75,2.81,1.14l.08,0c2.06.93,4.14,1.83,6.19,2.77q5.88,2.74,11.65,5.76a252.29,252.29,0,0,1,23.09,13.76c3.43,2.32,6.7,4.81,10,7.21l.07.06c.92.73,1.84,1.48,2.75,2.22q2.54,2.09,5,4.25a199.67,199.67,0,0,1,18.63,18.51c1.33,1.51,2.64,3,3.92,4.59l2.16,2.65,0,.07.06.07c2.54,3.42,5,6.9,7.32,10.5s4.49,7.31,6.5,11.09c.92,1.73,1.81,3.49,2.68,5.26.42.89.84,1.78,1.24,2.66.27.59.53,1.19.81,1.79.18.41.28.63.33.71-.08-.28-.63-1.6-.9-2.14a30,30,0,0,1,2,5.28c.78,2.13,1.51,4.28,2.17,6.46a118.7,118.7,0,0,1,3.08,12.22c.12.56,1.32,5.57,1,5.75a5.84,5.84,0,0,1-.13-.83c.12,1.09.21,2.19.31,3.3A108.63,108.63,0,0,1,664.71,629.13Z"/></g></g></svg>