<svg xmlns="http://www.w3.org/2000/svg" viewBox="0 0 1177.17 1020"><defs><style>.cls-1,.cls-2,.cls-3{fill:none;stroke-linecap:round;stroke-linejoin:round;stroke-width:4px;}.cls-1{stroke:#f6f740;}.cls-2{stroke:#4cf;}.cls-3{stroke:#ff47da;}</style></defs><title>Penrose_1</title><g id="Layer_2" data-name="Layer 2"><g id="Triangle"><g id="Triangle-2" data-name="Triangle"><polygon class="cls-1" points="190.94 584.57 313.53 584.57 319.62 574.02 197.04 574.02 190.94 584.57"/><polygon class="cls-1" points="172.66 616.24 295.25 616.24 301.34 605.68 178.76 605.68 172.66 616.24"/><polygon class="cls-1" points="160.48 637.34 283.06 637.34 289.16 626.79 166.57 626.79 160.48 637.34"/><polygon class="cls-1" points="184.85 595.13 307.44 595.13 313.53 584.57 190.94 584.57 184.85 595.13"/><polygon class="cls-1" points="178.76 605.68 301.34 605.68 307.44 595.13 184.85 595.13 178.76 605.68"/><polygon class="cls-1" points="166.57 626.79 289.16 626.79 295.25 616.24 172.66 616.24 166.57 626.79"/><polygon class="cls-1" points="136.1 679.56 258.69 679.56 264.79 669 142.2 669 136.1 679.56"/><polygon class="cls-1" points="130.01 690.11 252.6 690.11 258.69 679.56 136.1 679.56 130.01 690.11"/><polygon class="cls-1" points="148.29 658.45 270.88 658.45 276.97 647.9 154.38 647.9 148.29 658.45"/><polygon class="cls-1" points="123.92 700.66 246.51 700.66 252.6 690.11 130.01 690.11 123.92 700.66"/><polygon class="cls-1" points="154.38 647.9 276.97 647.9 283.06 637.34 160.48 637.34 154.38 647.9"/><polygon class="cls-1" points="142.2 669 264.79 669 270.88 658.45 148.29 658.45 142.2 669"/><polygon class="cls-1" points="227.5 521.25 350.09 521.25 356.18 510.7 233.59 510.7 227.5 521.25"/><polygon class="cls-1" points="197.04 574.02 319.62 574.02 325.72 563.47 203.13 563.47 197.04 574.02"/><polygon class="cls-1" points="233.59 510.7 356.18 510.7 362.28 500.14 239.69 500.14 233.59 510.7"/><polygon class="cls-1" points="251.87 479.04 374.46 479.04 380.56 468.48 257.97 468.48 251.87 479.04"/><polygon class="cls-1" points="245.78 489.59 368.37 489.59 374.46 479.04 251.87 479.04 245.78 489.59"/><polygon class="cls-1" points="239.69 500.14 362.28 500.14 368.37 489.59 245.78 489.59 239.69 500.14"/><polygon class="cls-1" points="209.22 552.91 331.81 552.91 337.9 542.36 215.31 542.36 209.22 552.91"/><polygon class="cls-1" points="203.13 563.47 325.72 563.47 331.81 552.91 209.22 552.91 203.13 563.47"/><polygon class="cls-1" points="221.41 531.81 344 531.81 350.09 521.25 227.5 521.25 221.41 531.81"/><polygon class="cls-1" points="215.31 542.36 337.9 542.36 344 531.81 221.41 531.81 215.31 542.36"/><polygon class="cls-1" points="32.52 858.97 899.47 858.97 893.38 848.41 38.62 848.41 32.52 858.97"/><polygon class="cls-1" points="257.97 468.48 380.56 468.48 386.65 457.93 264.06 457.93 257.97 468.48"/><polygon class="cls-1" points="26.43 869.52 905.57 869.52 899.47 858.97 32.52 858.97 26.43 869.52"/><polygon class="cls-1" points="44.71 837.86 887.29 837.86 881.2 827.31 50.8 827.31 44.71 837.86"/><polygon class="cls-1" points="20.34 880.08 911.66 880.08 905.57 869.52 26.43 869.52 20.34 880.08"/><polygon class="cls-1" points="38.62 848.41 893.38 848.41 887.29 837.86 44.71 837.86 38.62 848.41"/><polygon class="cls-1" points="50.8 827.31 881.2 827.31 875.1 816.75 56.89 816.75 50.8 827.31"/><polygon class="cls-1" points="117.83 711.22 240.41 711.22 246.51 700.66 123.92 700.66 117.83 711.22"/><polygon class="cls-1" points="14.24 890.63 917.75 890.63 911.66 880.08 20.34 880.08 14.24 890.63"/><polygon class="cls-1" points="2.06 911.74 929.94 911.74 923.85 901.18 8.15 901.18 2.06 911.74"/><polygon class="cls-1" points="8.15 901.18 923.85 901.18 917.75 890.63 14.24 890.63 8.15 901.18"/><polygon class="cls-1" points="2 911.83 930 911.83 929.94 911.74 2.06 911.74 2 911.83"/><polygon class="cls-1" points="87.36 763.99 209.95 763.99 216.04 753.43 93.45 753.43 87.36 763.99"/><polygon class="cls-1" points="93.45 753.43 216.04 753.43 222.13 742.88 99.55 742.88 93.45 753.43"/><polygon class="cls-1" points="56.89 816.75 875.1 816.75 869.01 806.2 62.99 806.2 56.89 816.75"/><polygon class="cls-1" points="105.64 732.32 228.23 732.32 234.32 721.77 111.73 721.77 105.64 732.32"/><polygon class="cls-1" points="111.73 721.77 234.32 721.77 240.41 711.22 117.83 711.22 111.73 721.77"/><polygon class="cls-1" points="99.55 742.88 222.13 742.88 228.23 732.32 105.64 732.32 99.55 742.88"/><polygon class="cls-1" points="62.99 806.2 869.01 806.2 868.7 805.66 185.89 805.66 191.67 795.65 69.08 795.65 62.99 806.2"/><polygon class="cls-1" points="69.08 795.65 191.67 795.65 197.76 785.09 75.17 785.09 69.08 795.65"/><polygon class="cls-1" points="81.27 774.54 203.85 774.54 209.95 763.99 87.36 763.99 81.27 774.54"/><polygon class="cls-1" points="75.17 785.09 197.76 785.09 203.85 774.54 81.27 774.54 75.17 785.09"/><polygon class="cls-1" points="501.69 46.34 624.28 46.34 630.37 35.79 507.79 35.79 501.69 46.34"/><polygon class="cls-1" points="398.11 225.75 520.7 225.75 526.79 215.2 404.2 215.2 398.11 225.75"/><polygon class="cls-1" points="440.76 151.88 563.35 151.88 569.44 141.32 446.85 141.32 440.76 151.88"/><polygon class="cls-1" points="446.85 141.32 569.44 141.32 575.53 130.77 452.95 130.77 446.85 141.32"/><polygon class="cls-1" points="264.06 457.93 386.65 457.93 392.74 447.38 270.15 447.38 264.06 457.93"/><polygon class="cls-1" points="452.95 130.77 575.53 130.77 581.63 120.22 459.04 120.22 452.95 130.77"/><polygon class="cls-1" points="434.67 162.43 557.26 162.43 563.35 151.88 440.76 151.88 434.67 162.43"/><polygon class="cls-1" points="404.2 215.2 526.79 215.2 532.88 204.64 410.3 204.64 404.2 215.2"/><polygon class="cls-1" points="410.3 204.64 532.88 204.64 538.98 194.09 416.39 194.09 410.3 204.64"/><polygon class="cls-1" points="422.48 183.54 545.07 183.54 551.16 172.98 428.57 172.98 422.48 183.54"/><polygon class="cls-1" points="416.39 194.09 538.98 194.09 545.07 183.54 422.48 183.54 416.39 194.09"/><polygon class="cls-1" points="459.04 120.22 581.63 120.22 587.72 109.66 465.13 109.66 459.04 120.22"/><polygon class="cls-1" points="649.88 2 527.29 2 526.07 4.13 648.65 4.13 649.88 2"/><polygon class="cls-1" points="495.6 56.89 618.19 56.89 624.28 46.34 501.69 46.34 495.6 56.89"/><polygon class="cls-1" points="507.79 35.79 630.37 35.79 636.47 25.23 513.88 25.23 507.79 35.79"/><polygon class="cls-1" points="519.97 14.68 513.88 25.23 636.47 25.23 642.56 14.68 519.97 14.68"/><polygon class="cls-1" points="648.65 4.13 526.07 4.13 519.97 14.68 642.56 14.68 648.65 4.13"/><polygon class="cls-1" points="471.23 99.11 593.82 99.11 599.91 88.55 477.32 88.55 471.23 99.11"/><polygon class="cls-1" points="477.32 88.55 599.91 88.55 606 78 483.41 78 477.32 88.55"/><polygon class="cls-1" points="465.13 109.66 587.72 109.66 593.82 99.11 471.23 99.11 465.13 109.66"/><polygon class="cls-1" points="483.41 78 606 78 612.09 67.45 489.51 67.45 483.41 78"/><polygon class="cls-1" points="489.51 67.45 612.09 67.45 618.19 56.89 495.6 56.89 489.51 67.45"/><polygon class="cls-1" points="428.57 172.98 551.16 172.98 557.26 162.43 434.67 162.43 428.57 172.98"/><polygon class="cls-1" points="294.53 405.16 417.11 405.16 423.21 394.61 300.62 394.61 294.53 405.16"/><polygon class="cls-1" points="306.71 384.06 429.3 384.06 435.39 373.5 312.81 373.5 306.71 384.06"/><polygon class="cls-1" points="300.62 394.61 423.21 394.61 429.3 384.06 306.71 384.06 300.62 394.61"/><polygon class="cls-1" points="312.81 373.5 435.39 373.5 441.49 362.95 318.9 362.95 312.81 373.5"/><polygon class="cls-1" points="318.9 362.95 441.49 362.95 447.58 352.39 324.99 352.39 318.9 362.95"/><polygon class="cls-1" points="276.25 436.82 398.83 436.82 404.93 426.27 282.34 426.27 276.25 436.82"/><polygon class="cls-1" points="288.43 415.72 411.02 415.72 417.11 405.16 294.53 405.16 288.43 415.72"/><polygon class="cls-1" points="324.99 352.39 447.58 352.39 453.67 341.84 331.08 341.84 324.99 352.39"/><polygon class="cls-1" points="270.15 447.38 392.74 447.38 398.83 436.82 276.25 436.82 270.15 447.38"/><polygon class="cls-1" points="282.34 426.27 404.93 426.27 411.02 415.72 288.43 415.72 282.34 426.27"/><polygon class="cls-1" points="367.64 278.52 490.23 278.52 496.32 267.97 373.74 267.97 367.64 278.52"/><polygon class="cls-1" points="373.74 267.97 496.32 267.97 502.42 257.41 379.83 257.41 373.74 267.97"/><polygon class="cls-1" points="361.55 289.07 484.14 289.07 490.23 278.52 367.64 278.52 361.55 289.07"/><polygon class="cls-1" points="392.02 236.31 514.6 236.31 520.7 225.75 398.11 225.75 392.02 236.31"/><polygon class="cls-1" points="385.92 246.86 508.51 246.86 514.6 236.31 392.02 236.31 385.92 246.86"/><polygon class="cls-1" points="379.83 257.41 502.42 257.41 508.51 246.86 385.92 246.86 379.83 257.41"/><polygon class="cls-1" points="349.36 310.18 471.95 310.18 478.05 299.63 355.46 299.63 349.36 310.18"/><polygon class="cls-1" points="337.18 331.29 459.77 331.29 465.86 320.73 343.27 320.73 337.18 331.29"/><polygon class="cls-1" points="343.27 320.73 465.86 320.73 471.95 310.18 349.36 310.18 343.27 320.73"/><polygon class="cls-1" points="355.46 299.63 478.05 299.63 484.14 289.07 361.55 289.07 355.46 299.63"/><polygon class="cls-1" points="331.08 341.84 453.67 341.84 459.77 331.29 337.18 331.29 331.08 341.84"/><polygon class="cls-2" points="379.38 911.83 440.68 1018 452.93 1018 391.63 911.83 379.38 911.83"/><polygon class="cls-2" points="367.12 911.83 428.42 1018 440.68 1018 379.38 911.83 367.12 911.83"/><polygon class="cls-2" points="354.86 911.83 416.16 1018 428.42 1018 367.12 911.83 354.86 911.83"/><polygon class="cls-2" points="330.34 911.83 391.64 1018 403.9 1018 342.6 911.83 330.34 911.83"/><polygon class="cls-2" points="342.6 911.83 403.9 1018 416.16 1018 354.86 911.83 342.6 911.83"/><polygon class="cls-2" points="281.31 911.83 342.6 1018 354.86 1018 293.56 911.83 281.31 911.83"/><polygon class="cls-2" points="269.05 911.83 330.35 1018 342.6 1018 281.31 911.83 269.05 911.83"/><polygon class="cls-2" points="305.82 911.83 367.12 1018 379.38 1018 318.08 911.83 305.82 911.83"/><polygon class="cls-2" points="318.08 911.83 379.38 1018 391.64 1018 330.34 911.83 318.08 911.83"/><polygon class="cls-2" points="293.56 911.83 354.86 1018 367.12 1018 305.82 911.83 293.56 911.83"/><polygon class="cls-2" points="403.89 911.83 465.19 1018 477.45 1018 416.15 911.83 403.89 911.83"/><polygon class="cls-2" points="452.93 911.83 514.23 1018 526.49 1018 465.19 911.83 452.93 911.83"/><polygon class="cls-2" points="477.45 911.83 538.75 1018 551 1018 489.7 911.83 477.45 911.83"/><polygon class="cls-2" points="465.19 911.83 526.49 1018 538.75 1018 477.45 911.83 465.19 911.83"/><polygon class="cls-2" points="489.7 911.83 551 1018 563.26 1018 501.96 911.83 489.7 911.83"/><polygon class="cls-2" points="501.96 911.83 563.26 1018 575.52 1018 514.22 911.83 501.96 911.83"/><polygon class="cls-2" points="391.63 911.83 452.93 1018 465.19 1018 403.89 911.83 391.63 911.83"/><polygon class="cls-2" points="514.22 911.83 575.52 1018 587.78 1018 526.48 911.83 514.22 911.83"/><polygon class="cls-2" points="256.79 911.83 318.09 1018 330.35 1018 269.05 911.83 256.79 911.83"/><polygon class="cls-2" points="416.15 911.83 477.45 1018 489.71 1018 428.41 911.83 416.15 911.83"/><polygon class="cls-2" points="428.41 911.83 489.71 1018 501.97 1018 440.67 911.83 428.41 911.83"/><polygon class="cls-2" points="440.67 911.83 501.97 1018 514.23 1018 452.93 911.83 440.67 911.83"/><polygon class="cls-2" points="60.65 911.83 121.95 1018 134.2 1018 72.91 911.83 60.65 911.83"/><polygon class="cls-2" points="48.39 911.83 109.69 1018 121.95 1018 60.65 911.83 48.39 911.83"/><polygon class="cls-2" points="72.91 911.83 134.2 1018 146.46 1018 85.17 911.83 72.91 911.83"/><polygon class="cls-2" points="97.42 911.83 158.72 1018 170.98 1018 109.68 911.83 97.42 911.83"/><polygon class="cls-2" points="85.17 911.83 146.46 1018 158.72 1018 97.42 911.83 85.17 911.83"/><polygon class="cls-2" points="109.68 911.83 170.98 1018 183.24 1018 121.94 911.83 109.68 911.83"/><polygon class="cls-2" points="2 911.83 63.29 1018 72.91 1018 11.61 911.83 2 911.83"/><polygon class="cls-2" points="11.61 911.83 72.91 1018 85.17 1018 23.87 911.83 11.61 911.83"/><polygon class="cls-2" points="23.87 911.83 85.17 1018 97.43 1018 36.13 911.83 23.87 911.83"/><polygon class="cls-2" points="36.13 911.83 97.43 1018 109.69 1018 48.39 911.83 36.13 911.83"/><polygon class="cls-2" points="195.49 911.83 256.79 1018 269.05 1018 207.75 911.83 195.49 911.83"/><polygon class="cls-2" points="121.94 911.83 183.24 1018 195.5 1018 134.2 911.83 121.94 911.83"/><polygon class="cls-2" points="244.53 911.83 305.83 1018 318.09 1018 256.79 911.83 244.53 911.83"/><polygon class="cls-2" points="220.01 911.83 281.31 1018 293.57 1018 232.27 911.83 220.01 911.83"/><polygon class="cls-2" points="183.24 911.83 244.53 1018 256.79 1018 195.49 911.83 183.24 911.83"/><polygon class="cls-2" points="232.27 911.83 293.57 1018 305.83 1018 244.53 911.83 232.27 911.83"/><polygon class="cls-2" points="207.75 911.83 269.05 1018 281.31 1018 220.01 911.83 207.75 911.83"/><polygon class="cls-2" points="170.98 911.83 232.28 1018 244.53 1018 183.24 911.83 170.98 911.83"/><polygon class="cls-2" points="146.46 911.83 207.76 1018 220.02 1018 158.72 911.83 146.46 911.83"/><polygon class="cls-2" points="134.2 911.83 195.5 1018 207.76 1018 146.46 911.83 134.2 911.83"/><polygon class="cls-2" points="158.72 911.83 220.02 1018 232.28 1018 170.98 911.83 158.72 911.83"/><polygon class="cls-2" points="600.03 911.83 661.33 1018 673.59 1018 612.29 911.83 600.03 911.83"/><polygon class="cls-2" points="881.99 911.83 943.29 1018 955.54 1018 894.25 911.83 881.99 911.83"/><polygon class="cls-2" points="869.73 911.83 931.03 1018 943.29 1018 881.99 911.83 869.73 911.83"/><polygon class="cls-2" points="894.25 911.83 955.54 1018 967.8 1018 906.5 911.83 894.25 911.83"/><polygon class="cls-2" points="906.5 911.83 967.8 1018 980.06 1018 918.76 911.83 906.5 911.83"/><polygon class="cls-2" points="857.47 911.83 918.77 1018 931.03 1018 869.73 911.83 857.47 911.83"/><polygon class="cls-2" points="845.21 911.83 906.51 1018 918.77 1018 857.47 911.83 845.21 911.83"/><polygon class="cls-2" points="820.69 911.83 881.99 1018 894.25 1018 832.95 911.83 820.69 911.83"/><polygon class="cls-2" points="808.43 911.83 869.73 1018 881.99 1018 820.69 911.83 808.43 911.83"/><polygon class="cls-2" points="588.59 320.49 930 911.83 918.76 911.83 980.06 1018 992.32 1018 589.1 319.6 588.59 320.49"/><polygon class="cls-2" points="796.17 911.83 857.47 1018 869.73 1018 808.43 911.83 796.17 911.83"/><polygon class="cls-2" points="832.95 911.83 894.25 1018 906.51 1018 845.21 911.83 832.95 911.83"/><polygon class="cls-2" points="619.75 266.52 1053.62 1018 1065.87 1018 625.88 255.91 619.75 266.52"/><polygon class="cls-2" points="625.88 255.91 1065.87 1018 1078.13 1018 632 245.29 625.88 255.91"/><polygon class="cls-2" points="632 245.29 1078.13 1018 1090.39 1018 638.13 234.67 632 245.29"/><polygon class="cls-2" points="1113.88 1018 649.88 214.33 644.26 224.06 1102.65 1018 1113.88 1018"/><polygon class="cls-2" points="526.48 911.83 587.78 1018 600.04 1018 538.74 911.83 526.48 911.83"/><polygon class="cls-2" points="589.1 319.6 992.32 1018 1004.58 1018 595.23 308.99 589.1 319.6"/><polygon class="cls-2" points="601.36 298.37 1016.84 1018 1029.1 1018 607.49 287.75 601.36 298.37"/><polygon class="cls-2" points="613.62 277.14 1041.36 1018 1053.62 1018 619.75 266.52 613.62 277.14"/><polygon class="cls-2" points="595.23 308.99 1004.58 1018 1016.84 1018 601.36 298.37 595.23 308.99"/><polygon class="cls-2" points="607.49 287.75 1029.1 1018 1041.36 1018 613.62 277.14 607.49 287.75"/><polygon class="cls-2" points="644.26 224.06 638.13 234.67 1090.39 1018 1102.65 1018 644.26 224.06"/><polygon class="cls-2" points="612.29 911.83 673.59 1018 685.85 1018 624.55 911.83 612.29 911.83"/><polygon class="cls-2" points="624.55 911.83 685.85 1018 698.11 1018 636.81 911.83 624.55 911.83"/><polygon class="cls-2" points="636.81 911.83 698.11 1018 710.37 1018 649.07 911.83 636.81 911.83"/><polygon class="cls-2" points="649.07 911.83 710.37 1018 722.63 1018 661.33 911.83 649.07 911.83"/><polygon class="cls-2" points="587.78 911.83 649.07 1018 661.33 1018 600.03 911.83 587.78 911.83"/><polygon class="cls-2" points="783.92 911.83 845.22 1018 857.47 1018 796.17 911.83 783.92 911.83"/><polygon class="cls-2" points="551 911.83 612.3 1018 624.56 1018 563.26 911.83 551 911.83"/><polygon class="cls-2" points="538.74 911.83 600.04 1018 612.3 1018 551 911.83 538.74 911.83"/><polygon class="cls-2" points="563.26 911.83 624.56 1018 636.82 1018 575.52 911.83 563.26 911.83"/><polygon class="cls-2" points="575.52 911.83 636.82 1018 649.07 1018 587.78 911.83 575.52 911.83"/><polygon class="cls-2" points="661.33 911.83 722.63 1018 734.89 1018 673.59 911.83 661.33 911.83"/><polygon class="cls-2" points="747.14 911.83 808.44 1018 820.7 1018 759.4 911.83 747.14 911.83"/><polygon class="cls-2" points="759.4 911.83 820.7 1018 832.96 1018 771.66 911.83 759.4 911.83"/><polygon class="cls-2" points="734.88 911.83 796.18 1018 808.44 1018 747.14 911.83 734.88 911.83"/><polygon class="cls-2" points="771.66 911.83 832.96 1018 845.22 1018 783.92 911.83 771.66 911.83"/><polygon class="cls-2" points="722.62 911.83 783.92 1018 796.18 1018 734.88 911.83 722.62 911.83"/><polygon class="cls-2" points="685.85 911.83 747.14 1018 759.4 1018 698.11 911.83 685.85 911.83"/><polygon class="cls-2" points="698.11 911.83 759.4 1018 771.66 1018 710.36 911.83 698.11 911.83"/><polygon class="cls-2" points="673.59 911.83 734.89 1018 747.14 1018 685.85 911.83 673.59 911.83"/><polygon class="cls-2" points="710.36 911.83 771.66 1018 783.92 1018 722.62 911.83 710.36 911.83"/><polygon class="cls-3" points="810.42 280.06 749.12 386.22 755.25 396.84 816.55 290.67 810.42 280.06"/><polygon class="cls-3" points="828.8 311.91 767.51 418.07 773.64 428.69 834.93 322.52 828.8 311.91"/><polygon class="cls-3" points="834.93 322.52 773.64 428.69 779.77 439.3 841.06 333.14 834.93 322.52"/><polygon class="cls-3" points="804.29 269.44 742.99 375.61 749.12 386.22 810.42 280.06 804.29 269.44"/><polygon class="cls-3" points="822.67 301.29 761.38 407.45 767.51 418.07 828.8 311.91 822.67 301.29"/><polygon class="cls-3" points="816.55 290.67 755.25 396.84 761.38 407.45 822.67 301.29 816.55 290.67"/><polygon class="cls-3" points="785.9 237.59 724.61 343.76 730.73 354.37 792.03 248.21 785.9 237.59"/><polygon class="cls-3" points="779.77 226.97 718.48 333.14 724.61 343.76 785.9 237.59 779.77 226.97"/><polygon class="cls-3" points="798.16 258.82 736.86 364.99 742.99 375.61 804.29 269.44 798.16 258.82"/><polygon class="cls-3" points="792.03 248.21 730.73 354.37 736.86 364.99 798.16 258.82 792.03 248.21"/><polygon class="cls-3" points="890.1 418.07 828.8 524.24 834.93 534.85 896.23 428.69 890.1 418.07"/><polygon class="cls-3" points="871.71 386.22 810.42 492.39 816.55 503 877.84 396.84 871.71 386.22"/><polygon class="cls-3" points="883.97 407.45 822.67 513.62 828.8 524.24 890.1 418.07 883.97 407.45"/><polygon class="cls-3" points="877.84 396.84 816.55 503 822.67 513.62 883.97 407.45 877.84 396.84"/><polygon class="cls-3" points="773.64 216.36 712.35 322.52 718.48 333.14 779.77 226.97 773.64 216.36"/><polygon class="cls-3" points="896.23 428.69 834.93 534.85 841.06 545.47 902.36 439.3 896.23 428.69"/><polygon class="cls-3" points="847.19 343.76 785.9 449.92 792.03 460.54 853.32 354.37 847.19 343.76"/><polygon class="cls-3" points="841.06 333.14 779.77 439.3 785.9 449.92 847.19 343.76 841.06 333.14"/><polygon class="cls-3" points="853.32 354.37 792.03 460.54 798.16 471.15 859.45 364.99 853.32 354.37"/><polygon class="cls-3" points="859.45 364.99 798.16 471.15 804.29 481.77 865.58 375.61 859.45 364.99"/><polygon class="cls-3" points="865.58 375.61 804.29 481.77 810.42 492.39 871.71 386.22 865.58 375.61"/><polygon class="cls-3" points="755.25 184.51 693.96 290.67 700.09 301.29 761.38 195.13 755.25 184.51"/><polygon class="cls-3" points="675.57 46.5 237.27 805.66 249.53 805.66 681.7 57.11 675.57 46.5"/><polygon class="cls-3" points="681.7 57.11 249.53 805.66 261.78 805.66 687.83 67.73 681.7 57.11"/><polygon class="cls-3" points="669.44 35.88 225.01 805.66 237.27 805.66 675.57 46.5 669.44 35.88"/><polygon class="cls-3" points="693.96 78.34 274.04 805.66 286.3 805.66 700.09 88.96 693.96 78.34"/><polygon class="cls-3" points="687.83 67.73 261.78 805.66 274.04 805.66 693.96 78.34 687.83 67.73"/><polygon class="cls-3" points="663.31 25.26 212.75 805.66 225.01 805.66 669.44 35.88 663.31 25.26"/><polygon class="cls-3" points="651.05 4.03 188.23 805.66 200.49 805.66 657.18 14.65 651.05 4.03"/><polygon class="cls-3" points="649.88 2 185.89 805.66 188.23 805.66 651.05 4.03 649.88 2"/><polygon class="cls-3" points="767.51 205.74 706.22 311.91 712.35 322.52 773.64 216.36 767.51 205.74"/><polygon class="cls-3" points="657.18 14.65 200.49 805.66 212.75 805.66 663.31 25.26 657.18 14.65"/><polygon class="cls-3" points="700.09 88.96 286.3 805.66 298.56 805.66 706.22 99.58 700.09 88.96"/><polygon class="cls-3" points="736.86 152.66 675.57 258.82 681.7 269.44 742.99 163.28 736.86 152.66"/><polygon class="cls-3" points="749.12 173.89 687.83 280.06 693.96 290.67 755.25 184.51 749.12 173.89"/><polygon class="cls-3" points="742.99 163.28 681.7 269.44 687.83 280.06 749.12 173.89 742.99 163.28"/><polygon class="cls-3" points="902.36 439.3 841.06 545.47 847.19 556.09 908.49 449.92 902.36 439.3"/><polygon class="cls-3" points="706.22 99.58 298.56 805.66 308.48 805.66 649.88 214.33 651.05 216.36 712.35 110.19 706.22 99.58"/><polygon class="cls-3" points="761.38 195.13 700.09 301.29 706.22 311.91 767.51 205.74 761.38 195.13"/><polygon class="cls-3" points="712.35 110.19 651.05 216.36 657.18 226.97 718.48 120.81 712.35 110.19"/><polygon class="cls-3" points="730.73 142.04 669.44 248.21 675.57 258.82 736.86 152.66 730.73 142.04"/><polygon class="cls-3" points="718.48 120.81 657.18 226.97 663.31 237.59 724.61 131.43 718.48 120.81"/><polygon class="cls-3" points="724.61 131.43 663.31 237.59 669.44 248.21 730.73 142.04 724.61 131.43"/><polygon class="cls-3" points="1159.79 885.2 1098.5 991.36 1104.63 1001.98 1165.92 895.81 1159.79 885.2"/><polygon class="cls-3" points="1104.63 789.65 1043.33 895.81 1049.46 906.43 1110.76 800.26 1104.63 789.65"/><polygon class="cls-3" points="1080.11 747.18 1018.82 853.35 1024.95 863.96 1086.24 757.8 1080.11 747.18"/><polygon class="cls-3" points="1086.24 757.8 1024.95 863.96 1031.08 874.58 1092.37 768.41 1086.24 757.8"/><polygon class="cls-3" points="1098.5 779.03 1037.2 885.2 1043.33 895.81 1104.63 789.65 1098.5 779.03"/><polygon class="cls-3" points="1092.37 768.41 1031.08 874.58 1037.2 885.2 1098.5 779.03 1092.37 768.41"/><polygon class="cls-3" points="1043.33 683.48 982.04 789.65 988.17 800.26 1049.46 694.1 1043.33 683.48"/><polygon class="cls-3" points="1067.85 725.95 1006.56 832.11 1012.69 842.73 1073.98 736.56 1067.85 725.95"/><polygon class="cls-3" points="1055.59 704.72 994.3 810.88 1000.43 821.5 1061.72 715.33 1055.59 704.72"/><polygon class="cls-3" points="1049.46 694.1 988.17 800.26 994.3 810.88 1055.59 704.72 1049.46 694.1"/><polygon class="cls-3" points="1061.72 715.33 1000.43 821.5 1006.56 832.11 1067.85 725.95 1061.72 715.33"/><polygon class="cls-3" points="1073.98 736.56 1012.69 842.73 1018.82 853.35 1080.11 747.18 1073.98 736.56"/><polygon class="cls-3" points="1147.53 863.96 1086.24 970.13 1092.37 980.74 1153.66 874.58 1147.53 863.96"/><polygon class="cls-3" points="1153.66 874.58 1092.37 980.74 1098.5 991.36 1159.79 885.2 1153.66 874.58"/><polygon class="cls-3" points="1172.05 906.43 1165.92 895.81 1104.63 1001.98 1110.76 1012.59 1172.05 906.43"/><polygon class="cls-3" points="1141.4 853.35 1080.11 959.51 1086.24 970.13 1147.53 863.96 1141.4 853.35"/><polygon class="cls-3" points="1113.88 1018 1175.17 911.83 1172.05 906.43 1110.76 1012.59 1113.88 1018"/><polygon class="cls-3" points="1123.02 821.5 1061.72 927.66 1067.85 938.28 1129.15 832.11 1123.02 821.5"/><polygon class="cls-3" points="1110.76 800.26 1049.46 906.43 1055.59 917.04 1116.89 810.88 1110.76 800.26"/><polygon class="cls-3" points="1116.89 810.88 1055.59 917.04 1061.72 927.66 1123.02 821.5 1116.89 810.88"/><polygon class="cls-3" points="1135.28 842.73 1073.98 948.89 1080.11 959.51 1141.4 853.35 1135.28 842.73"/><polygon class="cls-3" points="1129.15 832.11 1067.85 938.28 1073.98 948.89 1135.28 842.73 1129.15 832.11"/><polygon class="cls-3" points="933 492.39 871.71 598.55 877.84 609.17 939.13 503 933 492.39"/><polygon class="cls-3" points="969.78 556.09 908.49 662.25 914.62 672.87 975.91 566.7 969.78 556.09"/><polygon class="cls-3" points="951.39 524.24 890.1 630.4 896.23 641.02 957.52 534.85 951.39 524.24"/><polygon class="cls-3" points="963.65 545.47 902.36 651.63 908.49 662.25 969.78 556.09 963.65 545.47"/><polygon class="cls-3" points="957.52 534.85 896.23 641.02 902.36 651.63 963.65 545.47 957.52 534.85"/><polygon class="cls-3" points="939.13 503 877.84 609.17 883.97 619.78 945.26 513.62 939.13 503"/><polygon class="cls-3" points="945.26 513.62 883.97 619.78 890.1 630.4 951.39 524.24 945.26 513.62"/><polygon class="cls-3" points="908.49 449.92 847.19 556.09 853.32 566.7 914.62 460.54 908.49 449.92"/><polygon class="cls-3" points="914.62 460.54 853.32 566.7 859.45 577.32 920.75 471.15 914.62 460.54"/><polygon class="cls-3" points="920.75 471.15 859.45 577.32 865.58 587.93 926.88 481.77 920.75 471.15"/><polygon class="cls-3" points="926.88 481.77 865.58 587.93 871.71 598.55 933 492.39 926.88 481.77"/><polygon class="cls-3" points="1024.95 651.63 963.65 757.8 969.78 768.41 1031.08 662.25 1024.95 651.63"/><polygon class="cls-3" points="975.91 566.7 914.62 672.87 920.75 683.48 982.04 577.32 975.91 566.7"/><polygon class="cls-3" points="1018.82 641.02 957.52 747.18 963.65 757.8 1024.95 651.63 1018.82 641.02"/><polygon class="cls-3" points="1037.2 672.87 975.91 779.03 982.04 789.65 1043.33 683.48 1037.2 672.87"/><polygon class="cls-3" points="1006.56 619.78 945.26 725.95 951.39 736.56 1012.69 630.4 1006.56 619.78"/><polygon class="cls-3" points="1031.08 662.25 969.78 768.41 975.91 779.03 1037.2 672.87 1031.08 662.25"/><polygon class="cls-3" points="1012.69 630.4 951.39 736.56 957.52 747.18 1018.82 641.02 1012.69 630.4"/><polygon class="cls-3" points="1000.43 609.17 939.13 715.33 945.26 725.95 1006.56 619.78 1000.43 609.17"/><polygon class="cls-3" points="982.04 577.32 920.75 683.48 926.88 694.1 988.17 587.93 982.04 577.32"/><polygon class="cls-3" points="988.17 587.93 926.88 694.1 933 704.72 994.3 598.55 988.17 587.93"/><polygon class="cls-3" points="994.3 598.55 933 704.72 939.13 715.33 1000.43 609.17 994.3 598.55"/></g></g></g></svg>