<svg xmlns="http://www.w3.org/2000/svg" viewBox="0 0 1920 152"><defs><style>.cls-1,.cls-2,.cls-3{fill:none;stroke-miterlimit:10;stroke-width:2px;}.cls-1{stroke:#f6f740;}.cls-2{stroke:#4cf;}.cls-3{stroke:#ff47da;}</style></defs><title>Sines</title><g id="Layer_2" data-name="Layer 2"><g id="Layer_2-2" data-name="Layer 2"><path class="cls-1" d="M0,51c60,0,60,50,120,50s60-50,120-50,60,50,120,50,60-50,120-50,60,50,120,50,60-50,120-50,60,50,120,50,60-50,120-50,60,50,120,50,60-50,120-50,60,50,120,50,60-50,120-50,60,50,120,50,60-50,120-50,60,50,120,50,60-50,120-50"/><path class="cls-2" d="M0,51c45.71,0,45.71,50,91.42,50s45.72-50,91.43-50,45.71,50,91.43,50S320,51,365.7,51s45.72,50,91.43,50,45.71-50,91.43-50,45.71,50,91.43,50,45.71-50,91.42-50,45.72,50,91.43,50,45.72-50,91.43-50,45.71,50,91.42,50,45.72-50,91.43-50,45.72,50,91.43,50,45.71-50,91.43-50,45.71,50,91.43,50,45.71-50,91.43-50,45.71,50,91.43,50S1600,51,1645.7,51s45.71,50,91.43,50,45.72-50,91.43-50,45.72,50,91.44,50"/><path class="cls-2" d="M0,32c53.33,0,53.33,88,106.66,88S160,32,213.33,32,266.66,120,320,120s53.34-88,106.67-88S480,120,533.32,120,586.66,32,640,32s53.33,88,106.67,88S800,32,853.32,32,906.65,120,960,120s53.33-88,106.66-88,53.33,88,106.67,88S1226.65,32,1280,32s53.34,88,106.67,88S1440,32,1493.32,32s53.33,88,106.66,88,53.34-88,106.67-88,53.34,88,106.68,88S1866.66,32,1920,32"/><path class="cls-3" d="M0,72c19.59,0,19.59,8,39.18,8s19.59-8,39.18-8S98,80,117.54,80s19.59-8,39.18-8,19.59,8,39.18,8,19.6-8,39.19-8,19.59,8,39.18,8,19.59-8,39.18-8,19.59,8,39.18,8,19.59-8,39.18-8S411.4,80,431,80s19.59-8,39.18-8,19.59,8,39.18,8,19.59-8,39.18-8,19.59,8,39.18,8,19.6-8,39.19-8,19.59,8,39.18,8,19.59-8,39.18-8,19.59,8,39.19,8,19.59-8,39.18-8,19.59,8,39.18,8,19.6-8,39.19-8,19.59,8,39.18,8,19.59-8,39.18-8,19.6,8,39.19,8,19.59-8,39.18-8,19.59,8,39.19,8,19.59-8,39.18-8,19.59,8,39.18,8,19.59-8,39.18-8,19.59,8,39.18,8,19.59-8,39.18-8,19.59,8,39.18,8,19.6-8,39.19-8,19.59,8,39.18,8,19.59-8,39.19-8,19.59,8,39.18,8,19.59-8,39.18-8,19.6,8,39.19,8,19.59-8,39.19-8,19.59,8,39.18,8,19.6-8,39.19-8,19.59,8,39.18,8,19.6-8,39.19-8,19.59,8,39.19,8,19.59-8,39.19-8,19.59,8,39.18,8,19.6-8,39.2-8,19.59,8,39.19,8"/><path class="cls-2" d="M0,1C34.28,1,34.28,151,68.57,151S102.85,1,137.14,1s34.28,150,68.57,150S240,1,274.27,1s34.29,150,68.58,150S377.13,1,411.42,1,445.7,151,480,151,514.27,1,548.56,1s34.28,150,68.56,150S651.41,1,685.7,1,720,151,754.27,151,788.55,1,822.84,1s34.28,150,68.57,150S925.69,1,960,1s34.28,150,68.57,150S1062.83,1,1097.12,1s34.28,150,68.56,150S1200,1,1234.25,1s34.29,150,68.57,150S1337.11,1,1371.4,1s34.28,150,68.57,150S1474.26,1,1508.55,1s34.28,150,68.57,150S1611.4,1,1645.69,1s34.29,150,68.57,150S1748.55,1,1782.84,1s34.29,150,68.58,150S1885.71,1,1920,1"/><path class="cls-1" d="M0,31c48,0,48,90,96,90s48-90,96-90,48,90,96,90,48-90,96-90,48,90,96,90,48-90,96-90,48,90,96,90,48-90,96-90,48,90,96,90,48-90,96-90,48,90,96,90,48-90,96-90,48,90,96,90,48-90,96-90,48,90,96,90,48-90,96-90,48,90,96,90,48-90,96-90,48,90,96,90,48-90,96-90"/><path class="cls-3" d="M0,13c56.47,0,56.47,126,112.94,126S169.41,13,225.88,13s56.47,126,112.94,126S395.29,13,451.76,13,508.23,139,564.7,139,621.17,13,677.64,13s56.47,126,112.94,126S847.05,13,903.52,13,960,139,1016.46,139,1072.93,13,1129.4,13s56.47,126,112.94,126,56.47-126,112.94-126,56.47,126,112.94,126,56.47-126,112.94-126,56.47,126,112.94,126,56.48-126,113-126,56.48,126,113,126"/></g></g></svg>