<svg xmlns="http://www.w3.org/2000/svg" viewBox="0 0 1870.62 772.05"><defs><style>.cls-1,.cls-2{fill:none;stroke-miterlimit:10;}.cls-1{stroke:#2b2427;stroke-width:2px;}.cls-2{stroke:#fff;stroke-width:1.82px;}.cls-3{font-size:36.38px;}.cls-3,.cls-5{fill:#fff;font-family:Oswald, sans-serif;font-weight:300;}.cls-4{fill:#ffcfe2;}.cls-5{font-size:38.88px;}.cls-6{fill:#ff47da;}.cls-7{fill:#f6f740;}.cls-8{fill:#4cf;}</style></defs><title>Timeline</title><g id="Layer_2" data-name="Layer 2"><g id="Layer_3" data-name="Layer 3"><polygon class="cls-1" points="1636.11 98.51 1328.68 540.67 1328.68 554.65 1645.83 98.51 1636.11 98.51"/><polygon class="cls-1" points="1645.83 98.51 1328.68 554.65 1328.68 568.63 1655.55 98.51 1645.83 98.51"/><polygon class="cls-1" points="1626.39 98.51 1328.68 526.69 1328.68 540.67 1636.11 98.51 1626.39 98.51"/><polygon class="cls-1" points="1665.28 98.51 1328.68 582.62 1328.68 596.6 1675 98.51 1665.28 98.51"/><polygon class="cls-1" points="1655.55 98.51 1328.68 568.63 1328.68 582.62 1665.28 98.51 1655.55 98.51"/><polygon class="cls-1" points="1791.65 98.51 1383.36 685.73 1393.08 685.73 1801.37 98.51 1791.65 98.51"/><polygon class="cls-1" points="1577.78 98.51 1328.68 456.78 1328.68 470.76 1587.51 98.51 1577.78 98.51"/><polygon class="cls-1" points="1568.06 98.51 1328.68 442.8 1328.68 456.78 1577.78 98.51 1568.06 98.51"/><polygon class="cls-1" points="1606.95 98.51 1328.68 498.73 1328.68 512.71 1616.67 98.51 1606.95 98.51"/><polygon class="cls-1" points="1558.34 98.51 1328.68 428.82 1328.68 442.8 1568.06 98.51 1558.34 98.51"/><polygon class="cls-1" points="1597.23 98.51 1328.68 484.75 1328.68 498.73 1606.95 98.51 1597.23 98.51"/><polygon class="cls-1" points="1675 98.51 1328.68 596.6 1328.68 610.58 1684.72 98.51 1675 98.51"/><polygon class="cls-1" points="1587.51 98.51 1328.68 470.76 1328.68 484.75 1597.23 98.51 1587.51 98.51"/><polygon class="cls-1" points="1752.77 98.51 1344.47 685.73 1354.19 685.73 1762.49 98.51 1752.77 98.51"/><polygon class="cls-1" points="1762.49 98.51 1354.19 685.73 1363.92 685.73 1772.21 98.51 1762.49 98.51"/><polygon class="cls-1" points="1743.05 98.51 1334.75 685.73 1344.47 685.73 1752.77 98.51 1743.05 98.51"/><polygon class="cls-1" points="1781.93 98.51 1373.64 685.73 1383.36 685.73 1791.65 98.51 1781.93 98.51"/><polygon class="cls-1" points="1772.21 98.51 1363.92 685.73 1373.64 685.73 1781.93 98.51 1772.21 98.51"/><polygon class="cls-1" points="1713.88 98.51 1328.68 652.52 1328.68 666.51 1723.6 98.51 1713.88 98.51"/><polygon class="cls-1" points="1704.16 98.51 1328.68 638.54 1328.68 652.52 1713.88 98.51 1704.16 98.51"/><polygon class="cls-1" points="1694.44 98.51 1328.68 624.56 1328.68 638.54 1704.16 98.51 1694.44 98.51"/><polygon class="cls-1" points="1723.6 98.51 1328.68 666.51 1328.68 680.49 1733.32 98.51 1723.6 98.51"/><polygon class="cls-1" points="1733.32 98.51 1328.68 680.49 1328.68 685.73 1334.75 685.73 1743.05 98.51 1733.32 98.51"/><polygon class="cls-1" points="1684.72 98.51 1328.68 610.58 1328.68 624.56 1694.44 98.51 1684.72 98.51"/><polygon class="cls-1" points="1616.67 98.51 1328.68 512.71 1328.68 526.69 1626.39 98.51 1616.67 98.51"/><polygon class="cls-1" points="1431.96 98.51 1328.68 247.06 1328.68 261.04 1441.69 98.51 1431.96 98.51"/><polygon class="cls-1" points="1402.8 98.51 1328.68 205.12 1328.68 219.1 1412.52 98.51 1402.8 98.51"/><polygon class="cls-1" points="1383.36 98.51 1328.68 177.15 1328.68 191.13 1393.08 98.51 1383.36 98.51"/><polygon class="cls-1" points="1412.52 98.51 1328.68 219.1 1328.68 233.08 1422.24 98.51 1412.52 98.51"/><polygon class="cls-1" points="1373.64 98.51 1328.68 163.17 1328.68 177.15 1383.36 98.51 1373.64 98.51"/><polygon class="cls-1" points="1422.24 98.51 1328.68 233.08 1328.68 247.06 1431.96 98.51 1422.24 98.51"/><polygon class="cls-1" points="1393.08 98.51 1328.68 191.13 1328.68 205.12 1402.8 98.51 1393.08 98.51"/><polygon class="cls-1" points="1334.75 98.51 1328.68 107.25 1328.68 121.23 1344.47 98.51 1334.75 98.51"/><polygon class="cls-1" points="1548.62 98.51 1328.68 414.84 1328.68 428.82 1558.34 98.51 1548.62 98.51"/><polygon class="cls-1" points="1344.47 98.51 1328.68 121.23 1328.68 135.21 1354.19 98.51 1344.47 98.51"/><polygon class="cls-1" points="1363.92 98.51 1328.68 149.19 1328.68 163.17 1373.64 98.51 1363.92 98.51"/><polygon class="cls-1" points="1354.19 98.51 1328.68 135.21 1328.68 149.19 1363.92 98.51 1354.19 98.51"/><polygon class="cls-1" points="1328.68 98.51 1328.68 107.25 1334.75 98.51 1328.68 98.51"/><polygon class="cls-1" points="1519.46 98.51 1328.68 372.89 1328.68 386.88 1529.18 98.51 1519.46 98.51"/><polygon class="cls-1" points="1509.73 98.51 1328.68 358.91 1328.68 372.89 1519.46 98.51 1509.73 98.51"/><polygon class="cls-1" points="1500.01 98.51 1328.68 344.93 1328.68 358.91 1509.73 98.51 1500.01 98.51"/><polygon class="cls-1" points="1529.18 98.51 1328.68 386.88 1328.68 400.86 1538.9 98.51 1529.18 98.51"/><polygon class="cls-1" points="1538.9 98.51 1328.68 400.86 1328.68 414.84 1548.62 98.51 1538.9 98.51"/><polygon class="cls-1" points="1470.85 98.51 1328.68 302.99 1328.68 316.97 1480.57 98.51 1470.85 98.51"/><polygon class="cls-1" points="1490.29 98.51 1328.68 330.95 1328.68 344.93 1500.01 98.51 1490.29 98.51"/><polygon class="cls-1" points="1451.41 98.51 1328.68 275.02 1328.68 289 1461.13 98.51 1451.41 98.51"/><polygon class="cls-1" points="1461.13 98.51 1328.68 289 1328.68 302.99 1470.85 98.51 1461.13 98.51"/><polygon class="cls-1" points="1441.69 98.51 1328.68 261.04 1328.68 275.02 1451.41 98.51 1441.69 98.51"/><polygon class="cls-1" points="1480.57 98.51 1328.68 316.97 1328.68 330.95 1490.29 98.51 1480.57 98.51"/><polygon class="cls-1" points="1868.21 617.57 1820.82 685.73 1830.54 685.73 1868.21 631.55 1868.21 617.57"/><polygon class="cls-1" points="1868.21 463.77 1713.88 685.73 1723.6 685.73 1868.21 477.75 1868.21 463.77"/><polygon class="cls-1" points="1868.21 449.79 1704.16 685.73 1713.88 685.73 1868.21 463.77 1868.21 449.79"/><polygon class="cls-1" points="1868.21 435.81 1694.44 685.73 1704.16 685.73 1868.21 449.79 1868.21 435.81"/><polygon class="cls-1" points="1868.21 337.94 1626.39 685.73 1636.11 685.73 1868.21 351.92 1868.21 337.94"/><polygon class="cls-1" points="1868.21 477.75 1723.6 685.73 1733.32 685.73 1868.21 491.74 1868.21 477.75"/><polygon class="cls-1" points="1868.21 421.83 1684.72 685.73 1694.44 685.73 1868.21 435.81 1868.21 421.83"/><polygon class="cls-1" points="1868.21 365.9 1645.83 685.73 1655.55 685.73 1868.21 379.88 1868.21 365.9"/><polygon class="cls-1" points="1868.21 505.72 1743.05 685.73 1752.77 685.73 1868.21 519.7 1868.21 505.72"/><polygon class="cls-1" points="1868.21 351.92 1636.11 685.73 1645.83 685.73 1868.21 365.9 1868.21 351.92"/><polygon class="cls-1" points="1868.21 393.87 1665.28 685.73 1675 685.73 1868.21 407.85 1868.21 393.87"/><polygon class="cls-1" points="1868.21 379.88 1655.55 685.73 1665.28 685.73 1868.21 393.87 1868.21 379.88"/><polygon class="cls-1" points="1868.21 407.85 1675 685.73 1684.72 685.73 1868.21 421.83 1868.21 407.85"/><polygon class="cls-1" points="1868.21 491.74 1733.32 685.73 1743.05 685.73 1868.21 505.72 1868.21 491.74"/><polygon class="cls-1" points="1868.21 631.55 1830.54 685.73 1840.26 685.73 1868.21 645.53 1868.21 631.55"/><polygon class="cls-1" points="1868.21 645.53 1840.26 685.73 1849.98 685.73 1868.21 659.51 1868.21 645.53"/><polygon class="cls-1" points="1868.21 685.73 1868.21 673.5 1859.7 685.73 1868.21 685.73"/><polygon class="cls-1" points="1868.21 673.5 1868.21 659.51 1849.98 685.73 1859.7 685.73 1868.21 673.5"/><polygon class="cls-1" points="1868.21 603.59 1811.09 685.73 1820.82 685.73 1868.21 617.57 1868.21 603.59"/><polygon class="cls-1" points="1868.21 561.64 1781.93 685.73 1791.65 685.73 1868.21 575.63 1868.21 561.64"/><polygon class="cls-1" points="1868.21 533.68 1762.49 685.73 1772.21 685.73 1868.21 547.66 1868.21 533.68"/><polygon class="cls-1" points="1868.21 547.66 1772.21 685.73 1781.93 685.73 1868.21 561.64 1868.21 547.66"/><polygon class="cls-1" points="1868.21 575.63 1791.65 685.73 1801.37 685.73 1868.21 589.61 1868.21 575.63"/><polygon class="cls-1" points="1868.21 519.7 1752.77 685.73 1762.49 685.73 1868.21 533.68 1868.21 519.7"/><polygon class="cls-1" points="1868.21 589.61 1801.37 685.73 1811.09 685.73 1868.21 603.59 1868.21 589.61"/><polygon class="cls-1" points="1868.21 156.18 1500.01 685.73 1509.73 685.73 1868.21 170.16 1868.21 156.18"/><polygon class="cls-1" points="1868.21 98.51 1859.7 98.51 1451.41 685.73 1461.13 685.73 1868.21 100.25 1868.21 98.51"/><polygon class="cls-1" points="1868.21 100.25 1461.13 685.73 1470.85 685.73 1868.21 114.24 1868.21 100.25"/><polygon class="cls-1" points="1868.21 114.24 1470.85 685.73 1480.57 685.73 1868.21 128.22 1868.21 114.24"/><polygon class="cls-1" points="1868.21 128.22 1480.57 685.73 1490.29 685.73 1868.21 142.2 1868.21 128.22"/><polygon class="cls-1" points="1801.37 98.51 1393.08 685.73 1402.8 685.73 1811.09 98.51 1801.37 98.51"/><polygon class="cls-1" points="1868.21 142.2 1490.29 685.73 1500.01 685.73 1868.21 156.18 1868.21 142.2"/><polygon class="cls-1" points="1868.21 323.96 1616.67 685.73 1626.39 685.73 1868.21 337.94 1868.21 323.96"/><polygon class="cls-1" points="1849.98 98.51 1441.69 685.73 1451.41 685.73 1859.7 98.51 1849.98 98.51"/><polygon class="cls-1" points="1811.09 98.51 1402.8 685.73 1412.52 685.73 1820.82 98.51 1811.09 98.51"/><polygon class="cls-1" points="1840.26 98.51 1431.96 685.73 1441.69 685.73 1849.98 98.51 1840.26 98.51"/><polygon class="cls-1" points="1830.54 98.51 1422.24 685.73 1431.96 685.73 1840.26 98.51 1830.54 98.51"/><polygon class="cls-1" points="1820.82 98.51 1412.52 685.73 1422.24 685.73 1830.54 98.51 1820.82 98.51"/><polygon class="cls-1" points="1868.21 254.05 1568.06 685.73 1577.78 685.73 1868.21 268.03 1868.21 254.05"/><polygon class="cls-1" points="1868.21 268.03 1577.78 685.73 1587.51 685.73 1868.21 282.01 1868.21 268.03"/><polygon class="cls-1" points="1868.21 282.01 1587.51 685.73 1597.23 685.73 1868.21 296 1868.21 282.01"/><polygon class="cls-1" points="1868.21 309.98 1606.95 685.73 1616.67 685.73 1868.21 323.96 1868.21 309.98"/><polygon class="cls-1" points="1868.21 296 1597.23 685.73 1606.95 685.73 1868.21 309.98 1868.21 296"/><polygon class="cls-1" points="1868.21 240.07 1558.34 685.73 1568.06 685.73 1868.21 254.05 1868.21 240.07"/><polygon class="cls-1" points="1868.21 198.13 1529.18 685.73 1538.9 685.73 1868.21 212.11 1868.21 198.13"/><polygon class="cls-1" points="1868.21 184.14 1519.46 685.73 1529.18 685.73 1868.21 198.13 1868.21 184.14"/><polygon class="cls-1" points="1868.21 212.11 1538.9 685.73 1548.62 685.73 1868.21 226.09 1868.21 212.11"/><polygon class="cls-1" points="1868.21 226.09 1548.62 685.73 1558.34 685.73 1868.21 240.07 1868.21 226.09"/><polygon class="cls-1" points="1868.21 170.16 1509.73 685.73 1519.46 685.73 1868.21 184.14 1868.21 170.16"/><polygon class="cls-1" points="840.18 208.55 741.76 349.87 741.76 363.83 840.18 222.51 840.18 208.55"/><polygon class="cls-1" points="840.18 138.76 741.76 280.08 741.76 294.04 840.18 152.72 840.18 138.76"/><polygon class="cls-1" points="840.18 180.64 741.76 321.96 741.76 335.92 840.18 194.59 840.18 180.64"/><polygon class="cls-1" points="840.18 166.68 741.76 308 741.76 321.96 840.18 180.64 840.18 166.68"/><polygon class="cls-1" points="840.18 222.51 741.76 363.83 741.76 377.79 840.18 236.47 840.18 222.51"/><polygon class="cls-1" points="840.18 194.59 741.76 335.92 741.76 349.87 840.18 208.55 840.18 194.59"/><polygon class="cls-1" points="840.18 292.3 741.76 433.62 741.76 447.58 840.18 306.26 840.18 292.3"/><polygon class="cls-1" points="840.18 306.26 741.76 447.58 741.76 461.54 840.18 320.21 840.18 306.26"/><polygon class="cls-1" points="840.18 236.47 741.76 377.79 741.76 391.75 840.18 250.43 840.18 236.47"/><polygon class="cls-1" points="840.18 320.21 741.76 461.54 741.76 475.49 840.18 334.17 840.18 320.21"/><polygon class="cls-1" points="840.18 250.43 741.76 391.75 741.76 405.7 840.18 264.38 840.18 250.43"/><polygon class="cls-1" points="840.18 264.38 741.76 405.7 741.76 419.66 840.18 278.34 840.18 264.38"/><polygon class="cls-1" points="840.18 278.34 741.76 419.66 741.76 433.62 840.18 292.3 840.18 278.34"/><polygon class="cls-1" points="789.76 99.51 741.76 168.42 741.76 182.38 799.48 99.51 789.76 99.51"/><polygon class="cls-1" points="770.31 99.51 741.76 140.51 741.76 154.47 780.03 99.51 770.31 99.51"/><polygon class="cls-1" points="780.03 99.51 741.76 154.47 741.76 168.42 789.76 99.51 780.03 99.51"/><polygon class="cls-1" points="760.59 99.51 741.76 126.55 741.76 140.51 770.31 99.51 760.59 99.51"/><polygon class="cls-1" points="741.76 99.51 741.76 112.59 750.87 99.51 741.76 99.51"/><polygon class="cls-1" points="750.87 99.51 741.76 112.59 741.76 126.55 760.59 99.51 750.87 99.51"/><polygon class="cls-1" points="840.18 110.85 741.76 252.17 741.76 266.13 840.18 124.81 840.18 110.85"/><polygon class="cls-1" points="840.18 99.51 838.36 99.51 741.76 238.21 741.76 252.17 840.18 110.85 840.18 99.51"/><polygon class="cls-1" points="840.18 124.81 741.76 266.13 741.76 280.08 840.18 138.76 840.18 124.81"/><polygon class="cls-1" points="828.64 99.51 741.76 224.25 741.76 238.21 838.36 99.51 828.64 99.51"/><polygon class="cls-1" points="818.92 99.51 741.76 210.3 741.76 224.25 828.64 99.51 818.92 99.51"/><polygon class="cls-1" points="809.2 99.51 741.76 196.34 741.76 210.3 818.92 99.51 809.2 99.51"/><polygon class="cls-1" points="799.48 99.51 741.76 182.38 741.76 196.34 809.2 99.51 799.48 99.51"/><polygon class="cls-1" points="840.18 152.72 741.76 294.04 741.76 308 840.18 166.68 840.18 152.72"/><polygon class="cls-1" points="840.18 571.45 760.59 685.73 770.31 685.73 840.18 585.41 840.18 571.45"/><polygon class="cls-1" points="840.18 585.41 770.31 685.73 780.03 685.73 840.18 599.37 840.18 585.41"/><polygon class="cls-1" points="840.18 557.49 750.87 685.73 760.59 685.73 840.18 571.45 840.18 557.49"/><polygon class="cls-1" points="840.18 529.58 741.76 670.9 741.76 684.86 840.18 543.54 840.18 529.58"/><polygon class="cls-1" points="840.18 599.37 780.03 685.73 789.76 685.73 840.18 613.33 840.18 599.37"/><polygon class="cls-1" points="840.18 543.54 741.76 684.86 741.76 685.73 750.87 685.73 840.18 557.49 840.18 543.54"/><polygon class="cls-1" points="840.18 655.2 818.92 685.73 828.64 685.73 840.18 669.15 840.18 655.2"/><polygon class="cls-1" points="840.18 515.62 741.76 656.94 741.76 670.9 840.18 529.58 840.18 515.62"/><polygon class="cls-1" points="840.18 685.73 840.18 683.11 838.36 685.73 840.18 685.73"/><polygon class="cls-1" points="840.18 683.11 840.18 669.15 828.64 685.73 838.36 685.73 840.18 683.11"/><polygon class="cls-1" points="840.18 613.33 789.76 685.73 799.48 685.73 840.18 627.28 840.18 613.33"/><polygon class="cls-1" points="840.18 627.28 799.48 685.73 809.2 685.73 840.18 641.24 840.18 627.28"/><polygon class="cls-1" points="840.18 641.24 809.2 685.73 818.92 685.73 840.18 655.2 840.18 641.24"/><polygon class="cls-1" points="840.18 445.83 741.76 587.15 741.76 601.11 840.18 459.79 840.18 445.83"/><polygon class="cls-1" points="840.18 390 741.76 531.32 741.76 545.28 840.18 403.96 840.18 390"/><polygon class="cls-1" points="840.18 403.96 741.76 545.28 741.76 559.24 840.18 417.92 840.18 403.96"/><polygon class="cls-1" points="840.18 417.92 741.76 559.24 741.76 573.2 840.18 431.88 840.18 417.92"/><polygon class="cls-1" points="840.18 501.66 741.76 642.99 741.76 656.94 840.18 515.62 840.18 501.66"/><polygon class="cls-1" points="840.18 362.09 741.76 503.41 741.76 517.37 840.18 376.04 840.18 362.09"/><polygon class="cls-1" points="840.18 348.13 741.76 489.45 741.76 503.41 840.18 362.09 840.18 348.13"/><polygon class="cls-1" points="840.18 376.04 741.76 517.37 741.76 531.32 840.18 390 840.18 376.04"/><polygon class="cls-1" points="840.18 473.75 741.76 615.07 741.76 629.03 840.18 487.7 840.18 473.75"/><polygon class="cls-1" points="840.18 487.7 741.76 629.03 741.76 642.99 840.18 501.66 840.18 487.7"/><polygon class="cls-1" points="840.18 459.79 741.76 601.11 741.76 615.07 840.18 473.75 840.18 459.79"/><polygon class="cls-1" points="840.18 431.88 741.76 573.2 741.76 587.15 840.18 445.83 840.18 431.88"/><polygon class="cls-1" points="840.18 334.17 741.76 475.49 741.76 489.45 840.18 348.13 840.18 334.17"/><polygon class="cls-1" points="488.4 98.51 205.87 504.84 205.87 518.83 498.12 98.51 488.4 98.51"/><polygon class="cls-1" points="498.12 98.51 205.87 518.83 205.87 532.81 507.84 98.51 498.12 98.51"/><polygon class="cls-1" points="527.28 98.51 205.87 560.77 205.87 574.75 537 98.51 527.28 98.51"/><polygon class="cls-1" points="517.56 98.51 205.87 546.79 205.87 560.77 527.28 98.51 517.56 98.51"/><polygon class="cls-1" points="478.68 98.51 205.87 490.86 205.87 504.84 488.4 98.51 478.68 98.51"/><polygon class="cls-1" points="507.84 98.51 205.87 532.81 205.87 546.79 517.56 98.51 507.84 98.51"/><polygon class="cls-1" points="439.79 98.51 205.87 434.94 205.87 448.92 449.51 98.51 439.79 98.51"/><polygon class="cls-1" points="430.07 98.51 205.87 420.96 205.87 434.94 439.79 98.51 430.07 98.51"/><polygon class="cls-1" points="459.23 98.51 205.87 462.9 205.87 476.88 468.95 98.51 459.23 98.51"/><polygon class="cls-1" points="449.51 98.51 205.87 448.92 205.87 462.9 459.23 98.51 449.51 98.51"/><polygon class="cls-1" points="468.95 98.51 205.87 476.88 205.87 490.86 478.68 98.51 468.95 98.51"/><polygon class="cls-1" points="420.35 98.51 205.87 406.97 205.87 420.96 430.07 98.51 420.35 98.51"/><polygon class="cls-1" points="595.33 98.51 205.87 658.64 205.87 672.62 605.05 98.51 595.33 98.51"/><polygon class="cls-1" points="605.05 98.51 205.87 672.62 205.87 685.73 206.48 685.73 614.77 98.51 605.05 98.51"/><polygon class="cls-1" points="614.77 98.51 206.48 685.73 216.2 685.73 624.5 98.51 614.77 98.51"/><polygon class="cls-1" points="624.5 98.51 216.2 685.73 225.92 685.73 634.22 98.51 624.5 98.51"/><polygon class="cls-1" points="537 98.51 205.87 574.75 205.87 588.73 546.73 98.51 537 98.51"/><polygon class="cls-1" points="634.22 98.51 225.92 685.73 235.65 685.73 643.94 98.51 634.22 98.51"/><polygon class="cls-1" points="585.61 98.51 205.87 644.66 205.87 658.64 595.33 98.51 585.61 98.51"/><polygon class="cls-1" points="643.94 98.51 235.65 685.73 245.37 685.73 653.66 98.51 643.94 98.51"/><polygon class="cls-1" points="556.45 98.51 205.87 602.72 205.87 616.7 566.17 98.51 556.45 98.51"/><polygon class="cls-1" points="566.17 98.51 205.87 616.7 205.87 630.68 575.89 98.51 566.17 98.51"/><polygon class="cls-1" points="575.89 98.51 205.87 630.68 205.87 644.66 585.61 98.51 575.89 98.51"/><polygon class="cls-1" points="546.73 98.51 205.87 588.73 205.87 602.72 556.45 98.51 546.73 98.51"/><polygon class="cls-1" points="293.97 98.51 205.87 225.22 205.87 239.2 303.69 98.51 293.97 98.51"/><polygon class="cls-1" points="255.09 98.51 205.87 169.29 205.87 183.27 264.81 98.51 255.09 98.51"/><polygon class="cls-1" points="274.53 98.51 205.87 197.25 205.87 211.23 284.25 98.51 274.53 98.51"/><polygon class="cls-1" points="410.63 98.51 205.87 392.99 205.87 406.97 420.35 98.51 410.63 98.51"/><polygon class="cls-1" points="245.37 98.51 205.87 155.31 205.87 169.29 255.09 98.51 245.37 98.51"/><polygon class="cls-1" points="264.81 98.51 205.87 183.27 205.87 197.25 274.53 98.51 264.81 98.51"/><polygon class="cls-1" points="206.48 98.51 205.87 99.38 205.87 113.36 216.2 98.51 206.48 98.51"/><polygon class="cls-1" points="205.87 98.51 205.87 99.38 206.48 98.51 205.87 98.51"/><polygon class="cls-1" points="235.65 98.51 205.87 141.33 205.87 155.31 245.37 98.51 235.65 98.51"/><polygon class="cls-1" points="216.2 98.51 205.87 113.36 205.87 127.34 225.92 98.51 216.2 98.51"/><polygon class="cls-1" points="225.92 98.51 205.87 127.34 205.87 141.33 235.65 98.51 225.92 98.51"/><polygon class="cls-1" points="284.25 98.51 205.87 211.23 205.87 225.22 293.97 98.51 284.25 98.51"/><polygon class="cls-1" points="371.74 98.51 205.87 337.07 205.87 351.05 381.46 98.51 371.74 98.51"/><polygon class="cls-1" points="352.3 98.51 205.87 309.1 205.87 323.08 362.02 98.51 352.3 98.51"/><polygon class="cls-1" points="303.69 98.51 205.87 239.2 205.87 253.18 313.42 98.51 303.69 98.51"/><polygon class="cls-1" points="400.91 98.51 205.87 379.01 205.87 392.99 410.63 98.51 400.91 98.51"/><polygon class="cls-1" points="381.46 98.51 205.87 351.05 205.87 365.03 391.19 98.51 381.46 98.51"/><polygon class="cls-1" points="362.02 98.51 205.87 323.08 205.87 337.07 371.74 98.51 362.02 98.51"/><polygon class="cls-1" points="342.58 98.51 205.87 295.12 205.87 309.1 352.3 98.51 342.58 98.51"/><polygon class="cls-1" points="313.42 98.51 205.87 253.18 205.87 267.16 323.14 98.51 313.42 98.51"/><polygon class="cls-1" points="323.14 98.51 205.87 267.16 205.87 281.14 332.86 98.51 323.14 98.51"/><polygon class="cls-1" points="332.86 98.51 205.87 281.14 205.87 295.12 342.58 98.51 332.86 98.51"/><polygon class="cls-1" points="391.19 98.51 205.87 365.03 205.87 379.01 400.91 98.51 391.19 98.51"/><polygon class="cls-1" points="688.29 482.13 546.73 685.73 556.45 685.73 688.29 496.11 688.29 482.13"/><polygon class="cls-1" points="688.29 468.14 537 685.73 546.73 685.73 688.29 482.13 688.29 468.14"/><polygon class="cls-1" points="688.29 496.11 556.45 685.73 566.17 685.73 688.29 510.09 688.29 496.11"/><polygon class="cls-1" points="688.29 510.09 566.17 685.73 575.89 685.73 688.29 524.07 688.29 510.09"/><polygon class="cls-1" points="688.29 454.16 527.28 685.73 537 685.73 688.29 468.14 688.29 454.16"/><polygon class="cls-1" points="688.29 398.24 488.4 685.73 498.12 685.73 688.29 412.22 688.29 398.24"/><polygon class="cls-1" points="688.29 524.07 575.89 685.73 585.61 685.73 688.29 538.05 688.29 524.07"/><polygon class="cls-1" points="688.29 384.25 478.68 685.73 488.4 685.73 688.29 398.24 688.29 384.25"/><polygon class="cls-1" points="688.29 370.27 468.95 685.73 478.68 685.73 688.29 384.25 688.29 370.27"/><polygon class="cls-1" points="688.29 440.18 517.56 685.73 527.28 685.73 688.29 454.16 688.29 440.18"/><polygon class="cls-1" points="688.29 426.2 507.84 685.73 517.56 685.73 688.29 440.18 688.29 426.2"/><polygon class="cls-1" points="688.29 412.22 498.12 685.73 507.84 685.73 688.29 426.2 688.29 412.22"/><polygon class="cls-1" points="688.29 649.9 663.38 685.73 673.1 685.73 688.29 663.88 688.29 649.9"/><polygon class="cls-1" points="688.29 635.92 653.66 685.73 663.38 685.73 688.29 649.9 688.29 635.92"/><polygon class="cls-1" points="688.29 621.94 643.94 685.73 653.66 685.73 688.29 635.92 688.29 621.94"/><polygon class="cls-1" points="688.29 538.05 585.61 685.73 595.33 685.73 688.29 552.03 688.29 538.05"/><polygon class="cls-1" points="688.29 685.73 688.29 677.87 682.82 685.73 688.29 685.73"/><polygon class="cls-1" points="688.29 677.87 688.29 663.88 673.1 685.73 682.82 685.73 688.29 677.87"/><polygon class="cls-1" points="688.29 566.01 605.05 685.73 614.77 685.73 688.29 580 688.29 566.01"/><polygon class="cls-1" points="688.29 552.03 595.33 685.73 605.05 685.73 688.29 566.01 688.29 552.03"/><polygon class="cls-1" points="688.29 580 614.77 685.73 624.5 685.73 688.29 593.98 688.29 580"/><polygon class="cls-1" points="688.29 593.98 624.5 685.73 634.22 685.73 688.29 607.96 688.29 593.98"/><polygon class="cls-1" points="688.29 607.96 634.22 685.73 643.94 685.73 688.29 621.94 688.29 607.96"/><polygon class="cls-1" points="688.29 286.38 410.63 685.73 420.35 685.73 688.29 300.37 688.29 286.38"/><polygon class="cls-1" points="688.29 146.57 313.42 685.73 323.14 685.73 688.29 160.55 688.29 146.57"/><polygon class="cls-1" points="688.29 160.55 323.14 685.73 332.86 685.73 688.29 174.53 688.29 160.55"/><polygon class="cls-1" points="688.29 174.53 332.86 685.73 342.58 685.73 688.29 188.51 688.29 174.53"/><polygon class="cls-1" points="688.29 132.59 303.69 685.73 313.42 685.73 688.29 146.57 688.29 132.59"/><polygon class="cls-1" points="688.29 188.51 342.58 685.73 352.3 685.73 688.29 202.5 688.29 188.51"/><polygon class="cls-1" points="688.29 118.61 293.97 685.73 303.69 685.73 688.29 132.59 688.29 118.61"/><polygon class="cls-1" points="673.1 98.51 264.81 685.73 274.53 685.73 682.82 98.51 673.1 98.51"/><polygon class="cls-1" points="688.29 202.5 352.3 685.73 362.02 685.73 688.29 216.48 688.29 202.5"/><polygon class="cls-1" points="663.38 98.51 255.09 685.73 264.81 685.73 673.1 98.51 663.38 98.51"/><polygon class="cls-1" points="688.29 104.62 284.25 685.73 293.97 685.73 688.29 118.61 688.29 104.62"/><polygon class="cls-1" points="688.29 98.51 682.82 98.51 274.53 685.73 284.25 685.73 688.29 104.62 688.29 98.51"/><polygon class="cls-1" points="688.29 342.31 449.51 685.73 459.23 685.73 688.29 356.29 688.29 342.31"/><polygon class="cls-1" points="688.29 300.37 420.35 685.73 430.07 685.73 688.29 314.35 688.29 300.37"/><polygon class="cls-1" points="688.29 314.35 430.07 685.73 439.79 685.73 688.29 328.33 688.29 314.35"/><polygon class="cls-1" points="688.29 356.29 459.23 685.73 468.95 685.73 688.29 370.27 688.29 356.29"/><polygon class="cls-1" points="653.66 98.51 245.37 685.73 255.09 685.73 663.38 98.51 653.66 98.51"/><polygon class="cls-1" points="688.29 328.33 439.79 685.73 449.51 685.73 688.29 342.31 688.29 328.33"/><polygon class="cls-1" points="688.29 244.44 381.46 685.73 391.19 685.73 688.29 258.42 688.29 244.44"/><polygon class="cls-1" points="688.29 216.48 362.02 685.73 371.74 685.73 688.29 230.46 688.29 216.48"/><polygon class="cls-1" points="688.29 272.4 400.91 685.73 410.63 685.73 688.29 286.38 688.29 272.4"/><polygon class="cls-1" points="688.29 230.46 371.74 685.73 381.46 685.73 688.29 244.44 688.29 230.46"/><polygon class="cls-1" points="688.29 258.42 391.19 685.73 400.91 685.73 688.29 272.4 688.29 258.42"/><g id="Timeline"><line class="cls-2" x1="110.81" y1="685.29" x2="1869.97" y2="685.29"/><line class="cls-2" x1="111.82" y1="685.29" x2="27.93" y2="769.18"/><line class="cls-2" x1="247.25" y1="685.29" x2="163.37" y2="769.18"/><line class="cls-2" x1="382.68" y1="685.29" x2="298.8" y2="769.18"/><line class="cls-2" x1="518.11" y1="685.29" x2="434.23" y2="769.18"/><line class="cls-2" x1="653.55" y1="685.29" x2="569.66" y2="769.18"/><line class="cls-2" x1="788.98" y1="685.29" x2="705.09" y2="769.18"/><line class="cls-2" x1="924.41" y1="685.29" x2="840.52" y2="769.18"/><line class="cls-2" x1="1059.84" y1="685.29" x2="975.95" y2="769.18"/><line class="cls-2" x1="1195.27" y1="685.29" x2="1111.38" y2="769.18"/><line class="cls-2" x1="1330.7" y1="685.29" x2="1246.81" y2="769.18"/><line class="cls-2" x1="1466.13" y1="685.29" x2="1382.25" y2="769.18"/><line class="cls-2" x1="1601.56" y1="685.29" x2="1517.68" y2="769.18"/><line class="cls-2" x1="1736.99" y1="685.29" x2="1653.11" y2="769.18"/><line class="cls-2" x1="1869.97" y1="685.31" x2="1788.54" y2="769.18"/><text class="cls-3" transform="translate(23.28 765.17) rotate(-45)">2009</text><text class="cls-3" transform="translate(158.71 765.17) rotate(-45)">2010</text><text class="cls-3" transform="translate(294.14 765.17) rotate(-45)">2011</text><text class="cls-3" transform="translate(429.58 765.17) rotate(-45)">2012</text><text class="cls-3" transform="translate(565.01 765.17) rotate(-45)">2013</text><text class="cls-3" transform="translate(700.44 765.17) rotate(-45)">2014</text><text class="cls-3" transform="translate(835.87 765.17) rotate(-45)">2015</text><text class="cls-3" transform="translate(971.31 765.17) rotate(-45)">2016</text><text class="cls-3" transform="translate(1106.74 765.17) rotate(-45)">2017</text><text class="cls-3" transform="translate(1242.17 765.17) rotate(-45)">2018</text><text class="cls-3" transform="translate(1377.6 765.17) rotate(-45)">2019</text><text class="cls-3" transform="translate(1513.03 765.17) rotate(-45)">2020</text><text class="cls-3" transform="translate(1648.47 765.17) rotate(-45)">2021</text><text class="cls-3" transform="translate(1783.9 765.17) rotate(-45)">2022</text></g><rect id="University_Student" data-name="University Student" class="cls-4" x="1328.43" y="90.46" width="540.32" height="16.17"/><rect id="High_School" data-name="High School" class="cls-4" x="205.2" y="90.46" width="483.63" height="16.17"/><rect id="University_Student-2" data-name="University Student" class="cls-4" x="741.51" y="90.73" width="99.22" height="15.9"/><text class="cls-5" transform="translate(205.61 35.18)">High<tspan x="0" y="46.66">School</tspan></text><text class="cls-5" transform="translate(741.49 35.18)">Uni<tspan x="0" y="46.66">Student</tspan></text><text class="cls-5" transform="translate(1328.41 35.18)">Uni<tspan x="0" y="46.66">Student</tspan></text><rect id="Kennel_Assitant" data-name="Kennel Assitant" class="cls-6" x="205.2" y="463.22" width="176.47" height="16.17"/><rect id="Waiter" class="cls-7" x="454.44" y="463.22" width="198.09" height="16.17"/><rect id="Delivery_Driver" data-name="Delivery Driver" class="cls-8" x="830.41" y="463.22" width="107.13" height="16.17"/><rect id="Restaurant_Manager" data-name="Restaurant Manager" class="cls-6" x="937.55" y="322.26" width="290.82" height="16.17"/><rect id="Bank_Teller" data-name="Bank Teller" class="cls-7" x="1142.51" y="462.97" width="185.97" height="16.17"/><rect id="IT_Media_Producer" data-name="IT Media Producer" class="cls-8" x="1425.22" y="463.22" width="444.75" height="16.17"/><text class="cls-5" transform="translate(205.61 407.69)">Kennel<tspan x="0" y="46.66">Assistant</tspan></text><text class="cls-5"><tspan x="454.71" y="454.36">Waiter</tspan></text><text class="cls-5"><tspan x="830.2" y="408.18">Delivery</tspan><tspan x="830.2" y="454.84">Driver</tspan></text><text class="cls-5"><tspan x="1142.49" y="408.18">Bank</tspan><tspan x="1142.49" y="454.84">Teller</tspan></text><text class="cls-5"><tspan x="1425.62" y="408.18">IT Media</tspan><tspan x="1425.62" y="454.84">Producer</tspan></text><text class="cls-5"><tspan x="937.13" y="267.22">Restaurant</tspan><tspan x="937.13" y="313.88">Manager</tspan></text><rect id="Restaurant_Manager-2" data-name="Restaurant Manager" class="cls-6" x="895.97" y="622.26" width="773" height="16.17"/><text class="cls-5"><tspan x="896.13" y="567.22">Disc Jockey/</tspan><tspan x="896.13" y="613.88">Audio Engineer</tspan></text></g></g></svg>