<svg xmlns="http://www.w3.org/2000/svg" xmlns:xlink="http://www.w3.org/1999/xlink" viewBox="0 0 571.98 806.62"><defs><style>.cls-1{fill:url(#New_Gradient_Swatch_1);}</style><linearGradient id="New_Gradient_Swatch_1" x1="-47.4" y1="496.17" x2="527.8" y2="342.05" gradientUnits="userSpaceOnUse"><stop offset="0" stop-color="#ff47da"/><stop offset="1" stop-color="#e2ef70"/></linearGradient></defs><title>B Logo_1</title><g id="Layer_2" data-name="Layer 2"><g id="Layer_1-2" data-name="Layer 1"><path class="cls-1" d="M550.46,453.62c-17.9-26.8-43.34-48-71.88-62.73a246.22,246.22,0,0,0-94.29-26.39,240.77,240.77,0,0,0-29.8-.43c17.89-14.13,35.06-29.38,50-46.59,17.34-20,33.76-44.1,36.57-71.07,1.44-13.87-3-29-13.75-38.32-10.14-8.82-22.83-12.84-35.92-14.73-25.39-3.66-50.9-1.53-75.68,4.62C321,144.19,326,90.36,329.39,36.42q.48-7.71.92-15.4c.15-2,.26-4,.34-6,.32-7.85-7.13-15.35-15-15-8.5.38-14.54,6.6-15,15l-.33,5.82a2.64,2.64,0,0,0,0,.28c-.05.68-.11,1.35-.17,2-.13,1.47-.28,2.94-.44,4.41-.07.53-.13,1.07-.19,1.6,0,0,0,0,0,.06h0c0,.14-.05.3-.08.48-.93,5.93-2,11.82-3.41,17.66a278.58,278.58,0,0,1-11.47,36.7c-.92,2.37-1.88,4.74-2.84,7.09h0s0,0,0,0,0,0,0,0l-1.34,3.13Q279.16,97,278,99.55q-4.07,8.85-8.61,17.46a337.55,337.55,0,0,1-19.88,33.07q-2.82,4.13-5.77,8.15c-.94,1.28-1.9,2.54-2.84,3.81l-.12.16-.14.18-1.48,1.87q-6.07,7.59-12.75,14.66c-5.39,5.71-6.08,15.63,0,21.22,5.86,5.37,15.46,6.08,21.22,0,17.12-18.1,31.57-38.9,43.68-60.66q-2,22.13-4.18,44.23-1.17,12-2.37,24c-18.45,6.84-36.36,15.24-53.87,24.11C187.37,253.81,144.3,280.19,112,317.3c-4.57,5.24-9.06,10.67-13.08,16.34-5.83,8.23-7,21.82,3.16,27.35,5.77,3.15,12.8,3.31,19.2,3.83,12.78,1.05,25.93,1.86,38.75,1.12,3.74-.22,7.26-.59,10.58-2.47,6.83-3.87,9.73-13.78,5.38-20.52-3.62-5.62-11.45-6.93-16.83-7-2.48.1-5,.11-7.44.1-5.32,0-10.66-.17-16-.41q7.88-8.76,16.57-16.72,6.1-5.62,12.55-10.87,1.74-1.43,3.5-2.83l1.25-1,.14-.11.1-.08h0l0,0A.39.39,0,0,0,170,304c.38-.28.89-.68,1-.78l1.44-1.08c1.2-.9,2.41-1.8,3.62-2.68,18.44-13.45,38.15-25.08,58.31-35.73,10.57-5.58,21.26-10.94,32.09-16q4.11-1.91,8.26-3.74,2.3-1,4.61-2l1.49-.63.12-.05.17-.07.22-.09.08,0c-3.73,37-7.47,74-10.82,111.08q-1.47,16.33-2.84,32.67c-.47.26-1,.5-1.42.75-7,3.61-9.62,14-5.38,20.52a16.14,16.14,0,0,0,4.73,4.85c-2.79,36.62-5,73.28-6.23,110-1.55,46-1.5,92,.49,138q.36,8.17.78,16.35c-2.21.12-4.41.22-6.62.31-34.8,1.48-69.75,1.32-104.54-.55-18.14-1-36.26-2.46-54.3-4.6-2.08-.24-4.16-.5-6.24-.76l-3.12-.4-.48-.06-.34,0H85l-.29,0q-6.48-.9-13-1.9-13.44-2.12-26.8-4.75-13.09-2.6-26.08-5.74C11.24,654.94,2.24,659.19.4,667.26c-1.76,7.72,2.32,16.47,10.47,18.45,37.1,9,75,14.52,113,17.65a1058.68,1058.68,0,0,0,110,2.93q14.28-.31,28.55-1.06c1.44,23.46,3.07,46.9,4.47,70.36q.48,8,.92,16c.43,7.82,6.59,15.37,15,15,7.76-.35,15.46-6.61,15-15-1.63-29.51-3.74-59-5.53-88.49q22.61-2,45.06-5.47c32.71-5.08,65.07-13,95.89-25.21,31.19-12.33,61.1-28.15,86.59-50.16,23.17-20,43-46.53,49.65-76.9C576.44,513.39,568.48,480.62,550.46,453.62ZM408.75,231.78l-.6-.71A3.57,3.57,0,0,1,408.75,231.78Zm-7.08-5.13c-.45-.19-1-.4-1.23-.49A5.34,5.34,0,0,1,401.67,226.65ZM312.52,230c7.46-2.22,15-4.11,22.64-5.6,2.9-.56,5.82-1.07,8.74-1.51a20.67,20.67,0,0,0,2.2-.28c1.35-.15,2.7-.31,4.06-.44a169.82,169.82,0,0,1,18.6-.74c2.94.05,5.89.18,8.83.39,1.63.13,3.27.27,4.9.45l1.9.21h.07a85.56,85.56,0,0,1,15.65,3.67c.52.18,1,.38,1.54.57l.26.1c.72.38,1.44.85,2,1.19.78.45,1.52.95,2.28,1.44.54.52,1.11,1,1.63,1.54.37.38.72.78,1.08,1.18l.12.13,0,0c.35.63.66,1.33.95,1.9l-.29-1c.12.4.28.8.43,1.2l.07.13c.34.59.48,1.33.28.95.3,1,.51,2,.73,3.08,0,.36.06.72.07,1.08.06,1.26.05,2.52,0,3.78,0,.82-.35,2.8-.35,2.93,0-.07.09-.39.23-1.1-.17,1-.34,2.08-.57,3.1a70,70,0,0,1-2.14,7.52c-.27.78-.52,1.62-.82,2.43a.05.05,0,0,0,0,0l-.18.39c-.38.83-.75,1.67-1.13,2.51A139.94,139.94,0,0,1,398,276.52c-1.46,2.33-3,4.62-4.56,6.87-.79,1.13-1.6,2.25-2.41,3.36-.38.51-.77,1-1.14,1.53l-.14.18,0,0-.07.09c-14.67,18.28-31.91,34.4-50,49.21q-3.36,2.74-6.76,5.42l-1.33,1-.2.15-.37.29-3.47,2.62q-7.34,5.48-14.89,10.64-6.56,4.5-13.29,8.73C303.28,321.07,307.93,275.51,312.52,230Zm229.6,294.51c-.06,1.78-.17,3.56-.33,5.33l-.21,2s0,.05,0,.07h0a96.23,96.23,0,0,1-2.18,10.22,101.1,101.1,0,0,1-3.24,9.89c-.2.54-.42,1.07-.63,1.61a0,0,0,0,0,0,0c-.06.11-.11.22-.16.33q-1.07,2.38-2.25,4.71A126,126,0,0,1,522,576.57l-.42.59,0,0a4.87,4.87,0,0,1-.54.7l-.05.06-.13.17a.35.35,0,0,1-.07.09q-1.79,2.24-3.65,4.39-3.53,4.08-7.3,7.94a191.49,191.49,0,0,1-15.79,14.35l-2.29,1.84-.19.15c-1.26.95-2.51,1.89-3.79,2.82q-4.4,3.2-8.93,6.17a303.7,303.7,0,0,1-41.43,22.51c-1.69.76-3.38,1.51-5.09,2.25l-.85.37-.19.08-.23.1-.1,0-1.89.78q-5.58,2.28-11.24,4.38-11.33,4.2-22.89,7.7a462.26,462.26,0,0,1-46.68,11.41q-12,2.29-24.07,4l-4.19.6-.21,0-.9.12-.09,0-.16,0h0l-.26,0h0l-3.21.4q-6.07.75-12.17,1.4t-12.4,1.19q-3.35-66.25-1.74-132.6c1.09-45.06,3.71-90.07,7.2-135,1.2-.42,2.41-.83,3.62-1.23a220.06,220.06,0,0,1,21.73-5.94q5.52-1.2,11.07-2.13c1.69-.28,3.36-.53,5-.79h.1l2.89-.35c7.33-.82,14.71-1.29,22.08-1.41q11.29-.18,22.56.72c3.2.27,6.36.61,9.55,1l-.1,0a5,5,0,0,1,.85.11l-.46-.05.72.09.12,0,3,.45c1.86.3,3.72.61,5.57.95A227.8,227.8,0,0,1,447.7,409.5c.79.31,1.56.63,2.34.95l.07,0c1.72.77,3.45,1.52,5.16,2.31q4.91,2.28,9.71,4.8a208.69,208.69,0,0,1,19.25,11.47c2.86,1.93,5.59,4,8.37,6l.06.05c.77.61,1.53,1.23,2.29,1.85q2.12,1.74,4.18,3.54a168.77,168.77,0,0,1,15.53,15.43c1.11,1.26,2.2,2.53,3.27,3.83l1.8,2.21,0,.06.05.06c2.12,2.85,4.18,5.75,6.1,8.75s3.74,6.09,5.42,9.24q1.15,2.18,2.23,4.39c.35.74.7,1.48,1,2.22.22.49.44,1,.67,1.49.15.34.24.52.28.59-.07-.23-.53-1.33-.75-1.78a25,25,0,0,1,1.69,4.4c.65,1.77,1.26,3.57,1.81,5.38A101.94,101.94,0,0,1,540.88,507c.1.47,1.1,4.64.83,4.79a4.23,4.23,0,0,1-.11-.69c.1.91.18,1.83.26,2.75A92.14,92.14,0,0,1,542.12,524.46Z"/></g></g></svg>