<svg xmlns="http://www.w3.org/2000/svg" xmlns:xlink="http://www.w3.org/1999/xlink" viewBox="0 0 870.6 859.38"><defs><style>.cls-1{fill:url(#linear-gradient);}.cls-2{fill:url(#linear-gradient-2);}.cls-3{fill:url(#linear-gradient-3);}.cls-4{fill:url(#linear-gradient-4);}.cls-5{fill:url(#linear-gradient-5);}.cls-6{fill:url(#linear-gradient-6);}.cls-7{fill:url(#linear-gradient-7);}.cls-8{fill:url(#linear-gradient-8);}.cls-9{fill:url(#linear-gradient-9);}.cls-10{fill:url(#linear-gradient-10);}.cls-11{fill:url(#linear-gradient-11);}.cls-12{fill:url(#linear-gradient-12);}.cls-13{fill:url(#linear-gradient-13);}.cls-14{fill:url(#linear-gradient-14);}.cls-15{fill:url(#linear-gradient-15);}.cls-16{fill:url(#linear-gradient-16);}.cls-17{fill:url(#linear-gradient-17);}.cls-18{fill:url(#linear-gradient-18);}.cls-19{fill:url(#linear-gradient-19);}.cls-20{fill:url(#linear-gradient-20);}.cls-21{fill:url(#linear-gradient-21);}.cls-22{fill:url(#linear-gradient-22);}.cls-23{fill:url(#linear-gradient-23);}.cls-24{fill:url(#linear-gradient-24);}.cls-25{fill:url(#linear-gradient-25);}.cls-26{fill:url(#linear-gradient-26);}.cls-27{fill:url(#linear-gradient-27);}.cls-28{fill:url(#linear-gradient-28);}.cls-29{fill:url(#linear-gradient-29);}.cls-30{fill:url(#linear-gradient-30);}.cls-31{fill:url(#linear-gradient-31);}.cls-32{fill:url(#linear-gradient-32);}.cls-33{fill:url(#linear-gradient-33);}.cls-34{fill:url(#linear-gradient-34);}.cls-35{fill:url(#linear-gradient-35);}.cls-36{fill:url(#linear-gradient-36);}.cls-37{fill:url(#linear-gradient-37);}.cls-38{fill:url(#linear-gradient-38);}.cls-39{fill:url(#linear-gradient-39);}.cls-40{fill:url(#linear-gradient-40);}.cls-41{fill:url(#linear-gradient-41);}.cls-42{fill:url(#linear-gradient-42);}.cls-43{fill:url(#linear-gradient-43);}.cls-44{fill:url(#linear-gradient-44);}.cls-45{fill:url(#linear-gradient-45);}.cls-46{fill:url(#linear-gradient-46);}.cls-47{fill:url(#linear-gradient-47);}.cls-48{fill:url(#linear-gradient-48);}.cls-49{fill:url(#linear-gradient-49);}.cls-50{fill:url(#linear-gradient-50);}.cls-51{fill:url(#linear-gradient-51);}.cls-52{fill:url(#linear-gradient-52);}.cls-53{fill:url(#linear-gradient-53);}.cls-54{fill:url(#linear-gradient-54);}.cls-55{fill:url(#linear-gradient-55);}.cls-56{fill:url(#linear-gradient-56);}.cls-57{fill:url(#linear-gradient-57);}.cls-58{fill:url(#linear-gradient-58);}.cls-59{fill:url(#linear-gradient-59);}.cls-60{fill:url(#linear-gradient-60);}.cls-61{fill:url(#linear-gradient-61);}.cls-62{fill:url(#linear-gradient-62);}.cls-63{fill:url(#linear-gradient-63);}.cls-64{fill:url(#linear-gradient-64);}.cls-65{fill:url(#linear-gradient-65);}.cls-66{fill:url(#linear-gradient-66);}.cls-67{fill:url(#linear-gradient-67);}.cls-68{fill:url(#linear-gradient-68);}.cls-69{fill:url(#linear-gradient-69);}.cls-70{fill:url(#linear-gradient-70);}.cls-71{fill:url(#linear-gradient-71);}.cls-72{fill:url(#linear-gradient-72);}.cls-73{fill:url(#linear-gradient-73);}.cls-74{fill:url(#linear-gradient-74);}.cls-75{fill:url(#linear-gradient-75);}.cls-76{fill:url(#linear-gradient-76);}.cls-77{fill:url(#linear-gradient-77);}.cls-78{fill:url(#linear-gradient-78);}.cls-79{fill:url(#linear-gradient-79);}.cls-80{fill:url(#linear-gradient-80);}.cls-81{fill:url(#linear-gradient-81);}.cls-82{fill:url(#linear-gradient-82);}.cls-83{fill:url(#linear-gradient-83);}.cls-84{fill:url(#linear-gradient-84);}.cls-85{fill:url(#linear-gradient-85);}.cls-86{fill:url(#linear-gradient-86);}.cls-87{fill:url(#linear-gradient-87);}.cls-88{fill:url(#linear-gradient-88);}.cls-89{fill:url(#linear-gradient-89);}.cls-90{fill:url(#linear-gradient-90);}.cls-91{fill:url(#linear-gradient-91);}.cls-92{fill:url(#linear-gradient-92);}.cls-93{fill:url(#linear-gradient-93);}.cls-94{fill:url(#linear-gradient-94);}.cls-95{fill:url(#linear-gradient-95);}.cls-96{fill:url(#linear-gradient-96);}.cls-97{fill:url(#linear-gradient-97);}.cls-98{fill:url(#linear-gradient-98);}.cls-99{fill:url(#linear-gradient-99);}.cls-100{fill:url(#linear-gradient-100);}.cls-101{fill:url(#linear-gradient-101);}</style><linearGradient id="linear-gradient" x1="270.77" y1="437.05" x2="589.1" y2="389.47" gradientTransform="translate(809.19 -1140.04) rotate(60) scale(2.7)" gradientUnits="userSpaceOnUse"><stop offset="0" stop-color="#ff47da"/><stop offset="0.15" stop-color="#fd48da"/><stop offset="0.2" stop-color="#f64ddc"/><stop offset="0.24" stop-color="#eb56de"/><stop offset="0.27" stop-color="#da62e2"/><stop offset="0.3" stop-color="#c472e6"/><stop offset="0.32" stop-color="#a985eb"/><stop offset="0.33" stop-color="#9c8eee"/><stop offset="0.33" stop-color="#9a90ee"/><stop offset="0.34" stop-color="#7fa2f4"/><stop offset="0.36" stop-color="#69b2f8"/><stop offset="0.37" stop-color="#58befb"/><stop offset="0.39" stop-color="#4dc6fd"/><stop offset="0.42" stop-color="#46cbff"/><stop offset="0.5" stop-color="#4cf"/><stop offset="0.57" stop-color="#46ccfd"/><stop offset="0.6" stop-color="#4ccef6"/><stop offset="0.62" stop-color="#57d1eb"/><stop offset="0.63" stop-color="#67d4da"/><stop offset="0.64" stop-color="#7cd9c4"/><stop offset="0.66" stop-color="#95dfa9"/><stop offset="0.66" stop-color="#a1e29c"/><stop offset="0.66" stop-color="#a7e396"/><stop offset="0.69" stop-color="#bfe97b"/><stop offset="0.72" stop-color="#d3ee65"/><stop offset="0.75" stop-color="#e3f254"/><stop offset="0.79" stop-color="#eef549"/><stop offset="0.84" stop-color="#f4f742"/><stop offset="1" stop-color="#f6f740"/></linearGradient><linearGradient id="linear-gradient-2" x1="270.77" y1="437.05" x2="589.1" y2="389.47" gradientTransform="matrix(1.22, 2.39, -2.39, 1.22, 885.15, -1102.7)" xlink:href="#linear-gradient"/><linearGradient id="linear-gradient-3" x1="270.77" y1="437.05" x2="589.1" y2="389.47" gradientTransform="translate(958.33 -1061.84) rotate(66) scale(2.65)" xlink:href="#linear-gradient"/><linearGradient id="linear-gradient-4" x1="270.77" y1="437.05" x2="589.1" y2="389.47" gradientTransform="translate(1028.56 -1017.64) rotate(69) scale(2.63)" xlink:href="#linear-gradient"/><linearGradient id="linear-gradient-5" x1="270.77" y1="437.05" x2="589.1" y2="389.47" gradientTransform="matrix(0.8, 2.47, -2.47, 0.8, 1095.71, -970.31)" xlink:href="#linear-gradient"/><linearGradient id="linear-gradient-6" x1="270.77" y1="437.05" x2="589.1" y2="389.47" gradientTransform="matrix(0.67, 2.49, -2.49, 0.67, 1159.66, -920.02)" xlink:href="#linear-gradient"/><linearGradient id="linear-gradient-7" x1="270.77" y1="437.05" x2="589.1" y2="389.47" gradientTransform="translate(1220.27 -866.99) rotate(78) scale(2.55)" xlink:href="#linear-gradient"/><linearGradient id="linear-gradient-8" x1="270.77" y1="437.05" x2="589.1" y2="389.47" gradientTransform="translate(1277.46 -811.42) rotate(81) scale(2.52)" xlink:href="#linear-gradient"/><linearGradient id="linear-gradient-9" x1="270.77" y1="437.05" x2="589.1" y2="389.47" gradientTransform="translate(1331.13 -753.51) rotate(84) scale(2.5)" xlink:href="#linear-gradient"/><linearGradient id="linear-gradient-10" x1="270.77" y1="437.05" x2="589.1" y2="389.47" gradientTransform="translate(1381.19 -693.47) rotate(87) scale(2.47)" xlink:href="#linear-gradient"/><linearGradient id="linear-gradient-11" x1="270.77" y1="437.05" x2="589.1" y2="389.47" gradientTransform="translate(1427.57 -631.51) rotate(90) scale(2.45)" xlink:href="#linear-gradient"/><linearGradient id="linear-gradient-12" x1="270.77" y1="437.05" x2="589.1" y2="389.47" gradientTransform="translate(1470.22 -567.85) rotate(93) scale(2.42)" xlink:href="#linear-gradient"/><linearGradient id="linear-gradient-13" x1="270.77" y1="437.05" x2="589.1" y2="389.47" gradientTransform="matrix(-0.25, 2.39, -2.39, -0.25, 1509.1, -502.69)" xlink:href="#linear-gradient"/><linearGradient id="linear-gradient-14" x1="270.77" y1="437.05" x2="589.1" y2="389.47" gradientTransform="matrix(-0.37, 2.35, -2.35, -0.37, 1544.15, -436.25)" xlink:href="#linear-gradient"/><linearGradient id="linear-gradient-15" x1="270.77" y1="437.05" x2="589.1" y2="389.47" gradientTransform="matrix(-0.49, 2.3, -2.3, -0.49, 1575.38, -368.74)" xlink:href="#linear-gradient"/><linearGradient id="linear-gradient-16" x1="270.77" y1="437.05" x2="589.1" y2="389.47" gradientTransform="matrix(-0.6, 2.25, -2.25, -0.6, 1602.75, -300.38)" xlink:href="#linear-gradient"/><linearGradient id="linear-gradient-17" x1="270.77" y1="437.05" x2="589.1" y2="389.47" gradientTransform="translate(1626.27 -231.36) rotate(108) scale(2.31)" xlink:href="#linear-gradient"/><linearGradient id="linear-gradient-18" x1="270.77" y1="437.05" x2="589.1" y2="389.47" gradientTransform="translate(1645.95 -161.91) rotate(111) scale(2.28)" xlink:href="#linear-gradient"/><linearGradient id="linear-gradient-19" x1="270.77" y1="437.05" x2="589.1" y2="389.47" gradientTransform="translate(1661.81 -92.21) rotate(114) scale(2.26)" xlink:href="#linear-gradient"/><linearGradient id="linear-gradient-20" x1="270.77" y1="437.05" x2="589.1" y2="389.47" gradientTransform="translate(1673.88 -22.48) rotate(117) scale(2.24)" xlink:href="#linear-gradient"/><linearGradient id="linear-gradient-21" x1="270.77" y1="437.05" x2="589.1" y2="389.47" gradientTransform="translate(1682.2 47.09) rotate(120) scale(2.22)" xlink:href="#linear-gradient"/><linearGradient id="linear-gradient-22" x1="270.77" y1="437.05" x2="589.1" y2="389.47" gradientTransform="matrix(-1.2, 1.84, -1.84, -1.2, 1686.82, 116.31)" xlink:href="#linear-gradient"/><linearGradient id="linear-gradient-23" x1="270.77" y1="437.05" x2="589.1" y2="389.47" gradientTransform="matrix(-1.28, 1.76, -1.76, -1.28, 1687.8, 184.99)" xlink:href="#linear-gradient"/><linearGradient id="linear-gradient-24" x1="270.77" y1="437.05" x2="589.1" y2="389.47" gradientTransform="translate(1685.22 252.94) rotate(129) scale(2.15)" xlink:href="#linear-gradient"/><linearGradient id="linear-gradient-25" x1="270.77" y1="437.05" x2="589.1" y2="389.47" gradientTransform="translate(1679.14 320) rotate(132) scale(2.13)" xlink:href="#linear-gradient"/><linearGradient id="linear-gradient-26" x1="270.77" y1="437.05" x2="589.1" y2="389.47" gradientTransform="translate(1669.65 385.99) rotate(135) scale(2.11)" xlink:href="#linear-gradient"/><linearGradient id="linear-gradient-27" x1="270.77" y1="437.05" x2="589.1" y2="389.47" gradientTransform="translate(1656.86 450.74) rotate(138) scale(2.09)" xlink:href="#linear-gradient"/><linearGradient id="linear-gradient-28" x1="270.77" y1="437.05" x2="589.1" y2="389.47" gradientTransform="translate(1640.85 514.1) rotate(141) scale(2.07)" xlink:href="#linear-gradient"/><linearGradient id="linear-gradient-29" x1="270.77" y1="437.05" x2="589.1" y2="389.47" gradientTransform="matrix(-1.66, 1.2, -1.2, -1.66, 1621.73, 575.92)" xlink:href="#linear-gradient"/><linearGradient id="linear-gradient-30" x1="270.77" y1="437.05" x2="589.1" y2="389.47" gradientTransform="matrix(-1.7, 1.1, -1.1, -1.7, 1599.63, 636.05)" xlink:href="#linear-gradient"/><linearGradient id="linear-gradient-31" x1="270.77" y1="437.05" x2="589.1" y2="389.47" gradientTransform="translate(1574.67 694.36) rotate(150) scale(2.01)" xlink:href="#linear-gradient"/><linearGradient id="linear-gradient-32" x1="270.77" y1="437.05" x2="589.1" y2="389.47" gradientTransform="translate(1546.96 750.72) rotate(153) scale(1.99)" xlink:href="#linear-gradient"/><linearGradient id="linear-gradient-33" x1="270.77" y1="437.05" x2="589.1" y2="389.47" gradientTransform="translate(1516.64 805.01) rotate(156) scale(1.97)" xlink:href="#linear-gradient"/><linearGradient id="linear-gradient-34" x1="270.77" y1="437.05" x2="589.1" y2="389.47" gradientTransform="matrix(-1.82, 0.7, -0.7, -1.82, 1483.85, 857.12)" xlink:href="#linear-gradient"/><linearGradient id="linear-gradient-35" x1="270.77" y1="437.05" x2="589.1" y2="389.47" gradientTransform="translate(1448.73 906.94) rotate(162) scale(1.93)" xlink:href="#linear-gradient"/><linearGradient id="linear-gradient-36" x1="270.77" y1="437.05" x2="589.1" y2="389.47" gradientTransform="matrix(-1.84, 0.49, -0.49, -1.84, 1411.43, 954.39)" xlink:href="#linear-gradient"/><linearGradient id="linear-gradient-37" x1="270.77" y1="437.05" x2="589.1" y2="389.47" gradientTransform="matrix(-1.85, 0.39, -0.39, -1.85, 1372.09, 999.36)" xlink:href="#linear-gradient"/><linearGradient id="linear-gradient-38" x1="270.77" y1="437.05" x2="589.1" y2="389.47" gradientTransform="translate(1330.85 1041.79) rotate(171) scale(1.87)" xlink:href="#linear-gradient"/><linearGradient id="linear-gradient-39" x1="270.77" y1="437.05" x2="589.1" y2="389.47" gradientTransform="translate(1287.89 1081.6) rotate(174) scale(1.85)" xlink:href="#linear-gradient"/><linearGradient id="linear-gradient-40" x1="270.77" y1="437.05" x2="589.1" y2="389.47" gradientTransform="translate(1243.34 1118.74) rotate(177) scale(1.83)" xlink:href="#linear-gradient"/><linearGradient id="linear-gradient-41" x1="270.77" y1="437.05" x2="589.1" y2="389.47" gradientTransform="translate(1197.37 1153.16) rotate(180) scale(1.82)" xlink:href="#linear-gradient"/><linearGradient id="linear-gradient-42" x1="270.77" y1="437.05" x2="589.1" y2="389.47" gradientTransform="translate(1150.14 1184.8) rotate(-177) scale(1.8)" xlink:href="#linear-gradient"/><linearGradient id="linear-gradient-43" x1="270.77" y1="437.05" x2="589.1" y2="389.47" gradientTransform="matrix(-1.77, -0.19, 0.19, -1.77, 1101.8, 1213.64)" xlink:href="#linear-gradient"/><linearGradient id="linear-gradient-44" x1="270.77" y1="437.05" x2="589.1" y2="389.47" gradientTransform="matrix(-1.74, -0.28, 0.28, -1.74, 1052.51, 1239.65)" xlink:href="#linear-gradient"/><linearGradient id="linear-gradient-45" x1="270.77" y1="437.05" x2="589.1" y2="389.47" gradientTransform="matrix(-1.71, -0.36, 0.36, -1.71, 1002.42, 1262.82)" xlink:href="#linear-gradient"/><linearGradient id="linear-gradient-46" x1="270.77" y1="437.05" x2="589.1" y2="389.47" gradientTransform="translate(951.7 1283.13) rotate(-165) scale(1.73)" xlink:href="#linear-gradient"/><linearGradient id="linear-gradient-47" x1="270.77" y1="437.05" x2="589.1" y2="389.47" gradientTransform="translate(900.5 1300.58) rotate(-162) scale(1.71)" xlink:href="#linear-gradient"/><linearGradient id="linear-gradient-48" x1="270.77" y1="437.05" x2="589.1" y2="389.47" gradientTransform="translate(848.97 1315.18) rotate(-159) scale(1.69)" xlink:href="#linear-gradient"/><linearGradient id="linear-gradient-49" x1="270.77" y1="437.05" x2="589.1" y2="389.47" gradientTransform="matrix(-1.53, -0.68, 0.68, -1.53, 797.26, 1326.94)" xlink:href="#linear-gradient"/><linearGradient id="linear-gradient-50" x1="270.77" y1="437.05" x2="589.1" y2="389.47" gradientTransform="translate(745.52 1335.9) rotate(-153) scale(1.66)" xlink:href="#linear-gradient"/><linearGradient id="linear-gradient-51" x1="270.77" y1="437.05" x2="589.1" y2="389.47" gradientTransform="translate(693.91 1342.07) rotate(-150) scale(1.64)" xlink:href="#linear-gradient"/><linearGradient id="linear-gradient-52" x1="270.77" y1="437.05" x2="589.1" y2="389.47" gradientTransform="translate(642.55 1345.5) rotate(-147) scale(1.63)" xlink:href="#linear-gradient"/><linearGradient id="linear-gradient-53" x1="270.77" y1="437.05" x2="589.1" y2="389.47" gradientTransform="matrix(-1.3, -0.95, 0.95, -1.3, 591.6, 1346.23)" xlink:href="#linear-gradient"/><linearGradient id="linear-gradient-54" x1="270.77" y1="437.05" x2="589.1" y2="389.47" gradientTransform="translate(541.18 1344.31) rotate(-141) scale(1.6)" xlink:href="#linear-gradient"/><linearGradient id="linear-gradient-55" x1="270.77" y1="437.05" x2="589.1" y2="389.47" gradientTransform="translate(491.43 1339.8) rotate(-138) scale(1.58)" xlink:href="#linear-gradient"/><linearGradient id="linear-gradient-56" x1="270.77" y1="437.05" x2="589.1" y2="389.47" gradientTransform="translate(442.47 1332.76) rotate(-135) scale(1.56)" xlink:href="#linear-gradient"/><linearGradient id="linear-gradient-57" x1="270.77" y1="437.05" x2="589.1" y2="389.47" gradientTransform="translate(394.43 1323.27) rotate(-132) scale(1.55)" xlink:href="#linear-gradient"/><linearGradient id="linear-gradient-58" x1="270.77" y1="437.05" x2="589.1" y2="389.47" gradientTransform="translate(347.42 1311.39) rotate(-129) scale(1.53)" xlink:href="#linear-gradient"/><linearGradient id="linear-gradient-59" x1="270.77" y1="437.05" x2="589.1" y2="389.47" gradientTransform="matrix(-0.89, -1.23, 1.23, -0.89, 301.55, 1297.21)" xlink:href="#linear-gradient"/><linearGradient id="linear-gradient-60" x1="270.77" y1="437.05" x2="589.1" y2="389.47" gradientTransform="matrix(-0.82, -1.26, 1.26, -0.82, 256.94, 1280.82)" xlink:href="#linear-gradient"/><linearGradient id="linear-gradient-61" x1="270.77" y1="437.05" x2="589.1" y2="389.47" gradientTransform="matrix(-0.74, -1.29, 1.29, -0.74, 213.68, 1262.29)" xlink:href="#linear-gradient"/><linearGradient id="linear-gradient-62" x1="270.77" y1="437.05" x2="589.1" y2="389.47" gradientTransform="translate(171.86 1241.73) rotate(-117) scale(1.47)" xlink:href="#linear-gradient"/><linearGradient id="linear-gradient-63" x1="270.77" y1="437.05" x2="589.1" y2="389.47" gradientTransform="matrix(-0.59, -1.33, 1.33, -0.59, 131.58, 1219.24)" xlink:href="#linear-gradient"/><linearGradient id="linear-gradient-64" x1="270.77" y1="437.05" x2="589.1" y2="389.47" gradientTransform="translate(92.92 1194.92) rotate(-111) scale(1.45)" xlink:href="#linear-gradient"/><linearGradient id="linear-gradient-65" x1="270.77" y1="437.05" x2="589.1" y2="389.47" gradientTransform="translate(55.96 1168.86) rotate(-108) scale(1.43)" xlink:href="#linear-gradient"/><linearGradient id="linear-gradient-66" x1="270.77" y1="437.05" x2="589.1" y2="389.47" gradientTransform="translate(20.76 1141.18) rotate(-105) scale(1.42)" xlink:href="#linear-gradient"/><linearGradient id="linear-gradient-67" x1="270.77" y1="437.05" x2="589.1" y2="389.47" gradientTransform="translate(-12.6 1111.99) rotate(-102) scale(1.4)" xlink:href="#linear-gradient"/><linearGradient id="linear-gradient-68" x1="270.77" y1="437.05" x2="589.1" y2="389.47" gradientTransform="matrix(-0.22, -1.37, 1.37, -0.22, -44.08, 1081.4)" xlink:href="#linear-gradient"/><linearGradient id="linear-gradient-69" x1="270.77" y1="437.05" x2="589.1" y2="389.47" gradientTransform="translate(-73.62 1049.52) rotate(-96) scale(1.37)" xlink:href="#linear-gradient"/><linearGradient id="linear-gradient-70" x1="270.77" y1="437.05" x2="589.1" y2="389.47" gradientTransform="translate(-101.18 1016.47) rotate(-93) scale(1.36)" xlink:href="#linear-gradient"/><linearGradient id="linear-gradient-71" x1="270.77" y1="437.05" x2="589.1" y2="389.47" gradientTransform="translate(-126.71 982.37) rotate(-90) scale(1.35)" xlink:href="#linear-gradient"/><linearGradient id="linear-gradient-72" x1="270.77" y1="437.05" x2="589.1" y2="389.47" gradientTransform="matrix(0.07, -1.33, 1.33, 0.07, -150.19, 947.33)" xlink:href="#linear-gradient"/><linearGradient id="linear-gradient-73" x1="270.77" y1="437.05" x2="589.1" y2="389.47" gradientTransform="translate(-171.59 911.46) rotate(-84) scale(1.32)" xlink:href="#linear-gradient"/><linearGradient id="linear-gradient-74" x1="270.77" y1="437.05" x2="589.1" y2="389.47" gradientTransform="translate(-190.88 874.89) rotate(-81) scale(1.31)" xlink:href="#linear-gradient"/><linearGradient id="linear-gradient-75" x1="270.77" y1="437.05" x2="589.1" y2="389.47" gradientTransform="translate(-208.07 837.73) rotate(-78) scale(1.3)" xlink:href="#linear-gradient"/><linearGradient id="linear-gradient-76" x1="270.77" y1="437.05" x2="589.1" y2="389.47" gradientTransform="translate(-223.14 800.1) rotate(-75) scale(1.28)" xlink:href="#linear-gradient"/><linearGradient id="linear-gradient-77" x1="270.77" y1="437.05" x2="589.1" y2="389.47" gradientTransform="translate(-236.08 762.11) rotate(-72) scale(1.27)" xlink:href="#linear-gradient"/><linearGradient id="linear-gradient-78" x1="270.77" y1="437.05" x2="589.1" y2="389.47" gradientTransform="translate(-246.92 723.88) rotate(-69) scale(1.26)" xlink:href="#linear-gradient"/><linearGradient id="linear-gradient-79" x1="270.77" y1="437.05" x2="589.1" y2="389.47" gradientTransform="translate(-255.65 685.51) rotate(-66) scale(1.24)" xlink:href="#linear-gradient"/><linearGradient id="linear-gradient-80" x1="270.77" y1="437.05" x2="589.1" y2="389.47" gradientTransform="translate(-262.29 647.13) rotate(-63) scale(1.23)" xlink:href="#linear-gradient"/><linearGradient id="linear-gradient-81" x1="270.77" y1="437.05" x2="589.1" y2="389.47" gradientTransform="translate(-266.87 608.84) rotate(-60) scale(1.22)" xlink:href="#linear-gradient"/><linearGradient id="linear-gradient-82" x1="270.77" y1="437.05" x2="589.1" y2="389.47" gradientTransform="translate(-269.42 570.73) rotate(-57) scale(1.21)" xlink:href="#linear-gradient"/><linearGradient id="linear-gradient-83" x1="270.77" y1="437.05" x2="589.1" y2="389.47" gradientTransform="matrix(0.7, -0.97, 0.97, 0.7, -269.96, 532.93)" xlink:href="#linear-gradient"/><linearGradient id="linear-gradient-84" x1="270.77" y1="437.05" x2="589.1" y2="389.47" gradientTransform="translate(-268.53 495.52) rotate(-51) scale(1.18)" xlink:href="#linear-gradient"/><linearGradient id="linear-gradient-85" x1="270.77" y1="437.05" x2="589.1" y2="389.47" gradientTransform="matrix(0.78, -0.87, 0.87, 0.78, -265.19, 458.61)" xlink:href="#linear-gradient"/><linearGradient id="linear-gradient-86" x1="270.77" y1="437.05" x2="589.1" y2="389.47" gradientTransform="translate(-259.97 422.29) rotate(-45) scale(1.16)" xlink:href="#linear-gradient"/><linearGradient id="linear-gradient-87" x1="270.77" y1="437.05" x2="589.1" y2="389.47" gradientTransform="translate(-252.92 386.64) rotate(-42) scale(1.15)" xlink:href="#linear-gradient"/><linearGradient id="linear-gradient-88" x1="270.77" y1="437.05" x2="589.1" y2="389.47" gradientTransform="translate(-244.11 351.77) rotate(-39) scale(1.14)" xlink:href="#linear-gradient"/><linearGradient id="linear-gradient-89" x1="270.77" y1="437.05" x2="589.1" y2="389.47" gradientTransform="translate(-233.59 317.74) rotate(-36) scale(1.13)" xlink:href="#linear-gradient"/><linearGradient id="linear-gradient-90" x1="270.77" y1="437.05" x2="589.1" y2="389.47" gradientTransform="translate(-221.42 284.64) rotate(-33) scale(1.12)" xlink:href="#linear-gradient"/><linearGradient id="linear-gradient-91" x1="270.77" y1="437.05" x2="589.1" y2="389.47" gradientTransform="translate(-207.68 252.54) rotate(-30) scale(1.1)" xlink:href="#linear-gradient"/><linearGradient id="linear-gradient-92" x1="270.77" y1="437.05" x2="589.1" y2="389.47" gradientTransform="translate(-192.43 221.52) rotate(-27) scale(1.09)" xlink:href="#linear-gradient"/><linearGradient id="linear-gradient-93" x1="270.77" y1="437.05" x2="589.1" y2="389.47" gradientTransform="matrix(0.99, -0.44, 0.44, 0.99, -175.74, 191.64)" xlink:href="#linear-gradient"/><linearGradient id="linear-gradient-94" x1="270.77" y1="437.05" x2="589.1" y2="389.47" gradientTransform="translate(-157.69 162.95) rotate(-21) scale(1.07)" xlink:href="#linear-gradient"/><linearGradient id="linear-gradient-95" x1="270.77" y1="437.05" x2="589.1" y2="389.47" gradientTransform="translate(-138.36 135.53) rotate(-18) scale(1.06)" xlink:href="#linear-gradient"/><linearGradient id="linear-gradient-96" x1="270.77" y1="437.05" x2="589.1" y2="389.47" gradientTransform="translate(-117.83 109.41) rotate(-15) scale(1.05)" xlink:href="#linear-gradient"/><linearGradient id="linear-gradient-97" x1="270.77" y1="437.05" x2="589.1" y2="389.47" gradientTransform="translate(-96.17 84.66) rotate(-12) scale(1.04)" xlink:href="#linear-gradient"/><linearGradient id="linear-gradient-98" x1="270.77" y1="437.05" x2="589.1" y2="389.47" gradientTransform="translate(-73.47 61.3) rotate(-9) scale(1.03)" xlink:href="#linear-gradient"/><linearGradient id="linear-gradient-99" x1="270.77" y1="437.05" x2="589.1" y2="389.47" gradientTransform="translate(-49.82 39.39) rotate(-6) scale(1.02)" xlink:href="#linear-gradient"/><linearGradient id="linear-gradient-100" x1="270.77" y1="437.05" x2="589.1" y2="389.47" gradientTransform="translate(-25.3 18.94) rotate(-3) scale(1.01)" xlink:href="#linear-gradient"/><linearGradient id="linear-gradient-101" x1="270.77" y1="437.05" x2="589.1" y2="389.47" gradientTransform="matrix(1, 0, 0, 1, 0, 0)" xlink:href="#linear-gradient"/></defs><title>LineArt</title><g id="Layer_2" data-name="Layer 2"><g id="Layer_1-2" data-name="Layer 1"><path class="cls-1" d="M852.44,286.22A115,115,0,0,1,865,369.72L801.81,644.91a114.81,114.81,0,0,1-62.53,78.21L484.75,845.31a114.78,114.78,0,0,1-100.13-.13L130.39,722.37A115.35,115.35,0,0,1,68.06,644L5.57,368.67A114.79,114.79,0,0,1,28,271.08L204.27,50.55A114.81,114.81,0,0,1,294.54,7.22l282.34.34a114.81,114.81,0,0,1,90.17,43.56l175.76,221a114.86,114.86,0,0,1,9.63,14.15m2.34-1.36a119.06,119.06,0,0,0-9.85-14.47l-175.77-221A118.08,118.08,0,0,0,576.89,4.86L294.55,4.51a118.12,118.12,0,0,0-92.39,44.35L25.86,269.39A118.08,118.08,0,0,0,2.93,369.27L65.42,644.61a118.12,118.12,0,0,0,63.8,80.2L383.44,847.62a118.12,118.12,0,0,0,102.48.13l254.53-122.2a118.07,118.07,0,0,0,64-80l63.17-275.18a118.1,118.1,0,0,0-12.83-85.47Z"/><path class="cls-2" d="M854,309.75A113.92,113.92,0,0,1,862.08,393L785.36,661.78a113.63,113.63,0,0,1-65.87,74.08l-258,107.63a113.67,113.67,0,0,1-99-5.31l-245-134.6a114.28,114.28,0,0,1-57.57-80.72L12.4,347.39a113.67,113.67,0,0,1,27.21-95.34L225.36,43.15A113.66,113.66,0,0,1,316.85,5L596,20a113.66,113.66,0,0,1,86.89,47.74L845.22,295.27A114.21,114.21,0,0,1,854,309.75m2.39-1.22a116.85,116.85,0,0,0-9-14.82L685.07,66.13a116.92,116.92,0,0,0-88.93-48.85L317,2.3a117,117,0,0,0-93.65,39.07L37.61,250.28A116.89,116.89,0,0,0,9.76,347.84L57.28,623.32a116.93,116.93,0,0,0,58.92,82.6l245,134.61A116.94,116.94,0,0,0,462.52,846l258-107.62a116.94,116.94,0,0,0,67.42-75.83L864.65,393.7a117,117,0,0,0-8.25-85.17Z"/><path class="cls-3" d="M854.35,333.09a112.81,112.81,0,0,1,3.66,82.7L768.23,677.6a112.52,112.52,0,0,1-69,69.84l-260.67,93A112.56,112.56,0,0,1,341,830.11L105.71,684.32A113.09,113.09,0,0,1,53,601.54L20.26,326.7A112.54,112.54,0,0,1,52.1,233.85L246.58,36.92A112.56,112.56,0,0,1,339,3.92L614.25,33.19a112.55,112.55,0,0,1,83.44,51.7L846.41,318.32a114.06,114.06,0,0,1,7.94,14.77m2.42-1.07a113.65,113.65,0,0,0-8.13-15.12L699.93,83.47a115.79,115.79,0,0,0-85.4-52.92L339.31,1.29A115.74,115.74,0,0,0,244.7,35.06L50.21,232a115.76,115.76,0,0,0-32.58,95L50.34,601.85a115.73,115.73,0,0,0,54,84.73L339.58,832.36A115.78,115.78,0,0,0,439.48,843l260.67-93a115.76,115.76,0,0,0,70.59-71.48l89.78-261.81A115.8,115.8,0,0,0,856.77,332Z"/><path class="cls-4" d="M853.47,356.2a111.63,111.63,0,0,1-.67,81.95L750.47,692.36a111.41,111.41,0,0,1-71.82,65.48L416.1,836.34a111.43,111.43,0,0,1-96-15.33L95.06,664.68A112,112,0,0,1,47.2,580.09L29.1,306.66A111.43,111.43,0,0,1,65.4,216.5L267.89,31.86A111.43,111.43,0,0,1,361,4l270.61,43.2a111.42,111.42,0,0,1,79.82,55.44L846.38,341.18a111.26,111.26,0,0,1,7.09,15m2.45-.94a115.71,115.71,0,0,0-7.25-15.38L713.72,101.38A114.61,114.61,0,0,0,632,44.63L361.42,1.43a114.67,114.67,0,0,0-95.3,28.49L63.63,214.56a114.62,114.62,0,0,0-37.15,92.27l18.1,273.44a114.62,114.62,0,0,0,49,86.57L318.63,823.17a114.62,114.62,0,0,0,98.22,15.68l262.56-78.49a114.63,114.63,0,0,0,73.5-67L855.24,439.13a114.64,114.64,0,0,0,.68-83.87Z"/><path class="cls-5" d="M851.4,379a110.53,110.53,0,0,1-4.9,81L732.14,706a110.31,110.31,0,0,1-74.4,61l-263.66,64A110.32,110.32,0,0,1,300,810.94L85.55,644.7a110.91,110.91,0,0,1-42.94-86.11l-3.72-271.3A110.31,110.31,0,0,1,79.44,200L289.23,28a110.32,110.32,0,0,1,93.51-22.7L648.06,62a110.29,110.29,0,0,1,76.05,59L845.18,363.78A111.07,111.07,0,0,1,851.4,379m2.48-.8a113.17,113.17,0,0,0-6.38-15.57L726.43,119.8A113.49,113.49,0,0,0,648.6,59.46L383.28,2.73A113.5,113.5,0,0,0,287.58,26L77.79,198a113.47,113.47,0,0,0-41.5,89.31L40,558.62A113.46,113.46,0,0,0,84,646.76L298.39,813a113.47,113.47,0,0,0,96.3,20.59l263.67-64a113.49,113.49,0,0,0,76.14-62.46l114.36-246a113.55,113.55,0,0,0,5-82.9Z"/><path class="cls-6" d="M848.18,401.43a109.45,109.45,0,0,1-9,79.83L713.32,718.61a109.26,109.26,0,0,1-76.73,56.48l-264,49.62a109.25,109.25,0,0,1-92-24.77L77.18,624.46a109.72,109.72,0,0,1-38-87.37L49.56,268.65a109.24,109.24,0,0,1,44.62-84.17L310.52,25.22a109.25,109.25,0,0,1,93.63-17.6l259.4,69.85a109.24,109.24,0,0,1,72.14,62.23L842.81,386.06a110.15,110.15,0,0,1,5.37,15.37m2.49-.67a111.59,111.59,0,0,0-5.5-15.73L738.05,138.68A112.4,112.4,0,0,0,664.22,75L404.82,5.14a112.35,112.35,0,0,0-95.82,18L92.66,182.4A112.39,112.39,0,0,0,47,268.56L36.62,537A112.33,112.33,0,0,0,75.5,626.41L278.9,801.89a112.41,112.41,0,0,0,94.15,25.35l264-49.62a112.38,112.38,0,0,0,78.52-57.81L841.41,482.46a112.39,112.39,0,0,0,9.26-81.7Z"/><path class="cls-7" d="M843.83,423.44a108.38,108.38,0,0,1-13.08,78.46L694.05,730.06a108.14,108.14,0,0,1-78.79,51.87L351.65,817.31A108.15,108.15,0,0,1,262,788.05L70,604a108.67,108.67,0,0,1-33-88.35L61.08,250.78a108.15,108.15,0,0,1,48.48-80.92L331.72,23.61a108.16,108.16,0,0,1,93.49-12.55l252.86,82.5a108.17,108.17,0,0,1,68.1,65.27L839.32,408a108.74,108.74,0,0,1,4.51,15.48m2.49-.53a110.83,110.83,0,0,0-4.61-15.84L748.55,157.94a111.24,111.24,0,0,0-69.69-66.8L426,8.64a111.24,111.24,0,0,0-95.68,12.84L108.16,167.73a111.27,111.27,0,0,0-49.62,82.82L34.38,515.42a111.25,111.25,0,0,0,33.81,90.43l192,184a111.25,111.25,0,0,0,91.78,30L615.6,784.46a111.3,111.3,0,0,0,80.64-53.09L832.93,503.21a111.25,111.25,0,0,0,13.39-80.3Z"/><path class="cls-8" d="M838.39,445a107.27,107.27,0,0,1-17,76.9l-147,218.51a107.1,107.1,0,0,1-80.59,47.2L331.34,808.91a107.08,107.08,0,0,1-87.15-33.57L63.87,583.42a107.63,107.63,0,0,1-28.09-89.08L73.4,233.7a107,107,0,0,1,52.13-77.49L352.76,23.11a107.11,107.11,0,0,1,93.09-7.56l245.73,94.68a107.09,107.09,0,0,1,64,68.06l79.19,251.15A107.9,107.9,0,0,1,838.39,445m2.49-.4a110.64,110.64,0,0,0-3.74-15.89l-79.2-251.16a110.14,110.14,0,0,0-65.45-69.66L446.76,13.2a110.12,110.12,0,0,0-95.27,7.74L124.25,154A110.16,110.16,0,0,0,70.9,233.34L33.28,494A110.18,110.18,0,0,0,62,585.14L242.35,777.06a110.16,110.16,0,0,0,89.19,34.37L594,790.11A110.19,110.19,0,0,0,676.5,741.8l147-218.51a110.15,110.15,0,0,0,17.4-78.71Z"/><path class="cls-9" d="M831.89,466a106.21,106.21,0,0,1-20.79,75.16L654.45,749.58a106.05,106.05,0,0,1-82.13,42.5l-260.63,7.48a106,106,0,0,1-84.43-37.72L58.92,562.74a106.56,106.56,0,0,1-23.16-89.53l50.7-255.75A106,106,0,0,1,142,143.54L373.59,23.71A106,106,0,0,1,466,21.06L704.09,127.4A106,106,0,0,1,763.79,198l65.29,252.42A107,107,0,0,1,831.89,466m2.49-.26a109.12,109.12,0,0,0-2.88-15.91L766.21,197.39a109.08,109.08,0,0,0-61.1-72.27L467,18.78a109,109,0,0,0-94.6,2.72L140.87,141.32A109.05,109.05,0,0,0,84,217L33.31,472.73A109,109,0,0,0,57,564.35l168.35,199.1a109,109,0,0,0,86.4,38.6l260.63-7.48a109,109,0,0,0,84.05-43.49L813.09,542.65a109,109,0,0,0,21.29-76.92Z"/><path class="cls-10" d="M824.38,486.43a105.18,105.18,0,0,1-24.45,73.24l-165.69,198a105,105,0,0,1-83.41,37.76l-258.08-6.11a105,105,0,0,1-81.52-41.67L55.09,542a105.48,105.48,0,0,1-18.25-89.72l63.38-250.25A105,105,0,0,1,159,131.86L394.16,25.39a105,105,0,0,1,91.53,2.16L715.56,145A105,105,0,0,1,770.93,218l51.47,253a105.27,105.27,0,0,1,2,15.51m2.47-.12a108.93,108.93,0,0,0-2-15.89l-51.47-253a108,108,0,0,0-56.68-74.62L486.81,25.35a108,108,0,0,0-93.67-2.22L158,129.61a108,108,0,0,0-60.14,71.85L34.44,451.71a108,108,0,0,0,18.68,91.82L209.26,749.12a108,108,0,0,0,83.43,42.64l258.08,6.11a108,108,0,0,0,85.36-38.65l165.69-198a108,108,0,0,0,25-74.95Z"/><path class="cls-11" d="M815.89,506.26a104.12,104.12,0,0,1-28,71.14L613.84,764.55a104,104,0,0,1-84.42,33L274.56,778.15a103.93,103.93,0,0,1-78.45-45.42L52.38,521.37A104.45,104.45,0,0,1,39,431.72l75.64-244.15a103.93,103.93,0,0,1,61.74-66.37l238-93.09A103.91,103.91,0,0,1,504.79,35L726,163.06a104,104,0,0,1,51,75l37.78,252.79a103.84,103.84,0,0,1,1.15,15.45m2.45,0a107.94,107.94,0,0,0-1.17-15.81L779.38,237.66a106.92,106.92,0,0,0-52.17-76.72L506,32.87a106.93,106.93,0,0,0-92.51-7l-238,93.08a106.94,106.94,0,0,0-63.19,67.94L36.65,431a106.92,106.92,0,0,0,13.71,91.76L194.08,734.11a106.93,106.93,0,0,0,80.29,46.48L529.23,800a106.92,106.92,0,0,0,86.4-33.79L789.71,579.07a106.91,106.91,0,0,0,28.63-72.81Z"/><path class="cls-12" d="M806.47,525.42a103.1,103.1,0,0,1-31.34,68.89l-181.82,176a102.87,102.87,0,0,1-85.18,28.27l-251-32.4a102.91,102.91,0,0,1-75.21-49L50.78,500.8a103.49,103.49,0,0,1-8.61-89.34L129.61,174a102.9,102.9,0,0,1,64.48-62.43l240.19-79.7a102.87,102.87,0,0,1,89,11.49L735.36,181.43a102.91,102.91,0,0,1,46.52,76.75l24.26,251.91a103.23,103.23,0,0,1,.33,15.33m2.43.12a105.64,105.64,0,0,0-.35-15.69L784.29,258a105.89,105.89,0,0,0-47.6-78.56L524.62,41.3a105.9,105.9,0,0,0-91.1-11.76L193.33,109.25a105.86,105.86,0,0,0-66,63.89L39.9,410.62a105.87,105.87,0,0,0,8.81,91.43L179.86,718.48a105.87,105.87,0,0,0,77,50.13l251,32.4A105.89,105.89,0,0,0,595,772.08l181.82-176a105.88,105.88,0,0,0,32.08-70.51Z"/><path class="cls-13" d="M796.17,543.87a102.05,102.05,0,0,1-34.56,66.49L572.71,775A101.84,101.84,0,0,1,487,798.52l-246.48-45a101.87,101.87,0,0,1-71.83-52.32L50.26,480.37a102.39,102.39,0,0,1-3.88-88.78l98.76-230.27a101.87,101.87,0,0,1,67-58.39L453.74,36.57a101.88,101.88,0,0,1,87.42,16L743.68,200.07a101.87,101.87,0,0,1,42,78.3L796.63,528.7a102.44,102.44,0,0,1-.46,15.17m2.39.25a104.28,104.28,0,0,0,.47-15.53L788.1,278.27a104.83,104.83,0,0,0-43-80.14L542.57,50.61a104.79,104.79,0,0,0-89.46-16.35L211.49,100.62a104.82,104.82,0,0,0-68.56,59.75L44.17,390.65a104.8,104.8,0,0,0,4,90.86L166.6,702.3a104.81,104.81,0,0,0,73.51,53.54l246.48,45a104.79,104.79,0,0,0,87.7-24.08L763.18,612.17a104.79,104.79,0,0,0,35.38-68Z"/><path class="cls-14" d="M785,561.59a101.1,101.1,0,0,1-37.61,63.95l-195.3,153a100.85,100.85,0,0,1-85.94,18.83L224.79,740a100.85,100.85,0,0,1-68.3-55.45L50.8,460.15a101.45,101.45,0,0,1,.76-88L161.14,149.6a100.88,100.88,0,0,1,69.27-54.25l242.33-53.1a100.87,100.87,0,0,1,85.6,20.33L751,218.94a100.86,100.86,0,0,1,37.48,79.59l-2.16,248.08a101.59,101.59,0,0,1-1.25,15m2.35.37a102.82,102.82,0,0,0,1.27-15.33l2.16-248.08a103.74,103.74,0,0,0-38.36-81.46L559.84,60.73a103.77,103.77,0,0,0-87.61-20.8L229.9,93A103.77,103.77,0,0,0,159,148.55L49.43,371.12a103.79,103.79,0,0,0-.78,90L154.34,685.6a103.77,103.77,0,0,0,69.91,56.76l241.37,57.3a103.74,103.74,0,0,0,88-19.27l195.3-153A103.74,103.74,0,0,0,787.37,562Z"/><path class="cls-15" d="M773.09,578.52a100.12,100.12,0,0,1-40.51,61.29L531.55,781a99.89,99.89,0,0,1-85.95,14.16L209.92,725.94a99.87,99.87,0,0,1-64.67-58.37L52.38,440.18a100.44,100.44,0,0,1,5.32-86.95L177.58,138.85a99.86,99.86,0,0,1,71.29-50L491.23,48.85a99.87,99.87,0,0,1,83.58,24.54L757.15,238a99.89,99.89,0,0,1,32.93,80.65l-15,245.17a100.24,100.24,0,0,1-2,14.74m2.3.49a102.37,102.37,0,0,0,2.05-15.09l15-245.17a102.73,102.73,0,0,0-33.71-82.53L576.39,71.64a102.76,102.76,0,0,0-85.55-25.11L248.49,86.47a102.76,102.76,0,0,0-73,51.23L55.65,352.09a102.66,102.66,0,0,0-5.45,89l92.87,227.39a102.72,102.72,0,0,0,66.18,59.74l235.69,69.17a102.72,102.72,0,0,0,88-14.5l201-141.14A102.73,102.73,0,0,0,775.39,579Z"/><path class="cls-16" d="M760.4,594.65a99.11,99.11,0,0,1-43.22,58.5L511.1,782.28a98.91,98.91,0,0,1-85.72,9.55l-229.44-80.6A98.9,98.9,0,0,1,135,650.17L55,420.52a99.32,99.32,0,0,1,9.77-85.69L194.38,129.07a98.9,98.9,0,0,1,73.09-45.8l241.7-26.93a98.86,98.86,0,0,1,81.37,28.59L762.29,257.1a98.91,98.91,0,0,1,28.39,81.44L763.15,580.17a98.61,98.61,0,0,1-2.75,14.48m2.26.61a103.09,103.09,0,0,0,2.81-14.82L793,338.81a101.72,101.72,0,0,0-29-83.36L592.19,83.28A101.7,101.7,0,0,0,508.91,54L267.21,81a101.74,101.74,0,0,0-74.8,46.87L62.77,333.59a101.71,101.71,0,0,0-10,87.7l80,229.64a101.73,101.73,0,0,0,62.34,62.5L424.61,794a101.72,101.72,0,0,0,87.73-9.78L718.41,655.12a101.74,101.74,0,0,0,44.25-59.86Z"/><path class="cls-17" d="M747,609.94a98.11,98.11,0,0,1-45.77,55.6l-210.45,117a97.91,97.91,0,0,1-85.25,5L182.88,696a97.93,97.93,0,0,1-57.07-63.53L58.57,401.22A98.4,98.4,0,0,1,72.67,317L211.51,120.27a97.9,97.9,0,0,1,74.63-41.49L526.51,64.67a97.94,97.94,0,0,1,79,32.48l160.9,179.14a97.92,97.92,0,0,1,23.84,82L750.5,595.77A98.3,98.3,0,0,1,747,609.94m2.19.71a100.61,100.61,0,0,0,3.55-14.5l39.74-237.48a100.71,100.71,0,0,0-24.41-83.92L607.21,95.61a100.71,100.71,0,0,0-80.83-33.24L286,76.47a100.75,100.75,0,0,0-76.39,42.47L70.78,315.67a100.66,100.66,0,0,0-14.42,86.19L123.6,633.07a100.71,100.71,0,0,0,58.4,65l222.69,91.58a100.67,100.67,0,0,0,87.24-5.12l210.45-117a100.67,100.67,0,0,0,46.84-56.9Z"/><path class="cls-18" d="M733,624.37A97.07,97.07,0,0,1,684.88,677L470.74,781.74a96.93,96.93,0,0,1-84.55.53L170.75,680.18a96.92,96.92,0,0,1-53.12-65.77L63.12,382.32a97.5,97.5,0,0,1,18.3-82.55L228.89,112.46A96.93,96.93,0,0,1,304.84,75.3l238.4-1.49a97,97,0,0,1,76.4,36.2l149.8,185.46a96.91,96.91,0,0,1,19.33,82.31L737.18,610.53A96.7,96.7,0,0,1,733,624.37m2.14.81A100.91,100.91,0,0,0,739.41,611L791,378.28A99.7,99.7,0,0,0,771.22,294L621.42,108.58a99.72,99.72,0,0,0-78.2-37.06L304.83,73a99.71,99.71,0,0,0-77.73,38L79.63,298.36A99.65,99.65,0,0,0,60.9,382.84l54.5,232.09a99.7,99.7,0,0,0,54.38,67.31l215.43,102.1a99.73,99.73,0,0,0,86.53-.55L685.88,679a99.73,99.73,0,0,0,49.27-53.83Z"/><path class="cls-19" d="M718.41,637.9a96.17,96.17,0,0,1-50.32,49.51L450.93,779.92a96,96,0,0,1-83.63-3.86L159.59,664a96,96,0,0,1-49.13-67.78L68.6,363.87A96.54,96.54,0,0,1,91,283.2L246.49,105.63a96,96,0,0,1,77-32.8L559.3,83.71A96,96,0,0,1,633,123.47L771.47,314.6A96,96,0,0,1,786.32,397L723.24,624.44a96.73,96.73,0,0,1-4.83,13.46m2.07.92A98.08,98.08,0,0,0,725.42,625L788.5,397.59a98.77,98.77,0,0,0-15.2-84.32L634.79,122.14A98.71,98.71,0,0,0,559.4,81.45L323.61,70.57a98.71,98.71,0,0,0-78.82,33.57L89.27,281.71a98.74,98.74,0,0,0-22.89,82.56l41.86,232.3a98.72,98.72,0,0,0,50.27,69.37L366.23,778.05a98.74,98.74,0,0,0,85.58,4L669,689.49a98.71,98.71,0,0,0,51.51-50.67Z"/><path class="cls-20" d="M703.27,650.53A95.26,95.26,0,0,1,651,696.87L431.44,777.08A95,95,0,0,1,349,768.93L149.39,647.33a95,95,0,0,1-45.06-69.57L75,345.91a95.46,95.46,0,0,1,26.29-78.6l163-167.51a95.06,95.06,0,0,1,77.85-28.45l232.57,23a95,95,0,0,1,70.78,43.13l127,196.15a95,95,0,0,1,10.41,82.23L708.74,637.47a96.34,96.34,0,0,1-5.47,13.06m2,1a98.36,98.36,0,0,0,5.61-13.36L785,416.55a97.77,97.77,0,0,0-10.66-84.16l-127-196.15A97.73,97.73,0,0,0,574.88,92.1l-232.57-23a97.77,97.77,0,0,0-79.67,29.12l-163,167.51a97.78,97.78,0,0,0-26.92,80.44L102.11,578a97.75,97.75,0,0,0,46.11,71.2L347.79,770.85a97.76,97.76,0,0,0,84.42,8.34L651.71,699a97.75,97.75,0,0,0,53.55-47.44Z"/><path class="cls-21" d="M687.64,662.23a94.28,94.28,0,0,1-54.13,43.11l-221.2,67.93a94.06,94.06,0,0,1-81.13-12.33l-191-130.58a94.06,94.06,0,0,1-40.94-71.12l-17-230.76a94.51,94.51,0,0,1,30.07-76.35L282.09,95a94.1,94.1,0,0,1,78.45-24.09L589.3,105.62a94.08,94.08,0,0,1,67.75,46.32L772.5,352.47a94.08,94.08,0,0,1,6,81.84L693.73,649.6a95.28,95.28,0,0,1-6.09,12.63m1.92,1.11a95.62,95.62,0,0,0,6.23-12.93l84.8-215.29a96.75,96.75,0,0,0-6.17-83.76L659,150.83a96.77,96.77,0,0,0-69.33-47.4L360.87,68.67a96.77,96.77,0,0,0-80.28,24.65L110.78,250.5A96.71,96.71,0,0,0,80,328.64L97,559.41a96.75,96.75,0,0,0,41.9,72.78l191,130.58a96.8,96.8,0,0,0,83,12.62l221.19-67.93a96.81,96.81,0,0,0,55.4-44.12Z"/><path class="cls-22" d="M671.58,673a93.34,93.34,0,0,1-55.75,39.82L393.6,768.51A93.15,93.15,0,0,1,314,752.12l-182.1-139a93.16,93.16,0,0,1-36.8-72.44l-4.86-229A93.67,93.67,0,0,1,124,237.69L300,91.08a93.15,93.15,0,0,1,78.81-19.76L603.2,117.55a93.18,93.18,0,0,1,64.58,49.3L771.54,371.11a93.12,93.12,0,0,1,1.72,81.23l-95,208.47A94.07,94.07,0,0,1,671.58,673m1.84,1.19a95,95,0,0,0,6.84-12.46l95-208.47a95.87,95.87,0,0,0-1.76-83.14L669.74,165.86a95.86,95.86,0,0,0-66.1-50.46L379.25,69.17a95.85,95.85,0,0,0-80.66,20.22L122.55,236a95.83,95.83,0,0,0-34.48,75.67l4.86,229.05a95.79,95.79,0,0,0,37.66,74.13l182.1,139a95.82,95.82,0,0,0,81.45,16.78l222.22-55.7a95.83,95.83,0,0,0,57.06-40.76Z"/><path class="cls-23" d="M655.15,682.79A92.46,92.46,0,0,1,598,719.28L375.35,762.84a92.2,92.2,0,0,1-77.83-20.34L124.66,595.62A92.24,92.24,0,0,1,92,522.09L99.1,295.37A92.64,92.64,0,0,1,136.24,224L317.9,88.18a92.24,92.24,0,0,1,79-15.45l219.46,57.34a92.25,92.25,0,0,1,61.31,52.09l92,207.33a92.24,92.24,0,0,1-2.5,80.41L662.38,671.1a92.38,92.38,0,0,1-7.23,11.69m1.76,1.28a94.82,94.82,0,0,0,7.4-12L769.05,470.9a94.89,94.89,0,0,0,2.56-82.29l-92-207.33A94.88,94.88,0,0,0,616.86,128L397.4,70.63a94.87,94.87,0,0,0-80.8,15.81L134.94,222.28a94.86,94.86,0,0,0-38,73L89.86,522a94.87,94.87,0,0,0,33.4,75.26L296.11,744.16A94.85,94.85,0,0,0,375.77,765l222.6-43.56a94.91,94.91,0,0,0,58.54-37.34Z"/><path class="cls-24" d="M638.39,691.63A91.41,91.41,0,0,1,580,724.74L357.6,756.28a91.3,91.3,0,0,1-75.91-24.14L118.4,578a91.32,91.32,0,0,1-28.46-74.39l18.74-223.81a91.75,91.75,0,0,1,40.42-68.63L335.75,86.24a91.3,91.3,0,0,1,78.86-11.18l214,68.06a91.31,91.31,0,0,1,57.91,54.68l80.23,209.77a91.32,91.32,0,0,1-6.65,79.37l-114,193.51a91.7,91.7,0,0,1-7.76,11.18m1.68,1.36A94.78,94.78,0,0,0,648,681.54L762,488a94,94,0,0,0,6.8-81.23L688.56,197a93.93,93.93,0,0,0-59.27-56L415.27,73a93.94,93.94,0,0,0-80.71,11.44L147.9,209.35a93.93,93.93,0,0,0-41.37,70.23L87.8,503.39a93.89,93.89,0,0,0,29.12,76.13L280.21,733.71a94,94,0,0,0,77.69,24.7l222.36-31.54A93.94,93.94,0,0,0,640.07,693Z"/><path class="cls-25" d="M621.37,699.51a90.63,90.63,0,0,1-59.5,29.71L340.38,748.88a90.45,90.45,0,0,1-73.8-27.8L113.11,560.17a90.43,90.43,0,0,1-24.27-75L119,264.83a90.84,90.84,0,0,1,43.52-65.77l191-113.81a90.4,90.4,0,0,1,78.56-7l208.08,78.38a90.43,90.43,0,0,1,54.43,57.07L763,425.29a90.4,90.4,0,0,1-10.68,78.14L629.62,688.85a91.59,91.59,0,0,1-8.25,10.66m1.58,1.42a92,92,0,0,0,8.44-10.9L754.12,504.6a93,93,0,0,0,10.93-80L696.6,213.08a93,93,0,0,0-55.71-58.41L432.81,76.28a93,93,0,0,0-80.4,7.14l-191,113.82a93,93,0,0,0-44.55,67.3L86.73,484.85a93,93,0,0,0,24.84,76.79L265,722.55A93,93,0,0,0,340.57,751l221.49-19.66A93,93,0,0,0,623,700.93Z"/><path class="cls-26" d="M604.13,706.41a89.67,89.67,0,0,1-60.37,26.29l-220,8a89.53,89.53,0,0,1-71.52-31.31L108.81,542.31A89.57,89.57,0,0,1,88.7,466.86l41.19-216.27a90,90,0,0,1,46.45-62.77L371.11,85.19a89.49,89.49,0,0,1,78-2.82l201.68,88.28a89.57,89.57,0,0,1,50.86,59.25L758.4,442.62a89.56,89.56,0,0,1-14.61,76.71l-131,177a90.19,90.19,0,0,1-8.7,10.11m1.49,1.49a92,92,0,0,0,8.91-10.34l131-177a92.09,92.09,0,0,0,14.95-78.5L703.71,229.35a92.08,92.08,0,0,0-52.05-60.63L450,80.43a92.14,92.14,0,0,0-79.86,2.89L175.35,186a92.1,92.1,0,0,0-47.53,64.24L86.63,466.47a92.07,92.07,0,0,0,20.58,77.21L250.62,710.73a92.06,92.06,0,0,0,73.2,32l220-8a92.1,92.1,0,0,0,61.79-26.91Z"/><path class="cls-27" d="M586.72,712.35a88.79,88.79,0,0,1-61.05,22.86l-217.95-3.52A88.66,88.66,0,0,1,238.62,697L105.49,524.42a88.64,88.64,0,0,1-16-75.64l51.94-211.7a89.05,89.05,0,0,1,49.17-59.65L388.52,86a88.64,88.64,0,0,1,77.29,1.25L660.65,185a88.59,88.59,0,0,1,47.21,61.21l45.06,213.27A88.63,88.63,0,0,1,734.5,534.6L595.85,702.8a88.61,88.61,0,0,1-9.13,9.55m1.4,1.55a92,92,0,0,0,9.35-9.77l138.64-168.2A91.19,91.19,0,0,0,755,459.09L709.91,245.82a91.17,91.17,0,0,0-48.33-62.65L466.75,85.43a91.13,91.13,0,0,0-79.11-1.28l-197.9,91.38a91.19,91.19,0,0,0-50.32,61.05L87.48,448.29a91.21,91.21,0,0,0,16.35,77.41L237,698.3a91.15,91.15,0,0,0,70.71,35.47l218,3.53a91.19,91.19,0,0,0,62.48-23.4Z"/><path class="cls-28" d="M569.2,717.31a88,88,0,0,1-61.55,19.45L292.34,722a87.71,87.71,0,0,1-66.52-37.85L103.13,506.56A87.72,87.72,0,0,1,91.25,431l62.32-206.63a88.17,88.17,0,0,1,51.71-56.43l200.4-80.1A87.75,87.75,0,0,1,482,93L669.62,199.77a87.75,87.75,0,0,1,43.51,63l33.5,213.2a87.77,87.77,0,0,1-22.1,73.29L578.73,708.35a88.71,88.71,0,0,1-9.53,9m1.3,1.61a90.74,90.74,0,0,0,9.75-9.18L726.06,550.62a90.28,90.28,0,0,0,22.62-75l-33.5-213.2A90.3,90.3,0,0,0,670.64,198L483.07,91.23a90.28,90.28,0,0,0-78.15-5.36L204.51,166a90.3,90.3,0,0,0-52.92,57.76L89.27,430.35a90.25,90.25,0,0,0,12.16,77.39L224.11,685.29A90.26,90.26,0,0,0,292.2,724l215.31,14.78a90.29,90.29,0,0,0,63-19.9Z"/><path class="cls-29" d="M551.63,721.31a87.11,87.11,0,0,1-61.87,16L277.64,711.58a87,87,0,0,1-63.82-40.88L101.72,488.79a86.86,86.86,0,0,1-7.83-75.38l72.33-201.07a87.26,87.26,0,0,1,54.05-53.12L422.57,90.4a86.9,86.9,0,0,1,75.23,9.14L677.73,214.8a86.88,86.88,0,0,1,39.76,64.52l22.08,212.54a86.91,86.91,0,0,1-25.65,71.31L561.51,712.94a88.49,88.49,0,0,1-9.88,8.37m1.2,1.66a90,90,0,0,0,10.11-8.57L715.35,564.63a89.38,89.38,0,0,0,26.25-73L719.53,279.1a89.38,89.38,0,0,0-40.69-66L498.9,97.82a89.37,89.37,0,0,0-77-9.36l-202.3,68.82a89.33,89.33,0,0,0-55.32,54.36L92,412.71a89.38,89.38,0,0,0,8,77.15L212.08,671.77a89.37,89.37,0,0,0,65.31,41.84l212.13,25.77A89.39,89.39,0,0,0,552.83,723Z"/><path class="cls-30" d="M534,724.36A86.24,86.24,0,0,1,472,737l-208.4-36.48a86,86,0,0,1-61-43.72L101.24,471.14a86.05,86.05,0,0,1-3.83-74.94l81.93-195.06a86.49,86.49,0,0,1,56.2-49.72L439.13,93.86A86,86,0,0,1,513,106.8L685,230.08a86,86,0,0,1,36,65.85l10.81,211.29a86,86,0,0,1-29,69.18L544.24,716.59a87.38,87.38,0,0,1-10.2,7.77m1.1,1.7a88.32,88.32,0,0,0,10.45-7.95L704,577.92a88.51,88.51,0,0,0,29.74-70.8L723,295.83a88.48,88.48,0,0,0-36.81-67.4L514.22,105.15a88.51,88.51,0,0,0-75.65-13.24L235,149.47a88.53,88.53,0,0,0-57.52,50.89L95.54,395.41a88.51,88.51,0,0,0,3.92,76.7L200.88,657.78a88.48,88.48,0,0,0,62.41,44.75L471.69,739a88.46,88.46,0,0,0,63.45-12.94Z"/><path class="cls-31" d="M516.49,726.45a85.27,85.27,0,0,1-61.95,9.3L250.37,688.89a85.14,85.14,0,0,1-58-46.39L101.69,453.66a85.16,85.16,0,0,1,.09-74.29L192.9,190.75A85.68,85.68,0,0,1,251,144.5L455.32,98.14a85.19,85.19,0,0,1,72.41,16.62L691.34,245.57a85.19,85.19,0,0,1,32.15,67L723.23,522a85.19,85.19,0,0,1-32.31,66.9L527,719.31a85,85,0,0,1-10.49,7.14m1,1.74a87.92,87.92,0,0,0,10.73-7.31l163.94-130.4A87.64,87.64,0,0,0,725.24,522l.26-209.47A87.62,87.62,0,0,0,692.59,244L529,113.19a87.63,87.63,0,0,0-74.11-17L250.59,142.55a87.6,87.6,0,0,0-59.5,47.33L100,378.5a87.64,87.64,0,0,0-.09,76l90.66,188.84a87.61,87.61,0,0,0,59.38,47.48l204.17,46.86a87.62,87.62,0,0,0,63.41-9.52Z"/><path class="cls-32" d="M499,727.62a84.46,84.46,0,0,1-61.74,6L237.86,676.69a84.32,84.32,0,0,1-55-48.88L103,436.4A84.33,84.33,0,0,1,107,363l99.86-181.77a84.77,84.77,0,0,1,59.89-42.71l204.38-35.26a84.33,84.33,0,0,1,70.73,20.19l155,137.81a84.31,84.31,0,0,1,28.32,67.88L714,536.19a84.34,84.34,0,0,1-35.42,64.47L509.78,721.1A85.22,85.22,0,0,1,499,727.62m.91,1.77a86.75,86.75,0,0,0,11-6.67L679.78,602.28a86.74,86.74,0,0,0,36.24-66l11.11-207.1a86.73,86.73,0,0,0-29-69.48l-155-137.81a86.79,86.79,0,0,0-72.39-20.66L266.39,136.51a86.74,86.74,0,0,0-61.29,43.71L105.24,362a86.73,86.73,0,0,0-4,75.17l79.85,191.41a86.76,86.76,0,0,0,56.26,50l199.44,56.91a86.75,86.75,0,0,0,63.19-6.12Z"/><path class="cls-33" d="M481.71,727.87a83.68,83.68,0,0,1-61.35,2.72L226.11,664A83.5,83.5,0,0,1,174.3,612.8l-69-193.39A83.51,83.51,0,0,1,113,347L221.13,172.44a83.84,83.84,0,0,1,61.42-39.13L486.45,109a83.53,83.53,0,0,1,68.89,23.62L701.45,277a83.44,83.44,0,0,1,24.48,68.58l-21.71,204.2a83.51,83.51,0,0,1-38.36,61.9L492.67,722a84.31,84.31,0,0,1-11,5.89m.8,1.8a86.07,86.07,0,0,0,11.22-6L666.92,613.3A85.87,85.87,0,0,0,706.17,550l21.72-204.2a85.88,85.88,0,0,0-25.06-70.19l-146.1-144.3a85.92,85.92,0,0,0-70.51-24.17L282.31,131.36a85.89,85.89,0,0,0-62.86,40L111.29,346a85.89,85.89,0,0,0-7.88,74.11l69,193.4a85.92,85.92,0,0,0,53,52.37l194.24,66.61a85.91,85.91,0,0,0,62.79-2.78Z"/><path class="cls-34" d="M464.57,727.22a82.8,82.8,0,0,1-60.8-.5L215.16,650.8a82.68,82.68,0,0,1-48.58-53.28l-58.23-194.8a82.67,82.67,0,0,1,11.36-71.2l116-167A83.12,83.12,0,0,1,298.46,129L501.33,115.6a82.69,82.69,0,0,1,66.89,26.93l137,150.24a82.68,82.68,0,0,1,20.66,69.08L693.8,562.62a82.67,82.67,0,0,1-41.13,59.22L475.72,722a83.39,83.39,0,0,1-11.15,5.26m.7,1.82a86.36,86.36,0,0,0,11.4-5.38l177-100.12a85.08,85.08,0,0,0,42.1-60.61l32-200.77a85,85,0,0,0-21.14-70.71l-137-150.23a85,85,0,0,0-68.46-27.56L298.33,127.09a85,85,0,0,0-64.23,36.34l-116,167a85.06,85.06,0,0,0-11.63,72.87l58.23,194.8a85.09,85.09,0,0,0,49.73,54.53L403,728.53a85.08,85.08,0,0,0,62.23.51Z"/><path class="cls-35" d="M447.66,725.69a82.06,82.06,0,0,1-60.1-3.64L205,637.2A81.84,81.84,0,0,1,159.74,582L112.26,386.39a81.85,81.85,0,0,1,14.93-69.82L250.52,157.48a82.28,82.28,0,0,1,63.89-31.86l201.28-2.76A81.82,81.82,0,0,1,580.43,153L708.09,308.59A81.84,81.84,0,0,1,724.93,378L682.84,574.82a81.86,81.86,0,0,1-43.74,56.42L459,721.07a83.32,83.32,0,0,1-11.29,4.62m.6,1.83a85.18,85.18,0,0,0,11.55-4.73L640,633a84.19,84.19,0,0,0,44.76-57.75l42.1-196.85a84.19,84.19,0,0,0-17.24-71L581.93,151.73a84.19,84.19,0,0,0-66.26-30.8L314.39,123.7A84.19,84.19,0,0,0,249,156.3L125.66,315.39a84.21,84.21,0,0,0-15.28,71.45l47.49,195.62A84.19,84.19,0,0,0,204.2,639L386.75,723.8a84.21,84.21,0,0,0,61.51,3.72Z"/><path class="cls-36" d="M431,723.29a81.18,81.18,0,0,1-59.23-6.71l-176.1-93.34a81,81,0,0,1-41.9-56.93L117,370.43a81.07,81.07,0,0,1,18.38-68.25L265.54,151.27a81.52,81.52,0,0,1,64.82-28.19l199.16,7.7A81,81,0,0,1,592,163.89l118.16,160.5a81.05,81.05,0,0,1,13.06,69.47L671.37,586.31a81.06,81.06,0,0,1-46.18,53.52L442.42,719.31a82.3,82.3,0,0,1-11.4,4m.49,1.85a82.83,82.83,0,0,0,11.67-4.08L626,641.58a83.34,83.34,0,0,0,47.26-54.77L725,394.36a83.36,83.36,0,0,0-13.36-71.1L593.51,162.75a83.36,83.36,0,0,0-63.91-33.88l-199.16-7.69A83.31,83.31,0,0,0,264.1,150L133.91,300.93a83.34,83.34,0,0,0-18.81,69.86l36.81,195.87a83.35,83.35,0,0,0,42.89,58.26l176.09,93.35a83.42,83.42,0,0,0,60.62,6.87Z"/><path class="cls-37" d="M414.68,720.07a80.4,80.4,0,0,1-58.21-9.71L187.19,608.94a80.22,80.22,0,0,1-38.48-58.45L122.46,354.91a80.26,80.26,0,0,1,21.71-66.54L280.71,145.91a80.68,80.68,0,0,1,65.56-24.51l196.51,17.93a80.23,80.23,0,0,1,60,36L711.33,340.12a80.27,80.27,0,0,1,9.31,69.36l-61.21,187.6A80.26,80.26,0,0,1,611,647.61L426.16,716.72a81.57,81.57,0,0,1-11.48,3.35m.4,1.85a83.74,83.74,0,0,0,11.75-3.43l184.83-69.11a82.54,82.54,0,0,0,49.56-51.71l61.21-187.6a82.55,82.55,0,0,0-9.52-71L604.4,174.26A82.55,82.55,0,0,0,543,137.45L346.44,119.52a82.53,82.53,0,0,0-67.09,25.08L142.8,287.06a82.56,82.56,0,0,0-22.21,68.1l26.25,195.58a82.52,82.52,0,0,0,39.38,59.82L355.5,712a82.54,82.54,0,0,0,59.58,9.94Z"/><path class="cls-38" d="M398.7,716a79.57,79.57,0,0,1-57.05-12.61l-162.12-109a79.45,79.45,0,0,1-35-59.79L128.69,339.84a79.44,79.44,0,0,1,24.91-64.66L296,141.39a79.84,79.84,0,0,1,66.09-20.83l193.37,27.91A79.43,79.43,0,0,1,613,187.14l98.74,168.59a79.41,79.41,0,0,1,5.61,69.07L647.06,607.11a79.42,79.42,0,0,1-50.5,47.45L410.23,713.32A81.45,81.45,0,0,1,398.7,716m.3,1.85a81.31,81.31,0,0,0,11.79-2.78l186.34-58.76a81.69,81.69,0,0,0,51.68-48.55l70.24-182.32a81.74,81.74,0,0,0-5.74-70.69L614.56,186.2a81.74,81.74,0,0,0-58.84-39.59L362.34,118.7A81.74,81.74,0,0,0,294.71,140L152.32,273.81A81.72,81.72,0,0,0,126.83,340l15.81,194.74a81.73,81.73,0,0,0,35.85,61.19L340.6,705A81.72,81.72,0,0,0,399,717.88Z"/><path class="cls-39" d="M383.11,711.21a78.82,78.82,0,0,1-55.76-15.43L172.71,579.56a78.7,78.7,0,0,1-31.53-60.93l-5.55-193.37a78.7,78.7,0,0,1,28-62.64l147.72-124.9a79,79,0,0,1,66.42-17.18l189.76,37.62a78.65,78.65,0,0,1,54.84,41.22l88.9,171.81a78.64,78.64,0,0,1,2,68.57l-78.9,176.63a78.63,78.63,0,0,1-52.39,44.29L394.65,709.12a79.33,79.33,0,0,1-11.54,2.09m.2,1.84a80.08,80.08,0,0,0,11.8-2.13l187.28-48.44A80.91,80.91,0,0,0,636,617.14l78.9-176.62a80.92,80.92,0,0,0-2-70.19L624,198.53a80.94,80.94,0,0,0-56.13-42.19L378.11,118.72a80.9,80.9,0,0,0-68,17.59L162.42,261.21a80.86,80.86,0,0,0-28.64,64.1l5.55,193.37A80.91,80.91,0,0,0,171.6,581L326.24,697.26a80.93,80.93,0,0,0,57.07,15.79Z"/><path class="cls-40" d="M368,705.64a78.08,78.08,0,0,1-54.34-18.15L166.74,564.57a77.85,77.85,0,0,1-28-61.88l4.53-191.48a77.92,77.92,0,0,1,30.91-60.49L326.69,134.88a78.29,78.29,0,0,1,66.57-13.54l185.66,47A77.86,77.86,0,0,1,631,212l79,174.48a77.9,77.9,0,0,1-1.61,67.91L621.24,624.9A77.86,77.86,0,0,1,567.14,666L379.46,704.17A79.81,79.81,0,0,1,368,705.64m.09,1.83a80.08,80.08,0,0,0,11.78-1.5l187.69-38.19a80.1,80.1,0,0,0,55.36-42L710,455.19a80.12,80.12,0,0,0,1.65-69.5l-79-174.48a80.07,80.07,0,0,0-53.31-44.62l-185.66-47a80.16,80.16,0,0,0-68.13,13.86L173.05,249.26a80.11,80.11,0,0,0-31.63,61.91l-4.53,191.47A80.07,80.07,0,0,0,165.56,566L312.43,688.9A80.16,80.16,0,0,0,368,707.47Z"/><path class="cls-41" d="M353.24,699.34a77.27,77.27,0,0,1-52.78-20.75L161.6,549.43a77.12,77.12,0,0,1-24.49-62.63l14.4-189.09a77.12,77.12,0,0,1,33.7-58.2L342,132.88a77.5,77.5,0,0,1,66.52-9.95l181.14,56.12a77.09,77.09,0,0,1,49.24,45.81L708,401.47a77.09,77.09,0,0,1-5.11,67.06l-95,164.11a77.08,77.08,0,0,1-55.61,37.81l-187.55,28a78.51,78.51,0,0,1-11.46.85m0,1.82a78.6,78.6,0,0,0,11.73-.88l187.55-28a79.34,79.34,0,0,0,56.92-38.7l95-164.11a79.33,79.33,0,0,0,5.23-68.64L640.62,224.19a79.29,79.29,0,0,0-50.4-46.87L409.08,121.2A79.27,79.27,0,0,0,341,131.37L184.19,238a79.29,79.29,0,0,0-34.49,59.56L135.3,486.66a79.28,79.28,0,0,0,25.07,64.1L299.22,679.92a79.35,79.35,0,0,0,54,21.24Z"/><path class="cls-42" d="M339,692.35a76.54,76.54,0,0,1-51.11-23.25L157.31,534.2a76.35,76.35,0,0,1-21-63.2l24-186.21A76.34,76.34,0,0,1,196.72,229l160.57-97.31a76.75,76.75,0,0,1,66.28-6.38l176.19,64.87A76.37,76.37,0,0,1,646.08,238l59.14,178.2a76.35,76.35,0,0,1-8.53,66L594.24,639.59a76.35,76.35,0,0,1-57,34.51l-186.89,18a75.87,75.87,0,0,1-11.38.25m-.09,1.8a78.18,78.18,0,0,0,11.64-.26l186.89-18a78.57,78.57,0,0,0,58.29-35.31L698.2,483.24a78.53,78.53,0,0,0,8.72-67.59l-59.13-178.2a78.56,78.56,0,0,0-47.4-49l-176.2-64.87a78.49,78.49,0,0,0-67.83,6.54l-160.58,97.3a78.54,78.54,0,0,0-37.18,57.11l-24,186.21A78.54,78.54,0,0,0,156,535.45l130.6,134.9a78.53,78.53,0,0,0,52.31,23.8Z"/><path class="cls-43" d="M325.33,684.71A75.76,75.76,0,0,1,276,659.06L153.86,518.92a75.57,75.57,0,0,1-17.46-63.57l33.42-182.87a75.57,75.57,0,0,1,38.82-53.29l163.8-87.89a75.91,75.91,0,0,1,65.87-2.88l170.85,73.27a75.57,75.57,0,0,1,43.31,49.7l49.24,179.26a75.6,75.6,0,0,1-11.85,64.86L580.41,645.77a75.63,75.63,0,0,1-58.1,31.17l-185.72,8.11a77,77,0,0,1-11.26-.34m-.19,1.77a77.71,77.71,0,0,0,11.53.35l185.72-8.11a77.82,77.82,0,0,0,59.46-31.9L691.3,496.56a77.8,77.8,0,0,0,12.13-66.38L654.19,250.92a77.76,77.76,0,0,0-44.33-50.87L439,126.78a77.71,77.71,0,0,0-67.41,2.95L207.79,217.62a77.72,77.72,0,0,0-39.72,54.54L134.65,455a77.72,77.72,0,0,0,17.87,65.06L274.66,660.23a77.76,77.76,0,0,0,50.48,26.25Z"/><path class="cls-44" d="M312.19,676.44a75,75,0,0,1-47.45-27.91l-113.5-144.9a74.81,74.81,0,0,1-14-63.76l42.52-179.08a74.82,74.82,0,0,1,41.14-50.68L387.45,131.7a75.21,75.21,0,0,1,65.27.57l165.13,81.3A74.86,74.86,0,0,1,658.1,265l39.39,179.8a74.84,74.84,0,0,1-15.07,63.51l-116,142.89A74.83,74.83,0,0,1,507.35,679l-184-1.6a75.12,75.12,0,0,1-11.11-.92m-.28,1.74a76.85,76.85,0,0,0,11.38.94l184,1.61a77,77,0,0,0,60.44-28.47l116-142.89a77,77,0,0,0,15.44-65l-39.4-179.79A77,77,0,0,0,618.63,212L453.5,130.69a77,77,0,0,0-66.8-.59L220.18,208.52a77,77,0,0,0-42.11,51.86L135.55,439.46a77,77,0,0,0,14.3,65.26l113.5,144.89a77,77,0,0,0,48.56,28.57Z"/><path class="cls-45" d="M299.62,667.58a74.31,74.31,0,0,1-45.47-30.05L149.44,488.38a74.09,74.09,0,0,1-10.51-63.77l51.32-174.86a74.08,74.08,0,0,1,43.3-48l168.71-68.91a74.44,74.44,0,0,1,64.51,3.95l159.06,88.94A74.07,74.07,0,0,1,663,278.65L692.6,458.46a74.14,74.14,0,0,1-18.2,62L552.29,655.75a74.1,74.1,0,0,1-59.83,24.44l-181.9-11.12a76.11,76.11,0,0,1-10.94-1.49m-.36,1.71a75.63,75.63,0,0,0,11.2,1.52l181.89,11.12a76.22,76.22,0,0,0,61.24-25l122.1-135.27a76.24,76.24,0,0,0,18.63-63.47L664.69,278.37a76.25,76.25,0,0,0-38-54.13l-159.06-89a76.28,76.28,0,0,0-66-4l-168.71,68.9a76.25,76.25,0,0,0-44.32,49.1L137.26,424.12A76.18,76.18,0,0,0,148,489.38L252.73,638.53a76.26,76.26,0,0,0,46.53,30.76Z"/><path class="cls-46" d="M287.66,658.17a73.53,73.53,0,0,1-43.4-32.07L148.45,473.21a73.39,73.39,0,0,1-7.09-63.6l59.81-170.23a73.35,73.35,0,0,1,45.3-45.19L416.85,134.8a73.74,73.74,0,0,1,63.58,7.25l152.65,96.18a73.35,73.35,0,0,1,34,54.22l20,179.32a73.34,73.34,0,0,1-21.21,60.37L538.09,659.57a73.33,73.33,0,0,1-60.42,21.06L298.4,660.21a73.71,73.71,0,0,1-10.74-2m-.45,1.67a75.87,75.87,0,0,0,11,2.09l179.27,20.42a75.46,75.46,0,0,0,61.84-21.55L667.05,533.37a75.48,75.48,0,0,0,21.71-61.79l-20-179.32A75.45,75.45,0,0,0,634,236.77L481.35,140.58a75.52,75.52,0,0,0-65.07-7.41L245.9,192.55a75.5,75.5,0,0,0-46.37,46.26L139.73,409A75.47,75.47,0,0,0,147,474.13L242.79,627a75.49,75.49,0,0,0,44.42,32.82Z"/><path class="cls-47" d="M276.31,648.25a72.76,72.76,0,0,1-41.24-34L148.26,458.15a72.61,72.61,0,0,1-3.71-63.24L212.5,229.69a72.64,72.64,0,0,1,47.13-42.34l171.54-49.88a73.06,73.06,0,0,1,62.49,10.45l146,103a72.65,72.65,0,0,1,30.79,55.38l10.46,178.33a72.62,72.62,0,0,1-24.1,58.6L523.86,662.61A72.65,72.65,0,0,1,463,680.3L286.83,650.82a73,73,0,0,1-10.52-2.57m-.53,1.63a76.23,76.23,0,0,0,10.77,2.63L462.74,682A74.71,74.71,0,0,0,525,663.88L657.91,544.51a74.75,74.75,0,0,0,24.66-60L672.1,306.21a74.72,74.72,0,0,0-31.5-56.68l-146-103a74.76,74.76,0,0,0-63.95-10.7L259.15,185.71A74.74,74.74,0,0,0,210.91,229L143,394.26A74.72,74.72,0,0,0,146.76,459l86.81,156.13a74.77,74.77,0,0,0,42.21,34.76Z"/><path class="cls-48" d="M265.61,637.85a72,72,0,0,1-39-35.71L148.85,443.26a71.92,71.92,0,0,1-.39-62.73L224.2,220.7A71.92,71.92,0,0,1,273,181.28l172.19-40.44a72.25,72.25,0,0,1,61.24,13.58l139,109.41A71.94,71.94,0,0,1,673,320.18l1.1,176.87a71.94,71.94,0,0,1-26.86,56.69L509.63,664.88a71.92,71.92,0,0,1-61.07,14.34L275.88,640.94a71.84,71.84,0,0,1-10.27-3.09m-.61,1.58a73.64,73.64,0,0,0,10.51,3.16l172.68,38.28a74,74,0,0,0,62.5-14.67L648.28,555.05a74,74,0,0,0,27.5-58l-1.11-176.87a74,74,0,0,0-28.21-57.67l-139-109.41a74,74,0,0,0-62.68-13.9L272.61,179.63A74,74,0,0,0,222.67,220L146.93,379.81a73.92,73.92,0,0,0,.4,64.19l77.74,158.88A74,74,0,0,0,265,639.43Z"/><path class="cls-49" d="M255.57,627a71.33,71.33,0,0,1-36.73-37.33L150.21,428.56a71.16,71.16,0,0,1,2.86-62l83.17-154.11A71.21,71.21,0,0,1,286.53,176l172.35-31.06a71.56,71.56,0,0,1,59.85,16.59L650.47,276.89A71.2,71.2,0,0,1,674.81,334L666.74,509a71.19,71.19,0,0,1-29.5,54.66L495.44,666.38a71.25,71.25,0,0,1-61.13,11L265.56,630.6a70.34,70.34,0,0,1-10-3.59m-.68,1.54a74.33,74.33,0,0,0,10.22,3.67L433.86,679a73.24,73.24,0,0,0,62.56-11.27L638.22,565A73.2,73.2,0,0,0,668.41,509l8.08-174.94a73.32,73.32,0,0,0-24.91-58.48L519.84,160.24a73.28,73.28,0,0,0-61.26-17L286.24,174.31a73.27,73.27,0,0,0-51.47,37.3L151.59,365.73a73.25,73.25,0,0,0-2.93,63.49l68.63,161.12a73.29,73.29,0,0,0,37.6,38.21Z"/><path class="cls-50" d="M246.2,615.78A70.6,70.6,0,0,1,211.82,577L152.31,414.1a70.49,70.49,0,0,1,6-61.19l90.23-148.07a70.5,70.5,0,0,1,51.61-33.43l172-21.77a70.82,70.82,0,0,1,58.31,19.51L654.8,290.06a70.47,70.47,0,0,1,21.1,57.75l-17,172.55a70.51,70.51,0,0,1-32,52.52L481.33,667.13a70.52,70.52,0,0,1-61,7.73l-164.43-55a70.33,70.33,0,0,1-9.69-4.06m-.75,1.48a72.73,72.73,0,0,0,9.91,4.16l164.43,55a72.53,72.53,0,0,0,62.44-7.9l145.53-94.26a72.52,72.52,0,0,0,32.75-53.74l17-172.55A72.51,72.51,0,0,0,656,288.87L531.68,168A72.47,72.47,0,0,0,472,148L300,169.77A72.49,72.49,0,0,0,247.16,204L156.93,352a72.52,72.52,0,0,0-6.18,62.63l59.51,162.86a72.5,72.5,0,0,0,35.19,39.73Z"/><path class="cls-51" d="M237.52,604.19a70,70,0,0,1-32-40.17l-50.4-164.1a69.83,69.83,0,0,1,9.15-60.2L261.16,198a69.81,69.81,0,0,1,52.77-30.38L485.14,155a70.12,70.12,0,0,1,56.64,22.31l116.62,126a69.81,69.81,0,0,1,17.87,58.2L650.48,531.23a69.8,69.8,0,0,1-34.36,50.26L467.34,667.14a69.78,69.78,0,0,1-60.72,4.48L246.89,608.71a70.85,70.85,0,0,1-9.37-4.52m-.82,1.42a72.43,72.43,0,0,0,9.59,4.63L406,673.15a71.81,71.81,0,0,0,62.14-4.58l148.78-85.65a71.81,71.81,0,0,0,35.16-51.44l25.8-169.73a71.79,71.79,0,0,0-18.3-59.56L543,176.2a71.8,71.8,0,0,0-58-22.84L313.81,166a71.8,71.8,0,0,0-54,31.09L162.92,338.79a71.84,71.84,0,0,0-9.36,61.61L204,564.51a71.86,71.86,0,0,0,32.74,41.1Z"/><path class="cls-52" d="M229.54,592.27A69.28,69.28,0,0,1,200,550.91L158.66,386a69.15,69.15,0,0,1,12.17-59L274,191.88a69.11,69.11,0,0,1,53.75-27.3L497.64,161a69.51,69.51,0,0,1,54.86,25L661.27,316.59a69.13,69.13,0,0,1,14.66,58.47l-34.3,166.48a69.1,69.1,0,0,1-36.58,47.91l-151.54,77a69.1,69.1,0,0,1-60.27,1.28L238.57,597.23a68.83,68.83,0,0,1-9-5m-.89,1.37a71.25,71.25,0,0,0,9.25,5.07l154.67,70.48a71.1,71.1,0,0,0,61.68-1.31l151.54-77a71.08,71.08,0,0,0,37.43-49l34.3-166.47a71.09,71.09,0,0,0-15-59.85L553.75,184.93a71.07,71.07,0,0,0-56.14-25.58L327.67,163a71.1,71.1,0,0,0-55,28L169.53,326a71.1,71.1,0,0,0-12.44,60.43L198.41,551.3a71.09,71.09,0,0,0,30.24,42.34Z"/><path class="cls-53" d="M222.27,580.08a68.56,68.56,0,0,1-27.07-42.43L162.88,372.49A68.41,68.41,0,0,1,178,314.74l109-128.24a68.44,68.44,0,0,1,54.55-24.21l168.21,5.24a68.8,68.8,0,0,1,52.94,27.56L663.42,329.87a68.45,68.45,0,0,1,11.46,58.57L632.34,551.27a68.42,68.42,0,0,1-38.65,45.48L439.87,665a68.43,68.43,0,0,1-59.66-1.86l-149.27-77.7a69.54,69.54,0,0,1-8.67-5.37m-1,1.31a71,71,0,0,0,8.87,5.49l149.28,77.7a70.38,70.38,0,0,0,61,1.9l153.83-68.26a70.38,70.38,0,0,0,39.55-46.54l42.54-162.83a70.38,70.38,0,0,0-11.73-60L563.93,194.12a70.36,70.36,0,0,0-54.18-28.2l-168.21-5.24a70.36,70.36,0,0,0-55.83,24.78l-109,128.24a70.41,70.41,0,0,0-15.44,59.1L193.61,538a70.39,70.39,0,0,0,27.71,43.43Z"/><path class="cls-54" d="M215.7,567.65a67.89,67.89,0,0,1-24.56-43.36l-23.4-165A67.75,67.75,0,0,1,185.65,303L300,181.85a67.77,67.77,0,0,1,55.2-21.11l166,13.9a68.1,68.1,0,0,1,50.92,30l92.66,138.48a67.78,67.78,0,0,1,8.3,58.51l-50.5,158.79a67.8,67.8,0,0,1-40.57,43L426.46,662.9A67.77,67.77,0,0,1,367.57,658L224,573.4a67.77,67.77,0,0,1-8.3-5.75m-1,1.24a69,69,0,0,0,8.49,5.89l143.57,84.56a69.67,69.67,0,0,0,60.27,5l155.63-59.52a69.7,69.7,0,0,0,41.52-44l50.5-158.78a69.7,69.7,0,0,0-8.5-59.88L573.52,203.74a69.7,69.7,0,0,0-52.11-30.69l-166-13.9a69.69,69.69,0,0,0-56.49,21.6L184.49,301.91a69.68,69.68,0,0,0-18.33,57.63l23.4,165a69.69,69.69,0,0,0,25.14,44.37Z"/><path class="cls-55" d="M209.86,555a67.23,67.23,0,0,1-22-44.15L173.23,346.55a67.13,67.13,0,0,1,20.63-54.76L313.24,177.93a67.1,67.1,0,0,1,55.67-18l163.45,22.35a67.33,67.33,0,0,1,48.79,32.29l84.44,141.72a67.07,67.07,0,0,1,5.18,58.28L612.61,569a67.1,67.1,0,0,1-42.34,40.38l-157,50.79a67.09,67.09,0,0,1-58-7.93L217.77,561.14a68.1,68.1,0,0,1-7.91-6.12m-1.06,1.17a69.83,69.83,0,0,0,8.09,6.27l137.58,91a69,69,0,0,0,59.32,8.11l157-50.79a69,69,0,0,0,43.33-41.33l58.16-154.38a69,69,0,0,0-5.3-59.65L582.51,213.75a69,69,0,0,0-49.93-33.05L369.12,158.35a69,69,0,0,0-57,18.44L192.77,290.65a69,69,0,0,0-21.11,56L186.24,511a69.06,69.06,0,0,0,22.56,45.18Z"/><path class="cls-56" d="M204.74,542.22a66.5,66.5,0,0,1-19.51-44.78L179.32,334.2a66.41,66.41,0,0,1,23.24-53.06l123.93-106.4a66.4,66.4,0,0,1,56-14.92l160.45,30.56a66.76,66.76,0,0,1,46.57,34.46l76.15,144.5a66.41,66.41,0,0,1,2.09,57.89l-65.5,149.64a66.41,66.41,0,0,1-44,37.73L400.45,656.68a66.42,66.42,0,0,1-56.91-10.84l-131.3-97.15a67,67,0,0,1-7.5-6.47m-1.11,1.11a67.51,67.51,0,0,0,7.68,6.61l131.3,97.16a68.3,68.3,0,0,0,58.24,11.09l157.83-42.08a68.3,68.3,0,0,0,45-38.62l65.51-149.63A68.33,68.33,0,0,0,667,368.61l-76.14-144.5a68.32,68.32,0,0,0-47.66-35.27L382.76,158.28a68.35,68.35,0,0,0-57.29,15.27L201.54,280a68.31,68.31,0,0,0-23.78,54.31l5.91,163.23a68.32,68.32,0,0,0,20,45.84Z"/><path class="cls-57" d="M200.34,529.31a65.9,65.9,0,0,1-17-45.29L186,322.31a65.75,65.75,0,0,1,25.72-51.26l128-98.78a65.78,65.78,0,0,1,56.12-11.85L553,199a66.08,66.08,0,0,1,44.25,36.48L665,382.26a65.77,65.77,0,0,1-.93,57.35L591.56,584.16a65.75,65.75,0,0,1-45.42,35L387.91,652.62A65.75,65.75,0,0,1,332.21,639L207.42,536.09a66.72,66.72,0,0,1-7.08-6.78m-1.15,1a66.9,66.9,0,0,0,7.24,6.93L331.22,640.15a67.68,67.68,0,0,0,57,14l158.23-33.43a67.65,67.65,0,0,0,46.48-35.86L665.46,440.3a67.64,67.64,0,0,0,.95-58.69l-67.8-146.83a67.62,67.62,0,0,0-45.29-37.33L396.25,158.91a67.64,67.64,0,0,0-57.43,12.14L210.76,269.82a67.64,67.64,0,0,0-26.32,52.47L181.82,484a67.63,67.63,0,0,0,17.37,46.36Z"/><path class="cls-58" d="M196.65,516.31a65.21,65.21,0,0,1-14.42-45.66l11-159.75a65.08,65.08,0,0,1,28.09-49.35l131.73-91a65.11,65.11,0,0,1,56.1-8.81L562.41,208a65.46,65.46,0,0,1,41.87,38.36L663.71,395a65.1,65.1,0,0,1-3.89,56.65L580.63,590.82a65.1,65.1,0,0,1-46.72,32.28L375.73,648a65.14,65.14,0,0,1-54.37-16.4L203.3,523.38a65.37,65.37,0,0,1-6.65-7.07m-1.19,1a65.37,65.37,0,0,0,6.81,7.23l118,108.18A67,67,0,0,0,376,649.47l158.18-24.85a67,67,0,0,0,47.81-33l79.2-139.17a67,67,0,0,0,4-58L605.71,245.74a66.94,66.94,0,0,0-42.86-39.26l-153.3-46.24a66.94,66.94,0,0,0-57.41,9l-131.73,91a67,67,0,0,0-28.75,50.51l-11,159.75a67,67,0,0,0,14.76,46.73Z"/><path class="cls-59" d="M193.69,503.27a64.52,64.52,0,0,1-11.9-45.89L200.91,300a64.45,64.45,0,0,1,30.32-47.35l135-83.17a64.43,64.43,0,0,1,55.93-5.81L571.3,217.33a64.81,64.81,0,0,1,39.41,40.1l51.06,150.09A64.45,64.45,0,0,1,655,463.34L569.48,596.83a64.47,64.47,0,0,1-47.87,29.5L363.92,642.71a64.46,64.46,0,0,1-52.9-19L199.89,510.61a64.7,64.7,0,0,1-6.2-7.34m-1.23.9a66.14,66.14,0,0,0,6.35,7.5L309.93,624.74a66.29,66.29,0,0,0,54.15,19.48l157.69-16.38a66.3,66.3,0,0,0,49-30.19l85.51-133.49A66.34,66.34,0,0,0,663.21,407L612.15,256.94a66.31,66.31,0,0,0-40.33-41L422.64,162.24a66.35,66.35,0,0,0-57.24,5.94l-135,83.18a66.29,66.29,0,0,0-31,48.45L180.28,457.19a66.3,66.3,0,0,0,12.18,47Z"/><path class="cls-60" d="M191.43,490.23a64,64,0,0,1-9.39-46L209.1,289.61a63.84,63.84,0,0,1,32.44-45.24L379.3,169.12a63.83,63.83,0,0,1,55.59-2.84l144.72,60.79a64.18,64.18,0,0,1,36.89,41.69l42.7,151.05a63.78,63.78,0,0,1-9.59,54.83L558.14,602.21a63.83,63.83,0,0,1-48.86,26.68l-156.76,8a63.8,63.8,0,0,1-51.32-21.55l-104-117.56a65,65,0,0,1-5.75-7.57m-1.26.81a64.33,64.33,0,0,0,5.89,7.75l104,117.56a65.64,65.64,0,0,0,52.53,22.07l156.76-8a65.63,65.63,0,0,0,50-27.31l91.47-127.56a65.65,65.65,0,0,0,9.82-56.12l-42.7-151a65.72,65.72,0,0,0-37.76-42.67L435.48,164.89a65.67,65.67,0,0,0-56.9,2.91L240.82,243.05a65.63,65.63,0,0,0-33.2,46.3L180.56,444A65.64,65.64,0,0,0,190.17,491Z"/><path class="cls-61" d="M189.87,477.21a63.35,63.35,0,0,1-6.9-46l34.77-151.47a63.17,63.17,0,0,1,34.42-43l140.1-67.26a63.2,63.2,0,0,1,55.12.06l139.94,67.61a63.47,63.47,0,0,1,34.31,43.13L656,431.82a63.19,63.19,0,0,1-12.33,53.72L546.65,606.93A63.19,63.19,0,0,1,497,630.78l-155.41-.19a63.18,63.18,0,0,1-49.63-24L195.17,485a64.24,64.24,0,0,1-5.3-7.78m-1.29.74a66.2,66.2,0,0,0,5.42,8l96.75,121.62a65,65,0,0,0,50.8,24.54l155.41.19a65,65,0,0,0,50.85-24.41l97.05-121.39a65,65,0,0,0,12.62-55l-34.4-151.56A65,65,0,0,0,588,235.79L448,168.18a65,65,0,0,0-56.41-.07L251.51,235.37a65,65,0,0,0-35.22,44.06L181.52,430.91a65,65,0,0,0,7.06,47Z"/><path class="cls-62" d="M189,464.25a62.69,62.69,0,0,1-4.43-45.8l42.22-148a62.56,62.56,0,0,1,36.26-40.78l142-59.24a62.55,62.55,0,0,1,54.49,2.92l134.86,74.09a62.91,62.91,0,0,1,31.69,44.43l26.16,151.63a62.57,62.57,0,0,1-15,52.48L535.05,611a62.53,62.53,0,0,1-50.37,21L331,623.77A62.59,62.59,0,0,1,283.2,597.5L193.84,472.23a63.49,63.49,0,0,1-4.84-8m-1.31.67a65,65,0,0,0,4.95,8.16L282,598.35A64.35,64.35,0,0,0,331,625.25l153.65,8.24A64.37,64.37,0,0,0,536.15,612L638.39,497a64.35,64.35,0,0,0,15.33-53.71L627.56,291.65a64.29,64.29,0,0,0-32.43-45.47L460.27,172.09a64.33,64.33,0,0,0-55.77-3l-142,59.24a64.37,64.37,0,0,0-37.12,41.74L183.15,418a64.33,64.33,0,0,0,4.54,46.88Z"/><path class="cls-63" d="M188.82,451.4a62.07,62.07,0,0,1-2-45.52l49.42-144.11a62,62,0,0,1,38-38.45l143.48-51.21a61.93,61.93,0,0,1,53.73,5.71l129.51,80.25a62.29,62.29,0,0,1,29,45.57l18,151.28A62,62,0,0,1,630.42,506L523.36,614.43a62,62,0,0,1-50.88,18.17L321,616.49A62,62,0,0,1,275.05,588L193.19,459.54a63.07,63.07,0,0,1-4.37-8.14m-1.33.6a63,63,0,0,0,4.47,8.32l81.86,128.49a63.71,63.71,0,0,0,47,29.13l151.5,16.11a63.72,63.72,0,0,0,52.08-18.59l107.05-108.4a63.72,63.72,0,0,0,17.94-52.31l-18-151.28a63.69,63.69,0,0,0-29.72-46.64l-129.5-80.25a63.74,63.74,0,0,0-55-5.85L273.7,222a63.71,63.71,0,0,0-38.86,39.35L185.42,405.41A63.7,63.7,0,0,0,187.49,452Z"/><path class="cls-64" d="M189.3,438.69a61.47,61.47,0,0,1,.37-45.12L246,253.64a61.3,61.3,0,0,1,39.53-36l144.52-43.21a61.34,61.34,0,0,1,52.83,8.44l123.89,86a61.7,61.7,0,0,1,26.34,46.56l10,150.52a61.32,61.32,0,0,1-20,49.62L511.63,617.22a61.34,61.34,0,0,1-51.25,15.32l-149-23.78a61.36,61.36,0,0,1-43.94-30.52L193.2,447a61.63,61.63,0,0,1-3.9-8.26m-1.35.51a65.29,65.29,0,0,0,4,8.47L266.23,579a63.09,63.09,0,0,0,45,31.24l149,23.78a63.12,63.12,0,0,0,52.46-15.69L624.07,516.65a63.12,63.12,0,0,0,20.45-50.79l-10-150.51a63.08,63.08,0,0,0-27-47.65L483.7,181.64A63.09,63.09,0,0,0,429.64,173L285.12,216.22a63.06,63.06,0,0,0-40.46,36.88L188.33,393A63.09,63.09,0,0,0,188,439.2Z"/><path class="cls-65" d="M190.44,426.14a60.88,60.88,0,0,1,2.7-44.59l62.95-135.43a60.71,60.71,0,0,1,41-33.59L442.17,177.3A60.73,60.73,0,0,1,494,188.37l118,91.51a61,61,0,0,1,23.64,47.4l2.05,149.33a60.74,60.74,0,0,1-22.32,48L499.89,619.36a60.69,60.69,0,0,1-51.47,12.49l-146-31.23a60.68,60.68,0,0,1-41.86-32.45L193.87,434.51a60.28,60.28,0,0,1-3.43-8.37m-1.36.44a62.2,62.2,0,0,0,3.51,8.57l66.64,133.66A62.45,62.45,0,0,0,302.07,602l146.05,31.23a62.47,62.47,0,0,0,52.68-12.78l115.47-94.72a62.46,62.46,0,0,0,22.85-49.15l-2-149.34a62.46,62.46,0,0,0-24.19-48.51l-118-91.51a62.45,62.45,0,0,0-53-11.33L296.7,211.14a62.44,62.44,0,0,0-41.91,34.37L191.84,381a62.48,62.48,0,0,0-2.76,45.63Z"/><path class="cls-66" d="M192.21,413.79a60.29,60.29,0,0,1,5-43.94L266.45,239.2a60.12,60.12,0,0,1,42.23-31.09L454,180.79a60.16,60.16,0,0,1,50.64,13.64l112,96.59a60.41,60.41,0,0,1,20.91,48.09l-5.71,147.76a60.1,60.1,0,0,1-24.56,46.34L488.17,620.87a60.11,60.11,0,0,1-51.54,9.69L293.84,592.11a60.1,60.1,0,0,1-39.7-34.25l-59-135.61a61.42,61.42,0,0,1-3-8.46m-1.36.37a61.33,61.33,0,0,0,3,8.66l59,135.6a61.83,61.83,0,0,0,40.63,35.06l142.79,38.45A61.87,61.87,0,0,0,489,622l119.08-87.66a61.85,61.85,0,0,0,25.14-47.42l5.71-147.76A61.86,61.86,0,0,0,617.54,290l-112-96.59a61.84,61.84,0,0,0-51.82-14L308.42,206.72a61.8,61.8,0,0,0-43.22,31.81L195.94,369.18a61.85,61.85,0,0,0-5.09,45Z"/><path class="cls-67" d="M194.61,401.67a59.61,59.61,0,0,1,7.2-43.19l75.25-125.59a59.52,59.52,0,0,1,43.36-28.55l145.11-19.47A59.51,59.51,0,0,1,514.89,201l105.7,101.31a59.75,59.75,0,0,1,18.18,48.63l-13.3,145.8a59.52,59.52,0,0,1-26.68,44.54L476.5,621.76A59.53,59.53,0,0,1,425,628.67L285.85,583.25a59.5,59.5,0,0,1-37.48-35.93L197.09,410.19a59.79,59.79,0,0,1-2.48-8.52m-1.37.3a60.47,60.47,0,0,0,2.54,8.71l51.27,137.14a61.26,61.26,0,0,0,38.37,36.77L424.6,630a61.23,61.23,0,0,0,52.67-7.07l122.29-80.5a61.26,61.26,0,0,0,27.31-45.59L640.17,351a61.19,61.19,0,0,0-18.61-49.77L515.86,200a61.21,61.21,0,0,0-50.52-16.48L320.24,203a61.24,61.24,0,0,0-44.39,29.22L200.61,357.76A61.22,61.22,0,0,0,193.24,402Z"/><path class="cls-68" d="M197.6,389.82A59.06,59.06,0,0,1,207,347.49l80.91-120.28a58.9,58.9,0,0,1,44.36-26l144.48-11.74a58.94,58.94,0,0,1,48,18.48l99.26,105.64a59.24,59.24,0,0,1,15.46,49L618.69,506.11A58.94,58.94,0,0,1,590,548.77L464.92,622a58.92,58.92,0,0,1-51.24,4.16L278.41,574.08a58.92,58.92,0,0,1-35.2-37.47L199.62,398.37a60,60,0,0,1-2-8.55m-1.37.21a61.15,61.15,0,0,0,2.06,8.76L241.89,537a60.61,60.61,0,0,0,36,38.35l135.27,52.11a60.62,60.62,0,0,0,52.44-4.26L590.7,550a60.67,60.67,0,0,0,29.37-43.66l20.7-143.47A60.61,60.61,0,0,0,625,312.66L525.69,207a60.58,60.58,0,0,0-49.09-18.91L332.12,199.84a60.62,60.62,0,0,0-45.4,26.59L205.81,346.71A60.63,60.63,0,0,0,196.23,390Z"/><path class="cls-69" d="M201.18,378.25a58.47,58.47,0,0,1,11.45-41.37l86.22-114.73a58.36,58.36,0,0,1,45.21-23.39l143.46-4.12A58.34,58.34,0,0,1,534,215.4L626.66,325a58.61,58.61,0,0,1,12.75,49.27L611.5,515.06a58.37,58.37,0,0,1-30.58,40.69l-127.47,66a58.37,58.37,0,0,1-50.88,1.46l-131-58.53a58.36,58.36,0,0,1-32.86-38.87L202.73,386.81a57.76,57.76,0,0,1-1.55-8.56m-1.37.14a60.12,60.12,0,0,0,1.59,8.76l35.93,139A60,60,0,0,0,271,565.88l131,58.54a60,60,0,0,0,52.07-1.5L581.55,557a60,60,0,0,0,31.3-41.65l27.91-140.78a60,60,0,0,0-13-50.43l-92.66-109.6a60.06,60.06,0,0,0-47.57-21.25L344,197.38a60.08,60.08,0,0,0-46.27,23.94L211.53,336.05a60.06,60.06,0,0,0-11.72,42.34Z"/><path class="cls-70" d="M205.31,367a57.84,57.84,0,0,1,13.47-40.31l91.2-109a57.78,57.78,0,0,1,45.91-20.78L498,200.29a57.76,57.76,0,0,1,44.87,22.94l85.95,113.16a58,58,0,0,1,10.05,49.38L603.93,523.53a57.79,57.79,0,0,1-32.35,38.64L442.13,620.78a57.77,57.77,0,0,1-50.38-1.19L265.22,554.92a57.77,57.77,0,0,1-30.48-40.13L206.4,375.54a58.49,58.49,0,0,1-1.09-8.54m-1.35.07a59,59,0,0,0,1.11,8.74L233.4,515.06a59.44,59.44,0,0,0,31.2,41.07L391.13,620.8A59.44,59.44,0,0,0,442.69,622l129.45-58.61a59.44,59.44,0,0,0,33.11-39.55l34.89-137.75a59.4,59.4,0,0,0-10.29-50.54L543.91,222.4A59.47,59.47,0,0,0,498,198.93l-142.06-3.36a59.44,59.44,0,0,0-47,21.27l-91.2,109A59.39,59.39,0,0,0,204,367.07Z"/><path class="cls-71" d="M210,356.09a57.3,57.3,0,0,1,15.39-39.16l95.83-103a57.21,57.21,0,0,1,46.47-18.18L508,206.42a57.24,57.24,0,0,1,43.19,25l79.11,116.35a57.55,57.55,0,0,1,7.38,49.35L596,531.51A57.2,57.2,0,0,1,562,568L431,619.28a57.21,57.21,0,0,1-49.76-3.79L259.47,545a57.23,57.23,0,0,1-28.05-41.26l-20.8-139.15a57.69,57.69,0,0,1-.63-8.5m-1.35,0a58,58,0,0,0,.65,8.7l20.79,139.15a58.84,58.84,0,0,0,28.72,42.22l121.76,70.5a58.87,58.87,0,0,0,50.92,3.88l131-51.24a58.85,58.85,0,0,0,34.78-37.39l41.63-134.4a58.79,58.79,0,0,0-7.55-50.5L552.26,230.66a58.84,58.84,0,0,0-44.19-25.58L367.78,194.39A58.86,58.86,0,0,0,320.22,213L224.4,316a58.83,58.83,0,0,0-15.76,40.08Z"/><path class="cls-72" d="M215.17,345.54a56.78,56.78,0,0,1,17.25-37.92l100.09-96.9a56.67,56.67,0,0,1,46.89-15.56L517.55,213A56.65,56.65,0,0,1,559,240l72.19,119.13a56.91,56.91,0,0,1,4.74,49.18L587.75,539a56.65,56.65,0,0,1-35.49,34.36L420,617.23a56.65,56.65,0,0,1-49-6.33l-116.74-76a56.65,56.65,0,0,1-25.6-42.25L215.36,354a56.66,56.66,0,0,1-.19-8.44m-1.33-.07a58.08,58.08,0,0,0,.19,8.64l13.35,138.66A58.28,58.28,0,0,0,253.59,536l116.73,76a58.26,58.26,0,0,0,50.14,6.47l132.22-43.87A58.28,58.28,0,0,0,589,539.45l48.13-130.72a58.24,58.24,0,0,0-4.85-50.33L560.09,239.27a58.24,58.24,0,0,0-42.37-27.59L379.57,193.84a58.25,58.25,0,0,0-48,15.93L231.5,306.66a58.2,58.2,0,0,0-17.66,38.81Z"/><path class="cls-73" d="M220.84,335.38a56.2,56.2,0,0,1,19-36.6l104-90.62A56.11,56.11,0,0,1,391,195.21L526.69,220a56.06,56.06,0,0,1,39.53,28.8l65.21,121.53a56.39,56.39,0,0,1,2.14,48.87L579.2,546a56.1,56.1,0,0,1-36.87,32.14l-133,36.52a56.08,56.08,0,0,1-48.12-8.79l-111.48-81.2a56.09,56.09,0,0,1-23.12-43.11l-6-137.79a56.76,56.76,0,0,1,.25-8.35m-1.31-.14a56.63,56.63,0,0,0-.26,8.55l6,137.79A57.63,57.63,0,0,0,249,525.69L360.44,606.9a57.67,57.67,0,0,0,49.24,9l133-36.53a57.7,57.7,0,0,0,37.74-32.89l54.36-126.76a57.73,57.73,0,0,0-2.18-50L567.39,248.18a57.72,57.72,0,0,0-40.47-29.48L391.25,193.91A57.65,57.65,0,0,0,343,207.17L239,297.78a57.69,57.69,0,0,0-19.47,37.46Z"/><path class="cls-74" d="M227,325.63a55.59,55.59,0,0,1,20.71-35.2l107.5-84.21a55.54,55.54,0,0,1,47.3-10.37L535.36,227.4A55.52,55.52,0,0,1,573,257.92l58.17,123.55a55.8,55.8,0,0,1-.42,48.42L570.39,552.41a55.53,55.53,0,0,1-38.12,29.86L398.88,611.5a55.56,55.56,0,0,1-47.12-11.19l-106-86.07a55.54,55.54,0,0,1-20.64-43.81l1.19-136.55a56.91,56.91,0,0,1,.69-8.25m-1.29-.21a56.53,56.53,0,0,0-.7,8.44L223.8,470.42a57.14,57.14,0,0,0,21.11,44.84l106,86.07a57.15,57.15,0,0,0,48.23,11.44l133.39-29.22a57.12,57.12,0,0,0,39-30.57l60.31-122.51a57,57,0,0,0,.44-49.56L574.14,257.36a57.16,57.16,0,0,0-38.48-31.24L402.8,194.58a57.13,57.13,0,0,0-48.42,10.61L246.88,289.4a57.1,57.1,0,0,0-21.19,36Z"/><path class="cls-75" d="M233.55,316.31a55.05,55.05,0,0,1,22.3-33.74L366.5,204.88a55,55,0,0,1,47.31-7.79l129.74,38.07a55,55,0,0,1,35.59,32.13l51.12,125.17a55.27,55.27,0,0,1-2.93,47.86l-66,118a55,55,0,0,1-39.25,27.56l-133.4,22a55,55,0,0,1-46-13.5L242.32,503.77a55,55,0,0,1-18.13-44.39l8.26-135a54,54,0,0,1,1.1-8.11m-1.27-.27a55.93,55.93,0,0,0-1.13,8.31l-8.25,135a56.54,56.54,0,0,0,18.56,45.43l100.36,90.59a56.56,56.56,0,0,0,47.09,13.82l133.4-22A56.58,56.58,0,0,0,562.48,559l66-118a56.53,56.53,0,0,0,3-49L580.34,266.8a56.56,56.56,0,0,0-36.43-32.88L414.18,195.84a56.56,56.56,0,0,0-48.42,8L255.1,281.51A56.6,56.6,0,0,0,232.28,316Z"/><path class="cls-76" d="M240.53,307.43a54.53,54.53,0,0,1,23.8-32.2l113.43-71.08a54.43,54.43,0,0,1,47.18-5.26l126.3,44.37a54.43,54.43,0,0,1,33.53,33.61l44.06,126.41a54.76,54.76,0,0,1-5.37,47.17L552.1,563.71a54.48,54.48,0,0,1-40.23,25.21l-133,14.82A54.43,54.43,0,0,1,334,588l-94.54-94.78a54.42,54.42,0,0,1-15.62-44.83L239,315.4a53.85,53.85,0,0,1,1.51-8m-1.24-.33a56.64,56.64,0,0,0-1.55,8.15l-15.15,133a56,56,0,0,0,16,45.88l94.54,94.77A56,56,0,0,0,379,605l133-14.83a56,56,0,0,0,41.17-25.8l71.36-113.26a56,56,0,0,0,5.5-48.27L586,276.45a56,56,0,0,0-34.31-34.4l-126.3-44.37a56,56,0,0,0-48.29,5.38L263.64,274.14a56,56,0,0,0-24.35,33Z"/><path class="cls-77" d="M247.89,299a54,54,0,0,1,25.2-30.6L388.93,204a53.89,53.89,0,0,1,46.92-2.76l122.58,50.42a53.88,53.88,0,0,1,31.41,35l37,127.26a54.13,54.13,0,0,1-7.75,46.36L542.67,568.55a53.87,53.87,0,0,1-41.08,22.84l-132.32,7.77a53.92,53.92,0,0,1-43.47-17.88l-88.56-98.61a53.86,53.86,0,0,1-13.13-45.13L246,306.81a55.12,55.12,0,0,1,1.91-7.8m-1.21-.39a56.31,56.31,0,0,0-2,8L222.86,437.33a55.42,55.42,0,0,0,13.43,46.19l88.57,98.61a55.43,55.43,0,0,0,44.49,18.29l132.31-7.76a55.44,55.44,0,0,0,42.05-23.38L620.13,461a55.47,55.47,0,0,0,7.94-47.45l-37-127.27a55.43,55.43,0,0,0-32.15-35.79L436.34,200.08a55.43,55.43,0,0,0-48,2.82L272.47,267.3a55.46,55.46,0,0,0-25.79,31.32Z"/><path class="cls-78" d="M255.61,291.07a53.48,53.48,0,0,1,26.49-28.95L400,204.44a53.37,53.37,0,0,1,46.54-.29l118.58,56.2a53.38,53.38,0,0,1,29.25,36.21l30,127.75a53.69,53.69,0,0,1-10.07,45.43L533.1,572.85a53.37,53.37,0,0,1-41.8,20.46l-131.23.82A53.38,53.38,0,0,1,318,574.2L235.55,472.11a53.33,53.33,0,0,1-10.63-45.3l28.4-128.12a53,53,0,0,1,2.29-7.62m-1.18-.45a55.29,55.29,0,0,0-2.34,7.8l-28.4,128.11a54.86,54.86,0,0,0,10.89,46.37L317,575a54.86,54.86,0,0,0,43,20.39l131.22-.82a54.9,54.9,0,0,0,42.79-20.93l81.17-103.11A54.85,54.85,0,0,0,625.57,424l-30-127.75a54.91,54.91,0,0,0-29.93-37.06L447.06,203a54.84,54.84,0,0,0-47.63.3L281.55,261a55,55,0,0,0-27.12,29.63Z"/><path class="cls-79" d="M263.65,283.62a52.91,52.91,0,0,1,27.7-27.25l119.53-50.92a52.86,52.86,0,0,1,46,2.12l114.34,61.71a52.84,52.84,0,0,1,27,37.32l23,127.86A53.14,53.14,0,0,1,609,478.87l-85.61,97.74A52.84,52.84,0,0,1,481,594.67l-129.79-6a52.85,52.85,0,0,1-40.55-21.89l-76.24-105.2a52.8,52.8,0,0,1-8.17-45.35L261,291a52.76,52.76,0,0,1,2.66-7.41m-1.14-.5a53.37,53.37,0,0,0-2.72,7.58L225.07,415.9a54.38,54.38,0,0,0,8.36,46.42l76.24,105.2a54.33,54.33,0,0,0,41.5,22.4l129.79,6a54.37,54.37,0,0,0,43.39-18.48L610,479.69a54.38,54.38,0,0,0,12.6-45.45l-23-127.87a54.31,54.31,0,0,0-27.67-38.18L457.5,206.48a54.3,54.3,0,0,0-47.11-2.17L290.86,255.22a54.34,54.34,0,0,0-28.35,27.9Z"/><path class="cls-80" d="M272,276.67a52.45,52.45,0,0,1,28.8-25.51L421.61,207a52.32,52.32,0,0,1,45.4,4.48l109.86,66.94a52.32,52.32,0,0,1,24.8,38.3l16.15,127.62a52.55,52.55,0,0,1-14.47,43.27l-89.71,92.2a52.32,52.32,0,0,1-42.85,15.66l-128-12.65a52.3,52.3,0,0,1-39-23.74l-69.93-108a52.31,52.31,0,0,1-5.73-45.26l40.82-122a52,52,0,0,1,3-7.19m-1.1-.56a54.15,54.15,0,0,0-3.08,7.36L227,405.47a53.83,53.83,0,0,0,5.87,46.32l69.93,108a53.8,53.8,0,0,0,39.87,24.3l128,12.65a53.84,53.84,0,0,0,43.86-16l89.7-92.2a53.82,53.82,0,0,0,14.82-44.28L602.89,316.57a53.83,53.83,0,0,0-25.38-39.19L467.65,210.44a53.8,53.8,0,0,0-46.46-4.59L300.36,250a53.86,53.86,0,0,0-29.48,26.11Z"/><path class="cls-81" d="M280.58,270.23a51.9,51.9,0,0,1,29.8-23.73l121.76-37.39a51.76,51.76,0,0,1,44.65,6.78l105.15,71.88a51.77,51.77,0,0,1,22.54,39.15l9.36,127a52,52,0,0,1-16.55,42l-93.47,86.52a51.8,51.8,0,0,1-43.19,13.26L334.71,576.61a51.77,51.77,0,0,1-37.29-25.49L233.87,440.74a51.78,51.78,0,0,1-3.32-45.05l46.68-118.51a52.88,52.88,0,0,1,3.35-6.95m-1.05-.61a54.33,54.33,0,0,0-3.44,7.12l-46.67,118.5a53.29,53.29,0,0,0,3.39,46.11l63.55,110.38a53.3,53.3,0,0,0,38.17,26.09L460.45,597a53.29,53.29,0,0,0,44.19-13.57l93.48-86.52a53.26,53.26,0,0,0,16.94-43l-9.36-127a53.23,53.23,0,0,0-23.07-40.06L477.48,214.89a53.26,53.26,0,0,0-45.7-6.95L310,245.33a53.27,53.27,0,0,0-30.49,24.29Z"/><path class="cls-82" d="M289.42,264.31a51.4,51.4,0,0,1,30.69-21.92l122.33-30.66a51.26,51.26,0,0,1,43.8,9l100.24,76.52a51.28,51.28,0,0,1,20.26,39.87l2.67,126.08a51.47,51.47,0,0,1-18.55,40.7L494,584.62a51.3,51.3,0,0,1-43.38,10.88L327.07,570.05a51.34,51.34,0,0,1-35.56-27.14L234.4,430.48a51.31,51.31,0,0,1-1-44.72L285.75,271a51.82,51.82,0,0,1,3.67-6.7m-1-.66a53.54,53.54,0,0,0-3.76,6.86l-52.3,114.75a52.79,52.79,0,0,0,1,45.77l57.12,112.43a52.75,52.75,0,0,0,36.38,27.77l123.51,25.45a52.74,52.74,0,0,0,44.4-11.13l96.91-80.7a52.74,52.74,0,0,0,19-41.65l-2.68-126.08a52.74,52.74,0,0,0-20.73-40.81L487,219.79a52.72,52.72,0,0,0-44.83-9.23L319.82,241.22a52.69,52.69,0,0,0-31.41,22.43Z"/><path class="cls-83" d="M298.47,258.91A50.89,50.89,0,0,1,330,238.83l122.53-24A50.79,50.79,0,0,1,495.33,226l95.14,80.85a50.78,50.78,0,0,1,18,40.48l-3.88,124.8a51.13,51.13,0,0,1-20.45,39.28l-100,74.77a50.78,50.78,0,0,1-43.46,8.5L319.84,563.16a50.79,50.79,0,0,1-33.74-28.67L235.46,420.36a50.75,50.75,0,0,1,1.37-44.26l57.66-110.75a50.7,50.7,0,0,1,4-6.44m-1-.7a53.31,53.31,0,0,0-4.08,6.59L235.77,375.55a52.26,52.26,0,0,0-1.41,45.29L285,535a52.2,52.2,0,0,0,34.53,29.35l120.81,31.56a52.24,52.24,0,0,0,44.47-8.71l100-74.77a52.21,52.21,0,0,0,20.92-40.2l3.89-124.79A52.22,52.22,0,0,0,591.25,306L496.1,225.13a52.2,52.2,0,0,0-43.85-11.45l-122.53,24a52.21,52.21,0,0,0-32.22,20.55Z"/><path class="cls-84" d="M307.69,254.05a50.36,50.36,0,0,1,32.17-18.23l122.4-17.36A50.26,50.26,0,0,1,504,231.75l89.88,84.87a50.27,50.27,0,0,1,15.67,40.95L599.27,480.76A50.53,50.53,0,0,1,577,518.54L474.28,587.28a50.25,50.25,0,0,1-43.41,6.16L313.06,556a50.26,50.26,0,0,1-31.88-30.1L237,410.41a50.27,50.27,0,0,1,3.66-43.69L303.42,260.2a50.31,50.31,0,0,1,4.27-6.15m-.92-.75a52.31,52.31,0,0,0-4.37,6.3L239.66,366.12a51.69,51.69,0,0,0-3.74,44.71L280.08,526.3a51.7,51.7,0,0,0,32.62,30.8l117.81,37.47a51.72,51.72,0,0,0,44.43-6.3l102.74-68.75a51.67,51.67,0,0,0,22.77-38.66l10.32-123.19a51.72,51.72,0,0,0-16-41.91l-89.89-84.87a51.68,51.68,0,0,0-42.76-13.6l-122.4,17.36a51.7,51.7,0,0,0-32.92,18.65Z"/><path class="cls-85" d="M317.06,249.71a49.89,49.89,0,0,1,32.75-16.35l121.92-10.82a49.73,49.73,0,0,1,40.62,15.3l84.48,88.57a49.73,49.73,0,0,1,13.36,41.3L593.62,489a50,50,0,0,1-24,36.2L464.51,587.83a49.82,49.82,0,0,1-43.24,3.84L306.73,548.52a49.77,49.77,0,0,1-30-31.41L239.09,400.65a49.75,49.75,0,0,1,5.88-43l67.55-102.06a49.67,49.67,0,0,1,4.54-5.87m-.87-.78a51.61,51.61,0,0,0-4.65,6L244,357a51.2,51.2,0,0,0-6,44l37.68,116.46a51.23,51.23,0,0,0,30.66,32.15l114.55,43.14a51.18,51.18,0,0,0,44.25-3.92l105.15-62.65a51.25,51.25,0,0,0,24.52-37.05l16.58-121.27a51.21,51.21,0,0,0-13.68-42.27L513.2,237a51.16,51.16,0,0,0-41.57-15.66L349.71,232.19a51.16,51.16,0,0,0-33.52,16.74Z"/><path class="cls-86" d="M326.55,245.91a49.35,49.35,0,0,1,33.23-14.47l121.11-4.38a49.26,49.26,0,0,1,39.37,17.23l78.94,92a49.28,49.28,0,0,1,11.07,41.53L587.59,496.82A49.56,49.56,0,0,1,562,531.37L454.82,587.86a49.26,49.26,0,0,1-42.95,1.56l-111-48.6a49.29,49.29,0,0,1-28-32.61l-31.22-117.1a49.25,49.25,0,0,1,8-42.22l72.08-97.42a50.68,50.68,0,0,1,4.79-5.56m-.82-.82a50.43,50.43,0,0,0-4.9,5.69L248.74,348.2a50.73,50.73,0,0,0-8.23,43.21l31.23,117.1a50.67,50.67,0,0,0,28.65,33.37l111,48.6a50.69,50.69,0,0,0,44-1.59l107.21-56.5A50.72,50.72,0,0,0,588.74,497l22.67-119a50.66,50.66,0,0,0-11.33-42.5l-78.94-92a50.72,50.72,0,0,0-40.29-17.64l-121.11,4.39a50.67,50.67,0,0,0-34,14.81Z"/><path class="cls-87" d="M336.13,242.64a48.94,48.94,0,0,1,33.61-12.58l120,1.94a48.8,48.8,0,0,1,38,19.08l73.28,95a48.79,48.79,0,0,1,8.79,41.63L581.24,504.25a49.09,49.09,0,0,1-27.07,32.84l-108.93,50.3a48.8,48.8,0,0,1-42.55-.69L295.44,532.9a48.8,48.8,0,0,1-26-33.69l-24.8-117.4a48.79,48.79,0,0,1,10.14-41.33l76.32-92.58a49.92,49.92,0,0,1,5-5.26m-.76-.85a49.48,49.48,0,0,0-5.15,5.38L253.9,339.75a50.24,50.24,0,0,0-10.38,42.3l24.81,117.39a50.15,50.15,0,0,0,26.6,34.49l107.24,53.8a50.2,50.2,0,0,0,43.55.71l108.93-50.31a50.14,50.14,0,0,0,27.7-33.6L610.94,388a50.17,50.17,0,0,0-9-42.61l-73.28-95a50.19,50.19,0,0,0-38.93-19.53l-120-1.94a50.17,50.17,0,0,0-34.39,12.88Z"/><path class="cls-88" d="M345.78,239.91a48.37,48.37,0,0,1,33.88-10.7l118.52,8.13a48.31,48.31,0,0,1,36.61,20.84l67.54,97.74a48.29,48.29,0,0,1,6.54,41.62L574.56,511.28a48.56,48.56,0,0,1-28.46,31.06L435.79,586.43a48.3,48.3,0,0,1-42-2.88L290.5,524.79a48.32,48.32,0,0,1-23.95-34.66L248.11,372.77a48.3,48.3,0,0,1,12.17-40.34l80.25-87.59a50,50,0,0,1,5.25-4.93m-.72-.88a49.12,49.12,0,0,0-5.37,5.05l-80.25,87.59A49.65,49.65,0,0,0,247,373l18.44,117.36a49.67,49.67,0,0,0,24.51,35.47l103.25,58.76a49.7,49.7,0,0,0,43,3L546.52,543.4a49.71,49.71,0,0,0,29.13-31.8L610,397.87a49.67,49.67,0,0,0-6.7-42.6l-67.53-97.74a49.68,49.68,0,0,0-37.48-21.32l-118.52-8.14a49.7,49.7,0,0,0-34.67,11Z"/><path class="cls-89" d="M355.45,237.71a48,48,0,0,1,34.06-8.83l116.76,14.19a47.82,47.82,0,0,1,35.13,22.5L603.1,365.7a47.82,47.82,0,0,1,4.31,41.49L567.6,517.87a48,48,0,0,1-29.75,29.24L426.49,585a47.8,47.8,0,0,1-41.41-5l-99-63.44A47.84,47.84,0,0,1,264.15,481L252,364a47.83,47.83,0,0,1,14.12-39.25L350,242.32a46.85,46.85,0,0,1,5.44-4.61m-.66-.91a48.7,48.7,0,0,0-5.57,4.71L265.33,324a49.18,49.18,0,0,0-14.45,40.17l12.15,117a49.22,49.22,0,0,0,22.4,36.35l99,63.44a49.21,49.21,0,0,0,42.39,5.15l111.35-37.88a49.19,49.19,0,0,0,30.45-29.92l39.81-110.68a49.19,49.19,0,0,0-4.41-42.47L542.35,265a49.18,49.18,0,0,0-36-23L389.64,227.76a49.18,49.18,0,0,0-34.85,9Z"/><path class="cls-90" d="M365.13,236a47.46,47.46,0,0,1,34.13-7L514,249.15a47.35,47.35,0,0,1,33.57,24.06l55.83,102.21a47.37,47.37,0,0,1,2.11,41.25L560.38,524a47.7,47.7,0,0,1-30.94,27.37L417.38,583.09A47.37,47.37,0,0,1,376.69,576l-94.64-67.86a47.37,47.37,0,0,1-19.8-36.25L256.3,355.55a47.39,47.39,0,0,1,16-38.08l87.22-77.16a48.32,48.32,0,0,1,5.61-4.28m-.6-.93a48.13,48.13,0,0,0-5.75,4.37l-87.22,77.17a48.68,48.68,0,0,0-16.37,39l5.95,116.31A48.69,48.69,0,0,0,281.4,509L376,576.88a48.72,48.72,0,0,0,41.64,7.28l112.07-31.68a48.72,48.72,0,0,0,31.65-28L606.5,417.1a48.68,48.68,0,0,0-2.16-42.22l-55.82-102.2a48.7,48.7,0,0,0-34.35-24.63L399.45,228a48.65,48.65,0,0,0-34.92,7.13Z"/><path class="cls-91" d="M374.79,234.88a47,47,0,0,1,34.11-5.12l112.38,25.8a46.88,46.88,0,0,1,31.94,25.53l49.9,104a46.9,46.9,0,0,1,0,40.89L552.91,529.76a47.1,47.1,0,0,1-32,25.45L408.46,580.73a46.83,46.83,0,0,1-39.85-9.15l-90.06-72a46.85,46.85,0,0,1-17.7-36.86L261,347.41a46.89,46.89,0,0,1,17.79-36.82L369,238.81a46.93,46.93,0,0,1,5.77-3.93m-.55-1a48.54,48.54,0,0,0-5.91,4l-90.24,71.78a48.2,48.2,0,0,0-18.2,37.68l-.14,115.31a48.22,48.22,0,0,0,18.11,37.73l90.06,72a48.24,48.24,0,0,0,40.79,9.36l112.44-25.52a48.21,48.21,0,0,0,32.76-26l50.15-103.83a48.18,48.18,0,0,0,.05-41.85l-49.9-103.95a48.21,48.21,0,0,0-32.69-26.13l-112.38-25.8a48.25,48.25,0,0,0-34.9,5.24Z"/><path class="cls-92" d="M384.4,234.24a46.56,46.56,0,0,1,34-3.3l109.78,31.33a46.42,46.42,0,0,1,30.25,26.9l44,105.37A46.43,46.43,0,0,1,600.21,435l-55,100a46.72,46.72,0,0,1-33,23.52l-112.51,19.4a46.4,46.4,0,0,1-38.93-11.11L275.52,491a46.38,46.38,0,0,1-15.58-37.36l6.11-114a46.43,46.43,0,0,1,19.5-35.49l92.94-66.29a45.62,45.62,0,0,1,5.91-3.59m-.5-1a47.64,47.64,0,0,0-6,3.68l-92.94,66.29a47.76,47.76,0,0,0-20,36.32l-6.12,114a47.77,47.77,0,0,0,16,38.24l85.31,75.86A47.75,47.75,0,0,0,400,579l112.5-19.41a47.7,47.7,0,0,0,33.74-24.06l55-100.06a47.78,47.78,0,0,0,2.22-41.37l-44-105.37a47.74,47.74,0,0,0-31-27.53L418.69,229.89a47.79,47.79,0,0,0-34.79,3.37Z"/><path class="cls-93" d="M393.94,234.1a46.06,46.06,0,0,1,33.77-1.5l106.92,36.67a45.94,45.94,0,0,1,28.52,28.17l38,106.45a46,46,0,0,1-4.24,39.86l-59.53,96.09a46.24,46.24,0,0,1-33.81,21.54L391.33,574.73a46,46,0,0,1-37.92-13L273,482.31a46,46,0,0,1-13.48-37.76l12-112.4a45.93,45.93,0,0,1,21.11-34.07l95.33-60.74a48,48,0,0,1,6-3.24m-.44-1a47.18,47.18,0,0,0-6.18,3.32L292,297.16A47.29,47.29,0,0,0,270.38,332l-11.95,112.4a47.28,47.28,0,0,0,13.79,38.64l80.42,79.42a47.3,47.3,0,0,0,38.81,13.31l112.24-13.36a47.27,47.27,0,0,0,34.61-22l59.53-96.09a47.25,47.25,0,0,0,4.34-40.79l-38-106.46A47.27,47.27,0,0,0,535,268.24L428.06,231.58a47.3,47.3,0,0,0-34.56,1.53Z"/><path class="cls-94" d="M403.37,234.46a45.58,45.58,0,0,1,33.47.27l103.82,41.79a45.53,45.53,0,0,1,26.74,29.33l32.06,107.23a45.55,45.55,0,0,1-6.26,39.19l-63.85,91.91a45.73,45.73,0,0,1-34.54,19.55l-111.67,7.39a45.5,45.5,0,0,1-36.82-14.82l-75.4-82.7a45.46,45.46,0,0,1-11.37-38l17.64-110.51a45.54,45.54,0,0,1,22.64-32.6l97.41-55.11a46.31,46.31,0,0,1,6.13-2.89m-.38-1a46,46,0,0,0-6.28,3l-97.4,55.11a46.81,46.81,0,0,0-23.18,33.36L258.49,435.41a46.8,46.8,0,0,0,11.63,38.91L345.53,557a46.81,46.81,0,0,0,37.68,15.17l111.67-7.39a46.85,46.85,0,0,0,35.35-20l63.85-91.92a46.79,46.79,0,0,0,6.4-40.11L568.43,305.54a46.83,46.83,0,0,0-27.37-30L437.24,233.74a46.78,46.78,0,0,0-34.25-.28Z"/><path class="cls-95" d="M412.68,235.3a45.18,45.18,0,0,1,33.08,2L546.24,284a45,45,0,0,1,24.92,30.38L597.3,422.07a45,45,0,0,1-8.22,38.43l-67.89,87.57A45.26,45.26,0,0,1,486,565.6l-110.8,1.53a45.06,45.06,0,0,1-35.64-16.57l-70.26-85.67a45.06,45.06,0,0,1-9.27-38.19l23.17-108.35a45,45,0,0,1,24.07-31.06l99.17-49.45a46.5,46.5,0,0,1,6.21-2.54m-.33-1a47.71,47.71,0,0,0-6.36,2.6l-99.16,49.45a46.34,46.34,0,0,0-24.64,31.78L259,426.48a46.35,46.35,0,0,0,9.48,39.08l70.27,85.68a46.39,46.39,0,0,0,36.48,17L486,566.67a46.41,46.41,0,0,0,36-17.95l67.89-87.57a46.31,46.31,0,0,0,8.41-39.33L572.2,314.14A46.37,46.37,0,0,0,546.69,283l-100.48-46.7a46.38,46.38,0,0,0-33.86-2.05Z"/><path class="cls-96" d="M421.84,236.62a44.72,44.72,0,0,1,32.6,3.69l96.94,51.39A44.57,44.57,0,0,1,574.44,323l20.27,107.82a44.64,44.64,0,0,1-10.12,37.57l-71.66,83.07A44.82,44.82,0,0,1,477.25,567l-109.63-4.23a44.61,44.61,0,0,1-34.38-18.23l-65-88.35A44.62,44.62,0,0,1,261,418L289.54,312A44.6,44.6,0,0,1,315,282.56l100.61-43.75a44.76,44.76,0,0,1,6.27-2.19m-.27-1a45.28,45.28,0,0,0-6.42,2.25L314.54,281.59a45.88,45.88,0,0,0-26,30.16L260,417.68a45.9,45.9,0,0,0,7.36,39.14l65,88.35a45.88,45.88,0,0,0,35.18,18.65l109.63,4.23a45.8,45.8,0,0,0,36.51-15.88l71.67-83.06a45.9,45.9,0,0,0,10.35-38.45L575.48,322.83a45.88,45.88,0,0,0-23.61-32.06l-96.93-51.39a45.94,45.94,0,0,0-33.37-3.78Z"/><path class="cls-97" d="M430.83,238.39a44.25,44.25,0,0,1,32.05,5.35l93.17,55.82a44.18,44.18,0,0,1,21.19,32.18L591.69,439.4a44.2,44.2,0,0,1-12,36.62l-75.16,78.42a44.36,44.36,0,0,1-36.09,13.49l-108.17-9.87a44.16,44.16,0,0,1-33.05-19.8l-59.72-90.72a44.16,44.16,0,0,1-5.13-38.18l33.69-103.27a44.17,44.17,0,0,1,26.66-27.81l101.74-38a44.84,44.84,0,0,1,6.32-1.85m-.21-1a45,45,0,0,0-6.47,1.88l-101.74,38a45.44,45.44,0,0,0-27.29,28.47L261.43,409a45.41,45.41,0,0,0,5.25,39.08l59.72,90.73a45.5,45.5,0,0,0,33.82,20.26L468.4,569a45.49,45.49,0,0,0,36.93-13.81l75.16-78.42a45.42,45.42,0,0,0,12.23-37.48L578.27,331.6a45.45,45.45,0,0,0-21.68-32.93l-93.18-55.83a45.44,45.44,0,0,0-32.79-5.46Z"/><path class="cls-98" d="M439.63,240.62A43.8,43.8,0,0,1,471,247.56l89.23,60a43.72,43.72,0,0,1,19.28,32.91l8.71,107.19a43.71,43.71,0,0,1-13.72,35.59l-78.37,73.65a44,44,0,0,1-36.38,11.47L353.35,553a43.72,43.72,0,0,1-31.65-21.29l-54.36-92.8a43.73,43.73,0,0,1-3.09-38l38.67-100.36a43.76,43.76,0,0,1,27.8-26.12l102.56-32.34a44.68,44.68,0,0,1,6.35-1.49m-.16-1a43.47,43.47,0,0,0-6.5,1.53L330.41,273.47A45,45,0,0,0,302,300.2L263.29,400.56a45,45,0,0,0,3.16,38.9l54.36,92.8a45,45,0,0,0,32.39,21.79l106.44,15.36a45,45,0,0,0,37.23-11.73L575.25,484a45,45,0,0,0,14-36.42l-8.7-107.2a45,45,0,0,0-19.73-33.68l-89.24-60a45,45,0,0,0-32.14-7.1Z"/><path class="cls-99" d="M448.21,243.27a43.39,43.39,0,0,1,30.69,8.49l85.13,64a43.29,43.29,0,0,1,17.35,33.54l3.06,106.43A43.32,43.32,0,0,1,569,490.2L487.72,559a43.46,43.46,0,0,1-36.56,9.45L346.71,547.7A43.31,43.31,0,0,1,316.52,525l-48.93-94.57a43.31,43.31,0,0,1-1.09-37.75l43.43-97.23a43.34,43.34,0,0,1,28.84-24.38l103.09-26.66a42.93,42.93,0,0,1,6.35-1.15m-.11-1a42.93,42.93,0,0,0-6.49,1.17L338.52,270.09a44.55,44.55,0,0,0-29.52,25l-43.43,97.22a44.52,44.52,0,0,0,1.11,38.63l48.94,94.58a44.57,44.57,0,0,0,30.89,23.22L451,569.4a44.52,44.52,0,0,0,37.42-9.67L569.69,491a44.53,44.53,0,0,0,15.76-35.28L582.4,349.25a44.56,44.56,0,0,0-17.76-34.33l-85.12-64a44.53,44.53,0,0,0-31.42-8.69Z"/><path class="cls-100" d="M456.56,246.34a43,43,0,0,1,29.91,10L567.32,324a42.88,42.88,0,0,1,15.42,34.06l-2.5,105.4a42.85,42.85,0,0,1-17,33.29l-84,63.77A43.11,43.11,0,0,1,442.63,568l-102.2-25.88a42.89,42.89,0,0,1-28.68-24l-43.48-96a42.84,42.84,0,0,1,.89-37.38l48-93.88a42.87,42.87,0,0,1,29.78-22.61l103.31-21a43.78,43.78,0,0,1,6.34-.8m-.05-1a44.64,44.64,0,0,0-6.49.82l-103.31,21a44.09,44.09,0,0,0-30.48,23.14l-48,93.88a44.09,44.09,0,0,0-.91,38.25l43.48,96.05a44.14,44.14,0,0,0,29.35,24.56l102.2,25.88a44.1,44.1,0,0,0,37.5-7.63l84-63.76a44.13,44.13,0,0,0,17.41-34.08l2.5-105.39A44.12,44.12,0,0,0,568,323.22l-80.84-67.67a44.13,44.13,0,0,0-30.61-10.22Z"/><path class="cls-101" d="M464.65,249.8a42.53,42.53,0,0,1,29.06,11.43l76.43,71.09a42.45,42.45,0,0,1,13.48,34.48l-7.93,104.08a42.43,42.43,0,0,1-18.55,32l-86.31,58.69a42.66,42.66,0,0,1-36.62,5.48l-99.7-30.89A42.44,42.44,0,0,1,307.4,511l-38-97.21a42.46,42.46,0,0,1,2.81-36.91l52.31-90.34a42.44,42.44,0,0,1,30.61-20.82l103.24-15.43a42.89,42.89,0,0,1,6.3-.47m0-1a43.86,43.86,0,0,0-6.45.48L355,264.71A43.69,43.69,0,0,0,323.63,286l-52.3,90.33a43.66,43.66,0,0,0-2.88,37.78l38,97.22a43.66,43.66,0,0,0,27.74,25.8L433.92,568a43.62,43.62,0,0,0,37.47-5.6l86.32-58.69a43.7,43.7,0,0,0,19-32.79l7.93-104.09a43.66,43.66,0,0,0-13.8-35.28L494.39,260.5a43.67,43.67,0,0,0-29.74-11.7Z"/></g></g></svg>