<svg xmlns="http://www.w3.org/2000/svg" viewBox="0 0 1541.6 256.17"><defs><style>.cls-1,.cls-4{fill:none;}.cls-2{fill:#b4aed6;}.cls-3{fill:#a36d6d;}.cls-4{stroke:#fff;stroke-miterlimit:10;stroke-width:1.82px;}.cls-5{font-size:29.94px;}.cls-13,.cls-5{fill:#fff;font-family:"Oswald", Oswald, sans-serif;font-weight:300;}.cls-6{fill:#ffcfe2;}.cls-7{fill:#1b065e;}.cls-8{fill:#72ddf7;}.cls-9{fill:#b388eb;}.cls-10{fill:#ffe9a6;}.cls-11{fill:#a8201a;}.cls-12{fill:#cecbda;}.cls-13{font-size:18px;}.cls-14{fill:#2d2d2e;}</style></defs><title>Timeline</title><g id="Layer_2" data-name="Layer 2"><g id="Layer_1-2" data-name="Layer 1"><polygon class="cls-1" points="1242.52 80.03 1152.91 184.01 1146.13 184.01 1242.52 72.17 1242.52 80.03"/><polygon class="cls-1" points="1242.52 111.48 1180.01 184.01 1173.23 184.01 1242.52 103.62 1242.52 111.48"/><polygon class="cls-1" points="1242.52 95.75 1166.46 184.01 1159.68 184.01 1242.52 87.89 1242.52 95.75"/><polygon class="cls-1" points="1242.52 44.28 1242.52 48.58 1125.8 184.01 1119.03 184.01 1239.45 44.28 1242.52 44.28"/><polygon class="cls-1" points="1242.52 64.31 1139.36 184.01 1132.58 184.01 1242.52 56.44 1242.52 64.31"/><polygon class="cls-1" points="1242.52 174.37 1234.21 184.01 1227.43 184.01 1242.52 166.51 1242.52 174.37"/><polygon class="cls-1" points="1242.52 158.65 1220.66 184.01 1213.88 184.01 1242.52 150.79 1242.52 158.65"/><polygon class="cls-1" points="1242.52 184.01 1240.99 184.01 1242.52 182.24 1242.52 184.01"/><polygon class="cls-1" points="1242.52 127.2 1193.56 184.01 1186.78 184.01 1242.52 119.34 1242.52 127.2"/><polygon class="cls-1" points="1242.52 142.93 1207.11 184.01 1200.33 184.01 1242.52 135.06 1242.52 142.93"/><polygon class="cls-1" points="1124.27 44.28 1094.27 79.08 1094.27 71.22 1117.49 44.28 1124.27 44.28"/><polygon class="cls-1" points="1137.82 44.28 1094.27 94.81 1094.27 86.94 1131.04 44.28 1137.82 44.28"/><polygon class="cls-1" points="1151.37 44.28 1094.27 110.53 1094.27 102.67 1144.59 44.28 1151.37 44.28"/><polygon class="cls-1" points="1094.27 44.28 1097.16 44.28 1094.27 47.63 1094.27 44.28"/><polygon class="cls-1" points="1232.67 44.28 1112.25 184.01 1105.48 184.01 1225.89 44.28 1232.67 44.28"/><polygon class="cls-1" points="1110.71 44.28 1094.27 63.36 1094.27 55.5 1103.94 44.28 1110.71 44.28"/><polygon class="cls-1" points="1205.57 44.28 1094.27 173.43 1094.27 165.57 1198.79 44.28 1205.57 44.28"/><polygon class="cls-1" points="1219.12 44.28 1098.7 184.01 1094.27 184.01 1094.27 181.29 1212.35 44.28 1219.12 44.28"/><polygon class="cls-1" points="1192.02 44.28 1094.27 157.7 1094.27 149.84 1185.24 44.28 1192.02 44.28"/><polygon class="cls-1" points="1164.92 44.28 1094.27 126.26 1094.27 118.39 1158.14 44.28 1164.92 44.28"/><polygon class="cls-1" points="1178.47 44.28 1094.27 141.98 1094.27 134.12 1171.69 44.28 1178.47 44.28"/><polygon class="cls-2" points="1242.52 87.89 1159.68 184.01 1152.91 184.01 1242.52 80.03 1242.52 87.89"/><polygon class="cls-2" points="1242.52 103.62 1173.23 184.01 1166.46 184.01 1242.52 95.75 1242.52 103.62"/><polygon class="cls-2" points="1242.52 56.44 1132.58 184.01 1125.8 184.01 1242.52 48.58 1242.52 56.44"/><polygon class="cls-2" points="1242.52 72.17 1146.13 184.01 1139.36 184.01 1242.52 64.31 1242.52 72.17"/><polygon class="cls-2" points="1242.52 166.51 1227.43 184.01 1220.66 184.01 1242.52 158.65 1242.52 166.51"/><polygon class="cls-2" points="1239.45 44.28 1119.03 184.01 1112.25 184.01 1232.67 44.28 1239.45 44.28"/><polygon class="cls-2" points="1242.52 182.24 1240.99 184.01 1234.21 184.01 1242.52 174.37 1242.52 182.24"/><polygon class="cls-2" points="1242.52 119.34 1186.78 184.01 1180.01 184.01 1242.52 111.48 1242.52 119.34"/><polygon class="cls-2" points="1242.52 135.06 1200.33 184.01 1193.56 184.01 1242.52 127.2 1242.52 135.06"/><polygon class="cls-2" points="1242.52 150.79 1213.88 184.01 1207.11 184.01 1242.52 142.93 1242.52 150.79"/><polygon class="cls-2" points="1212.35 44.28 1094.27 181.29 1094.27 173.43 1205.57 44.28 1212.35 44.28"/><polygon class="cls-2" points="1131.04 44.28 1094.27 86.94 1094.27 79.08 1124.27 44.28 1131.04 44.28"/><polygon class="cls-2" points="1144.59 44.28 1094.27 102.67 1094.27 94.81 1137.82 44.28 1144.59 44.28"/><polygon class="cls-2" points="1158.14 44.28 1094.27 118.39 1094.27 110.53 1151.37 44.28 1158.14 44.28"/><polygon class="cls-2" points="1097.16 44.28 1103.94 44.28 1094.27 55.5 1094.27 47.63 1097.16 44.28"/><polygon class="cls-2" points="1117.49 44.28 1094.27 71.22 1094.27 63.36 1110.71 44.28 1117.49 44.28"/><polygon class="cls-2" points="1225.89 44.28 1105.48 184.01 1098.7 184.01 1219.12 44.28 1225.89 44.28"/><polygon class="cls-2" points="1198.79 44.28 1094.27 165.57 1094.27 157.7 1192.02 44.28 1198.79 44.28"/><polygon class="cls-2" points="1171.69 44.28 1094.27 134.12 1094.27 126.26 1164.92 44.28 1171.69 44.28"/><polygon class="cls-2" points="1185.24 44.28 1094.27 149.84 1094.27 141.98 1178.47 44.28 1185.24 44.28"/><polygon class="cls-1" points="1390.72 81.03 1301.11 185.01 1294.34 185.01 1390.72 73.17 1390.72 81.03"/><polygon class="cls-1" points="1390.72 112.48 1328.21 185.01 1321.44 185.01 1390.72 104.62 1390.72 112.48"/><polygon class="cls-1" points="1390.72 96.75 1314.66 185.01 1307.89 185.01 1390.72 88.89 1390.72 96.75"/><polygon class="cls-1" points="1390.72 45.28 1390.72 49.58 1274.01 185.01 1267.23 185.01 1387.65 45.28 1390.72 45.28"/><polygon class="cls-1" points="1390.72 65.31 1287.56 185.01 1280.79 185.01 1390.72 57.44 1390.72 65.31"/><polygon class="cls-1" points="1390.72 175.37 1382.42 185.01 1375.64 185.01 1390.72 167.51 1390.72 175.37"/><polygon class="cls-1" points="1390.72 159.65 1368.87 185.01 1362.09 185.01 1390.72 151.79 1390.72 159.65"/><polygon class="cls-1" points="1390.72 185.01 1389.19 185.01 1390.72 183.24 1390.72 185.01"/><polygon class="cls-1" points="1390.72 128.2 1341.76 185.01 1334.99 185.01 1390.72 120.34 1390.72 128.2"/><polygon class="cls-1" points="1390.72 143.93 1355.31 185.01 1348.54 185.01 1390.72 136.06 1390.72 143.93"/><polygon class="cls-1" points="1272.47 45.28 1242.48 80.08 1242.48 72.22 1265.69 45.28 1272.47 45.28"/><polygon class="cls-1" points="1286.02 45.28 1242.48 95.81 1242.48 87.94 1279.25 45.28 1286.02 45.28"/><polygon class="cls-1" points="1299.57 45.28 1242.48 111.53 1242.48 103.67 1292.8 45.28 1299.57 45.28"/><polygon class="cls-1" points="1242.48 45.28 1245.37 45.28 1242.48 48.63 1242.48 45.28"/><polygon class="cls-1" points="1380.88 45.28 1260.46 185.01 1253.68 185.01 1374.1 45.28 1380.88 45.28"/><polygon class="cls-1" points="1258.92 45.28 1242.48 64.36 1242.48 56.5 1252.14 45.28 1258.92 45.28"/><polygon class="cls-1" points="1353.78 45.28 1242.48 174.43 1242.48 166.57 1347 45.28 1353.78 45.28"/><polygon class="cls-1" points="1367.33 45.28 1246.91 185.01 1242.48 185.01 1242.48 182.29 1360.55 45.28 1367.33 45.28"/><polygon class="cls-1" points="1340.22 45.28 1242.48 158.7 1242.48 150.84 1333.45 45.28 1340.22 45.28"/><polygon class="cls-1" points="1313.12 45.28 1242.48 127.26 1242.48 119.39 1306.35 45.28 1313.12 45.28"/><polygon class="cls-1" points="1326.67 45.28 1242.48 142.98 1242.48 135.12 1319.9 45.28 1326.67 45.28"/><polygon class="cls-2" points="1390.72 88.89 1307.89 185.01 1301.11 185.01 1390.72 81.03 1390.72 88.89"/><polygon class="cls-2" points="1390.72 104.62 1321.44 185.01 1314.66 185.01 1390.72 96.75 1390.72 104.62"/><polygon class="cls-2" points="1390.72 57.44 1280.79 185.01 1274.01 185.01 1390.72 49.58 1390.72 57.44"/><polygon class="cls-2" points="1390.72 73.17 1294.34 185.01 1287.56 185.01 1390.72 65.31 1390.72 73.17"/><polygon class="cls-2" points="1390.72 167.51 1375.64 185.01 1368.87 185.01 1390.72 159.65 1390.72 167.51"/><polygon class="cls-2" points="1387.65 45.28 1267.23 185.01 1260.46 185.01 1380.88 45.28 1387.65 45.28"/><polygon class="cls-2" points="1390.72 183.24 1389.19 185.01 1382.42 185.01 1390.72 175.37 1390.72 183.24"/><polygon class="cls-2" points="1390.72 120.34 1334.99 185.01 1328.21 185.01 1390.72 112.48 1390.72 120.34"/><polygon class="cls-2" points="1390.72 136.06 1348.54 185.01 1341.76 185.01 1390.72 128.2 1390.72 136.06"/><polygon class="cls-2" points="1390.72 151.79 1362.09 185.01 1355.31 185.01 1390.72 143.93 1390.72 151.79"/><polygon class="cls-2" points="1360.55 45.28 1242.48 182.29 1242.48 174.43 1353.78 45.28 1360.55 45.28"/><polygon class="cls-2" points="1279.25 45.28 1242.48 87.94 1242.48 80.08 1272.47 45.28 1279.25 45.28"/><polygon class="cls-2" points="1292.8 45.28 1242.48 103.67 1242.48 95.81 1286.02 45.28 1292.8 45.28"/><polygon class="cls-2" points="1306.35 45.28 1242.48 119.39 1242.48 111.53 1299.57 45.28 1306.35 45.28"/><polygon class="cls-2" points="1245.37 45.28 1252.14 45.28 1242.48 56.5 1242.48 48.63 1245.37 45.28"/><polygon class="cls-2" points="1265.69 45.28 1242.48 72.22 1242.48 64.36 1258.92 45.28 1265.69 45.28"/><polygon class="cls-2" points="1374.1 45.28 1253.68 185.01 1246.91 185.01 1367.33 45.28 1374.1 45.28"/><polygon class="cls-2" points="1347 45.28 1242.48 166.57 1242.48 158.7 1340.22 45.28 1347 45.28"/><polygon class="cls-2" points="1319.9 45.28 1242.48 135.12 1242.48 127.26 1313.12 45.28 1319.9 45.28"/><polygon class="cls-2" points="1333.45 45.28 1242.48 150.84 1242.48 142.98 1326.67 45.28 1333.45 45.28"/><polygon class="cls-1" points="1538.93 82.03 1449.32 186.01 1442.54 186.01 1538.93 74.17 1538.93 82.03"/><polygon class="cls-1" points="1538.93 113.48 1476.42 186.01 1469.64 186.01 1538.93 105.62 1538.93 113.48"/><polygon class="cls-1" points="1538.93 97.75 1462.87 186.01 1456.09 186.01 1538.93 89.89 1538.93 97.75"/><polygon class="cls-1" points="1538.93 46.28 1538.93 50.58 1422.21 186.01 1415.44 186.01 1535.86 46.28 1538.93 46.28"/><polygon class="cls-1" points="1538.93 66.31 1435.77 186.01 1428.99 186.01 1538.93 58.44 1538.93 66.31"/><polygon class="cls-1" points="1538.93 176.37 1530.62 186.01 1523.85 186.01 1538.93 168.51 1538.93 176.37"/><polygon class="cls-1" points="1538.93 160.65 1517.07 186.01 1510.3 186.01 1538.93 152.79 1538.93 160.65"/><polygon class="cls-1" points="1538.93 186.01 1537.4 186.01 1538.93 184.24 1538.93 186.01"/><polygon class="cls-1" points="1538.93 129.2 1489.97 186.01 1483.19 186.01 1538.93 121.34 1538.93 129.2"/><polygon class="cls-1" points="1538.93 144.93 1503.52 186.01 1496.74 186.01 1538.93 137.06 1538.93 144.93"/><polygon class="cls-1" points="1420.68 46.28 1390.68 81.08 1390.68 73.22 1413.9 46.28 1420.68 46.28"/><polygon class="cls-1" points="1434.23 46.28 1390.68 96.81 1390.68 88.94 1427.45 46.28 1434.23 46.28"/><polygon class="cls-1" points="1447.78 46.28 1390.68 112.53 1390.68 104.67 1441 46.28 1447.78 46.28"/><polygon class="cls-1" points="1390.68 46.28 1393.57 46.28 1390.68 49.63 1390.68 46.28"/><polygon class="cls-1" points="1529.08 46.28 1408.66 186.01 1401.89 186.01 1522.31 46.28 1529.08 46.28"/><polygon class="cls-1" points="1407.13 46.28 1390.68 65.36 1390.68 57.5 1400.35 46.28 1407.13 46.28"/><polygon class="cls-1" points="1501.98 46.28 1390.68 175.43 1390.68 167.57 1495.2 46.28 1501.98 46.28"/><polygon class="cls-1" points="1515.53 46.28 1395.11 186.01 1390.68 186.01 1390.68 183.29 1508.76 46.28 1515.53 46.28"/><polygon class="cls-1" points="1488.43 46.28 1390.68 159.7 1390.68 151.84 1481.65 46.28 1488.43 46.28"/><polygon class="cls-1" points="1461.33 46.28 1390.68 128.26 1390.68 120.39 1454.55 46.28 1461.33 46.28"/><polygon class="cls-1" points="1474.88 46.28 1390.68 143.98 1390.68 136.12 1468.1 46.28 1474.88 46.28"/><polygon class="cls-2" points="1538.93 89.89 1456.09 186.01 1449.32 186.01 1538.93 82.03 1538.93 89.89"/><polygon class="cls-2" points="1538.93 105.62 1469.64 186.01 1462.87 186.01 1538.93 97.75 1538.93 105.62"/><polygon class="cls-2" points="1538.93 58.44 1428.99 186.01 1422.21 186.01 1538.93 50.58 1538.93 58.44"/><polygon class="cls-2" points="1538.93 74.17 1442.54 186.01 1435.77 186.01 1538.93 66.31 1538.93 74.17"/><polygon class="cls-2" points="1538.93 168.51 1523.85 186.01 1517.07 186.01 1538.93 160.65 1538.93 168.51"/><polygon class="cls-2" points="1535.86 46.28 1415.44 186.01 1408.66 186.01 1529.08 46.28 1535.86 46.28"/><polygon class="cls-2" points="1538.93 184.24 1537.4 186.01 1530.62 186.01 1538.93 176.37 1538.93 184.24"/><polygon class="cls-2" points="1538.93 121.34 1483.19 186.01 1476.42 186.01 1538.93 113.48 1538.93 121.34"/><polygon class="cls-2" points="1538.93 137.06 1496.74 186.01 1489.97 186.01 1538.93 129.2 1538.93 137.06"/><polygon class="cls-2" points="1538.93 152.79 1510.3 186.01 1503.52 186.01 1538.93 144.93 1538.93 152.79"/><polygon class="cls-2" points="1508.76 46.28 1390.68 183.29 1390.68 175.43 1501.98 46.28 1508.76 46.28"/><polygon class="cls-2" points="1427.45 46.28 1390.68 88.94 1390.68 81.08 1420.68 46.28 1427.45 46.28"/><polygon class="cls-2" points="1441 46.28 1390.68 104.67 1390.68 96.81 1434.23 46.28 1441 46.28"/><polygon class="cls-2" points="1454.55 46.28 1390.68 120.39 1390.68 112.53 1447.78 46.28 1454.55 46.28"/><polygon class="cls-2" points="1393.57 46.28 1400.35 46.28 1390.68 57.5 1390.68 49.63 1393.57 46.28"/><polygon class="cls-2" points="1413.9 46.28 1390.68 73.22 1390.68 65.36 1407.13 46.28 1413.9 46.28"/><polygon class="cls-2" points="1522.31 46.28 1401.89 186.01 1395.11 186.01 1515.53 46.28 1522.31 46.28"/><polygon class="cls-2" points="1495.2 46.28 1390.68 167.57 1390.68 159.7 1488.43 46.28 1495.2 46.28"/><polygon class="cls-2" points="1468.1 46.28 1390.68 136.12 1390.68 128.26 1461.33 46.28 1468.1 46.28"/><polygon class="cls-2" points="1481.65 46.28 1390.68 151.84 1390.68 143.98 1474.88 46.28 1481.65 46.28"/><polygon class="cls-1" points="941.27 80.03 1033.78 184.01 1040.78 184.01 941.27 72.17 941.27 80.03"/><polygon class="cls-1" points="941.27 111.48 1005.8 184.01 1012.8 184.01 941.27 103.62 941.27 111.48"/><polygon class="cls-1" points="941.27 95.75 1019.79 184.01 1026.79 184.01 941.27 87.89 941.27 95.75"/><polygon class="cls-1" points="941.27 44.28 941.27 48.58 1061.76 184.01 1068.76 184.01 944.44 44.28 941.27 44.28"/><polygon class="cls-1" points="941.27 64.31 1047.77 184.01 1054.77 184.01 941.27 56.44 941.27 64.31"/><polygon class="cls-1" points="941.27 174.37 949.85 184.01 956.84 184.01 941.27 166.51 941.27 174.37"/><polygon class="cls-1" points="941.27 158.65 963.84 184.01 970.83 184.01 941.27 150.79 941.27 158.65"/><polygon class="cls-1" points="941.27 184.01 942.85 184.01 941.27 182.24 941.27 184.01"/><polygon class="cls-1" points="941.27 127.2 991.82 184.01 998.81 184.01 941.27 119.34 941.27 127.2"/><polygon class="cls-1" points="941.27 142.93 977.83 184.01 984.82 184.01 941.27 135.06 941.27 142.93"/><polygon class="cls-1" points="1063.35 44.28 1094.31 79.08 1094.31 71.22 1070.34 44.28 1063.35 44.28"/><polygon class="cls-1" points="1049.36 44.28 1094.31 94.81 1094.31 86.94 1056.36 44.28 1049.36 44.28"/><polygon class="cls-1" points="1035.37 44.28 1094.31 110.53 1094.31 102.67 1042.37 44.28 1035.37 44.28"/><polygon class="cls-1" points="1094.31 44.28 1091.33 44.28 1094.31 47.63 1094.31 44.28"/><polygon class="cls-1" points="951.44 44.28 1075.75 184.01 1082.74 184.01 958.43 44.28 951.44 44.28"/><polygon class="cls-1" points="1077.34 44.28 1094.31 63.36 1094.31 55.5 1084.33 44.28 1077.34 44.28"/><polygon class="cls-1" points="979.41 44.28 1094.31 173.43 1094.31 165.57 986.41 44.28 979.41 44.28"/><polygon class="cls-1" points="965.43 44.28 1089.74 184.01 1094.31 184.01 1094.31 181.29 972.42 44.28 965.43 44.28"/><polygon class="cls-1" points="993.4 44.28 1094.31 157.7 1094.31 149.84 1000.4 44.28 993.4 44.28"/><polygon class="cls-1" points="1021.38 44.28 1094.31 126.26 1094.31 118.39 1028.38 44.28 1021.38 44.28"/><polygon class="cls-1" points="1007.39 44.28 1094.31 141.98 1094.31 134.12 1014.39 44.28 1007.39 44.28"/><polygon class="cls-3" points="941.27 87.89 1026.79 184.01 1033.78 184.01 941.27 80.03 941.27 87.89"/><polygon class="cls-3" points="941.27 103.62 1012.8 184.01 1019.79 184.01 941.27 95.75 941.27 103.62"/><polygon class="cls-3" points="941.27 56.44 1054.77 184.01 1061.76 184.01 941.27 48.58 941.27 56.44"/><polygon class="cls-3" points="941.27 72.17 1040.78 184.01 1047.77 184.01 941.27 64.31 941.27 72.17"/><polygon class="cls-3" points="941.27 166.51 956.84 184.01 963.84 184.01 941.27 158.65 941.27 166.51"/><polygon class="cls-3" points="944.44 44.28 1068.76 184.01 1075.75 184.01 951.44 44.28 944.44 44.28"/><polygon class="cls-3" points="941.27 182.24 942.85 184.01 949.85 184.01 941.27 174.37 941.27 182.24"/><polygon class="cls-3" points="941.27 119.34 998.81 184.01 1005.8 184.01 941.27 111.48 941.27 119.34"/><polygon class="cls-3" points="941.27 135.06 984.82 184.01 991.82 184.01 941.27 127.2 941.27 135.06"/><polygon class="cls-3" points="941.27 150.79 970.83 184.01 977.83 184.01 941.27 142.93 941.27 150.79"/><polygon class="cls-3" points="972.42 44.28 1094.31 181.29 1094.31 173.43 979.41 44.28 972.42 44.28"/><polygon class="cls-3" points="1056.36 44.28 1094.31 86.94 1094.31 79.08 1063.35 44.28 1056.36 44.28"/><polygon class="cls-3" points="1042.37 44.28 1094.31 102.67 1094.31 94.81 1049.36 44.28 1042.37 44.28"/><polygon class="cls-3" points="1028.38 44.28 1094.31 118.39 1094.31 110.53 1035.37 44.28 1028.38 44.28"/><polygon class="cls-3" points="1091.33 44.28 1084.33 44.28 1094.31 55.5 1094.31 47.63 1091.33 44.28"/><polygon class="cls-3" points="1070.34 44.28 1094.31 71.22 1094.31 63.36 1077.34 44.28 1070.34 44.28"/><polygon class="cls-3" points="958.43 44.28 1082.74 184.01 1089.74 184.01 965.43 44.28 958.43 44.28"/><polygon class="cls-3" points="986.41 44.28 1094.31 165.57 1094.31 157.7 993.4 44.28 986.41 44.28"/><polygon class="cls-3" points="1014.39 44.28 1094.31 134.12 1094.31 126.26 1021.38 44.28 1014.39 44.28"/><polygon class="cls-3" points="1000.4 44.28 1094.31 149.84 1094.31 141.98 1007.39 44.28 1000.4 44.28"/><line class="cls-4" x1="91.25" y1="184.84" x2="1538.93" y2="184.84"/><line class="cls-4" x1="92.08" y1="184.84" x2="23.04" y2="253.88"/><line class="cls-4" x1="203.53" y1="184.84" x2="134.5" y2="253.88"/><line class="cls-4" x1="314.98" y1="184.84" x2="245.95" y2="253.88"/><line class="cls-4" x1="426.43" y1="184.84" x2="357.4" y2="253.88"/><line class="cls-4" x1="537.88" y1="184.84" x2="468.85" y2="253.88"/><line class="cls-4" x1="649.34" y1="184.84" x2="580.3" y2="253.88"/><line class="cls-4" x1="760.79" y1="184.84" x2="691.75" y2="253.88"/><line class="cls-4" x1="872.24" y1="184.84" x2="803.21" y2="253.88"/><line class="cls-4" x1="983.69" y1="184.84" x2="914.66" y2="253.88"/><line class="cls-4" x1="1095.14" y1="184.84" x2="1026.11" y2="253.88"/><line class="cls-4" x1="1206.59" y1="184.84" x2="1137.56" y2="253.88"/><line class="cls-4" x1="1318.05" y1="184.84" x2="1249.01" y2="253.88"/><line class="cls-4" x1="1429.5" y1="184.84" x2="1360.46" y2="253.88"/><line class="cls-4" x1="1540.95" y1="184.84" x2="1471.92" y2="253.88"/><text class="cls-5" transform="translate(19.16 250.51) rotate(-45)">2009</text><text class="cls-5" transform="translate(130.61 250.51) rotate(-45)">2010</text><text class="cls-5" transform="translate(242.06 250.51) rotate(-45)">2011</text><text class="cls-5" transform="translate(353.51 250.51) rotate(-45)">2012</text><text class="cls-5" transform="translate(464.96 250.51) rotate(-45)">2013</text><text class="cls-5" transform="translate(576.42 250.51) rotate(-45)">2014</text><text class="cls-5" transform="translate(687.87 250.51) rotate(-45)">2015</text><text class="cls-5" transform="translate(799.32 250.51) rotate(-45)">2016</text><text class="cls-5" transform="translate(910.77 250.51) rotate(-45)">2017</text><text class="cls-5" transform="translate(1022.22 250.51) rotate(-45)">2018</text><text class="cls-5" transform="translate(1133.67 250.51) rotate(-45)">2019</text><text class="cls-5" transform="translate(1245.13 250.51) rotate(-45)">2020</text><text class="cls-5" transform="translate(1356.58 250.51) rotate(-45)">2021</text><text class="cls-5" transform="translate(1468.03 250.51) rotate(-45)">2022</text><rect id="Honey_Creek" data-name="Honey Creek" class="cls-6" x="91.25" y="100.84" width="222.9" height="13.31"/><rect id="McJs" class="cls-7" x="374.03" y="100.84" width="163.02" height="13.31"/><rect id="Caseys" class="cls-8" x="683.44" y="100.84" width="88.16" height="13.31"/><rect id="Hardees" class="cls-9" x="771.6" y="100.84" width="239.54" height="13.31"/><rect id="Hardees-2" data-name="Hardees" class="cls-10" x="1145.93" y="100.84" width="212.87" height="13.31"/><rect id="Citizens" class="cls-11" x="941.27" y="32.64" width="153.04" height="13.31"/><rect id="Citizens-2" data-name="Citizens" class="cls-12" x="1094.27" y="32.64" width="444.65" height="13.31"/><text class="cls-13" transform="translate(92.86 94.15)">Honey Creek Vet</text><text class="cls-13" transform="translate(378.27 94.15)">Waiter</text><text class="cls-13" transform="translate(684.45 94.15)">Deliveries</text><text class="cls-13" transform="translate(774.55 94.15)">Restaurant Manager</text><text class="cls-13" transform="translate(943.34 22.62)">Bank Teller</text><text class="cls-13" transform="translate(1097.12 22.62)">University Student</text><rect class="cls-14" x="1144.93" y="71.86" width="154" height="25"/><text class="cls-13" transform="translate(1144.13 94.15)">IT Media Producer</text></g></g></svg>